SplineFontDB: 3.2
FontName: SeriousShannsLightItalic
FullName: Serious Shanns Light Italic
FamilyName: Serious Shanns Light Italic
Weight: Light
Copyright: https://github.com/kaBeech/serious-sans/blob/main/LICENSE
Version: 6.0.0
ItalicAngle: -11.8
UnderlinePosition: 0
UnderlineWidth: 0
Ascent: 800
Descent: 200
InvalidEm: 0
sfntRevision: 0x00001999
LayerCount: 2
Layer: 0 0 "Back" 1
Layer: 1 0 "Fore" 0
XUID: [1021 329 -1817886000 6804199]
StyleMap: 0x0040
FSType: 4
OS2Version: 3
OS2_WeightWidthSlopeOnly: 0
OS2_UseTypoMetrics: 0
CreationTime: 1532631502
ModificationTime: 315532800
PfmFamily: 81
TTFWeight: 300
TTFWidth: 5
LineGap: 0
VLineGap: 0
Panose: 0 0 0 0 0 0 0 0 0 0
OS2TypoAscent: 613
OS2TypoAOffset: 0
OS2TypoDescent: -188
OS2TypoDOffset: 0
OS2TypoLinegap: 98
OS2WinAscent: 778
OS2WinAOffset: 0
OS2WinDescent: 308
OS2WinDOffset: 0
HheadAscent: 796
HheadAOffset: 0
HheadDescent: -317
HheadDOffset: 0
OS2SubXSize: 317
OS2SubYSize: 293
OS2SubXOff: 0
OS2SubYOff: 37
OS2SupXSize: 317
OS2SupYSize: 293
OS2SupXOff: 0
OS2SupYOff: 171
OS2StrikeYSize: 0
OS2StrikeYPos: 132
OS2CapHeight: 576
OS2XHeight: 485
OS2Vendor: 'NONE'
OS2CodePages: 00000001.00000000
OS2UnicodeRanges: 00000001.00000000.00000000.00000000
MarkAttachClasses: 1
DEI: 91125
LangName: 1033 "" "" "Normal" "FontForge 2.0 : Serious Shanns Light Italic : 11-6-2024" "" "Version 0.1.2"
Encoding: UnicodeBmp
Compacted: 1
UnicodeInterp: none
NameList: AGL For New Fonts
DisplaySize: -48
AntiAlias: 1
FitToEm: 0
WinInfo: 64 16 4
BeginPrivate: 8
BlueValues 32 [-39 -6 490 521 685 718 765 769]
OtherBlues 11 [-304 -292]
BlueScale 9 0.0291667
BlueShift 1 3
StdHW 4 [67]
StdVW 4 [65]
StemSnapH 23 [61 62 63 65 67 94 130]
StemSnapV 14 [40 58 65 125]
EndPrivate
BeginChars: 65537 122

StartChar: .notdef
Encoding: 65536 -1 0
Width: 630
GlyphClass: 1
Flags: HMW
HStem: 688 20G<311.348 634.348 311.348 311.348>
LayerCount: 2
Fore
SplineSet
293.34765625 737 m 1
 666.34765625 737 l 1
 437.34765625 -255 l 1
 64.34765625 -255 l 1
 293.34765625 737 l 1
634.34765625 708 m 1
 311.34765625 708 l 1
 95.34765625 -226 l 1
 419.34765625 -226 l 1
 634.34765625 708 l 1
EndSplineSet
Validated: 524289
EndChar

StartChar: exclam
Encoding: 33 33 11
Width: 630
GlyphClass: 2
Flags: HMW
HStem: -13 130<294.281 357.281>
VStem: 260.781 131<27.5 80.5>
LayerCount: 2
Fore
SplineSet
411.78125 274 m 0
 407.78125 262 401.78125 253 392.78125 247 c 0
 383.78125 241 375.78125 237 366.78125 237 c 2
 363.78125 237 l 2
 354.78125 237 348.78125 240 345.78125 245 c 0
 343.78125 247 342.78125 250 342.78125 254 c 0
 342.78125 258 343.78125 264 345.78125 272 c 0
 348.78125 281 351.78125 290 355.78125 300 c 0
 359.78125 310 362.78125 318 364.78125 325 c 0
 366.78125 332 369.78125 347 375.78125 371 c 0
 381.78125 395 387.78125 423 393.78125 454 c 0
 399.78125 485 405.78125 515 412.78125 544 c 0
 419.78125 573 424.78125 593 426.78125 603 c 0
 428.78125 613 434.78125 634 443.78125 668 c 0
 452.78125 702 457.78125 724 459.78125 732 c 0
 463.78125 747 470.78125 759 478.78125 766 c 0
 486.78125 773 496.78125 777 506.78125 777 c 2
 509.78125 777 l 2
 517.78125 777 523.78125 775 526.78125 771 c 0
 528.78125 769 529.78125 764 529.78125 759 c 0
 529.78125 754 527.78125 748 526.78125 742 c 0
 525.78125 736 513.78125 691 492.78125 609 c 0
 471.78125 527 455.78125 462 444.78125 411 c 0
 433.78125 360 426.78125 330 423.78125 320 c 0
 420.78125 310 415.78125 295 411.78125 274 c 0
391.78125 75 m 0
 391.78125 70 390.78125 64 389.78125 57 c 0
 385.78125 39 377.78125 24 362.78125 11 c 0
 347.78125 -2 329.78125 -10 308.78125 -12 c 0
 306.78125 -12 303.78125 -13 301.78125 -13 c 0
 286.78125 -13 275.78125 -7 268.78125 3 c 0
 262.78125 12 260.78125 22 260.78125 33 c 0
 260.78125 38 261.78125 44 262.78125 51 c 0
 267.78125 68 276.78125 83 293.78125 96 c 0
 312.78125 110 330.78125 117 349.78125 117 c 0
 364.78125 117 377.78125 112 384.78125 102 c 0
 389.78125 95 391.78125 86 391.78125 75 c 0
EndSplineSet
Validated: 524289
EndChar

StartChar: quotedbl
Encoding: 34 34 12
Width: 630
GlyphClass: 2
Flags: HMW
HStem: 448 323<321.546 410.046 326.046 410.046 404.046 475.046 404.046 476.046>
LayerCount: 2
Fore
SplineSet
410.045898438 771 m 2
 418.045898438 771 425.045898438 769 431.045898438 765 c 0
 432.045898438 763 434.045898438 760 435.045898438 756 c 0
 436.045898438 752 436.045898438 748 435.045898438 741 c 0
 429.045898438 714 418.045898438 669 402.045898438 607 c 0
 386.045898438 545 375.045898438 502 367.045898438 479 c 0
 363.045898438 468 357.045898438 461 349.045898438 456 c 0
 341.045898438 451 334.045898438 448 327.045898438 448 c 2
 326.045898438 448 l 2
 317.045898438 448 309.045898438 452 303.045898438 457 c 0
 301.045898438 459 299.045898438 462 299.045898438 466 c 0
 299.045898438 470 300.045898438 474 301.045898438 478 c 0
 312.045898438 512 323.045898438 556 334.045898438 609 c 0
 345.045898438 662 354.045898438 706 361.045898438 741 c 0
 362.045898438 748 365.045898438 753 368.045898438 757 c 0
 371.045898438 762 375.045898438 765 379.045898438 766 c 0
 388.045898438 769 397.045898438 771 404.045898438 771 c 2
 410.045898438 771 l 2
552.045898438 607 m 0
 537.045898438 545 525.045898438 502 517.045898438 479 c 0
 513.045898438 468 507.045898438 461 499.045898438 456 c 0
 491.045898438 451 483.045898438 448 476.045898438 448 c 2
 475.045898438 448 l 2
 466.045898438 448 458.045898438 452 452.045898438 457 c 0
 450.045898438 459 449.045898438 463 449.045898438 466 c 0
 449.045898438 469 450.045898438 473 451.045898438 478 c 0
 461.045898438 512 472.045898438 556 483.045898438 609 c 0
 494.045898438 662 503.045898438 706 510.045898438 741 c 0
 511.045898438 748 514.045898438 753 518.045898438 757 c 0
 522.045898438 761 525.045898438 765 529.045898438 766 c 0
 538.045898438 769 546.045898438 771 553.045898438 771 c 2
 559.045898438 771 l 2
 564.045898438 771 568.045898438 771 571.045898438 770 c 0
 574.045898438 769 578.045898438 767 581.045898438 765 c 0
 584.045898438 763 585.045898438 758 585.045898438 751 c 0
 585.045898438 743 574.045898438 695 552.045898438 607 c 0
EndSplineSet
Validated: 524289
EndChar

StartChar: numbersign
Encoding: 35 35 13
Width: 630
GlyphClass: 2
Flags: HMW
HStem: 205 57<493.476 531.476 470.476 550.476> 457 60<394.476 504.476 370.476 528.476 394.476 612.476 394.476 569.476>
LayerCount: 2
Fore
SplineSet
274.475585938 203 m 1
 265.475585938 203 l 1
 233.475585938 126 211.475585938 74 199.475585938 47 c 0
 192.475585938 36 183.475585938 26 170.475585938 18 c 0
 161.475585938 13 153.475585938 10 147.475585938 10 c 0
 145.475585938 10 141.475585938 11 139.475585938 12 c 0
 135.475585938 12 133.475585938 14 132.475585938 16 c 0
 130.475585938 20 128.475585938 26 128.475585938 34 c 0
 128.475585938 44 130.475585938 55 136.475585938 67 c 0
 145.475585938 86 167.475585938 131 198.475585938 202 c 1
 151.475585938 202 l 2
 139.475585938 202 131.475585938 204 127.475585938 208 c 0
 125.475585938 210 122.475585938 214 122.475585938 217 c 0
 122.475585938 218 123.475585938 221 123.475585938 223 c 0
 125.475585938 232 130.475585938 241 137.475585938 247 c 0
 144.475585938 253 156.475585938 257 169.475585938 257 c 0
 174.475585938 257 181.475585938 258 191.475585938 258 c 0
 201.475585938 258 210.475585938 260 221.475585938 260 c 1
 303.475585938 456 l 1
 284.475585938 456 l 1
 246.475585938 455 l 1
 242.475585938 455 l 2
 232.475585938 455 225.475585938 457 222.475585938 461 c 0
 220.475585938 464 219.475585938 468 219.475585938 473 c 2
 219.475585938 480 l 2
 220.475585938 489 225.475585938 497 233.475585938 503 c 0
 241.475585938 509 251.475585938 514 264.475585938 514 c 2
 265.475585938 514 l 2
 277.475585938 514 296.475585938 515 320.475585938 515 c 2
 327.475585938 515 l 1
 393.475585938 677 l 2
 400.475585938 692 410.475585938 702 419.475585938 707 c 0
 426.475585938 710 431.475585938 712 436.475585938 712 c 0
 438.475585938 712 443.475585938 711 445.475585938 711 c 0
 454.475585938 709 460.475585938 705 462.475585938 698 c 0
 463.475585938 696 464.475585938 692 464.475585938 689 c 0
 464.475585938 683 461.475585938 675 457.475585938 666 c 2
 394.475585938 517 l 1
 528.475585938 517 l 1
 589.475585938 670 l 2
 596.475585938 685 604.475585938 695 614.475585938 700 c 0
 620.475585938 703 626.475585938 705 632.475585938 705 c 0
 634.475585938 705 637.475585938 704 640.475585938 704 c 0
 649.475585938 702 656.475585938 698 658.475585938 691 c 0
 658.475585938 689 659.475585938 686 659.475585938 684 c 0
 659.475585938 677 658.475585938 669 653.475585938 659 c 0
 640.475585938 633 620.475585938 586 594.475585938 519 c 1
 613.475585938 519 l 1
 623.475585938 519 l 2
 634.475585938 519 644.475585938 515 649.475585938 509 c 0
 654.475585938 504 656.475585938 500 656.475585938 495 c 0
 656.475585938 494 655.475585938 492 655.475585938 491 c 0
 653.475585938 482 647.475585938 473 640.475585938 467 c 0
 633.475585938 461 624.475585938 457 612.475585938 457 c 2
 569.475585938 457 l 1
 493.475585938 262 l 1
 550.475585938 262 l 2
 560.475585938 262 566.475585938 260 567.475585938 258 c 0
 569.475585938 254 570.475585938 248 569.475585938 239 c 0
 567.475585938 228 561.475585938 219 556.475585938 214 c 0
 550.475585938 208 542.475585938 205 531.475585938 205 c 2
 470.475585938 205 l 1
 439.475585938 124 418.475585938 70 406.475585938 43 c 0
 399.475585938 31 389.475585938 22 377.475585938 16 c 0
 369.475585938 12 362.475585938 10 356.475585938 10 c 0
 354.475585938 10 349.475585938 11 346.475585938 12 c 0
 340.475585938 13 337.475585938 18 336.475585938 25 c 0
 336.475585938 28 335.475585938 32 335.475585938 34 c 0
 335.475585938 43 338.475585938 52 343.475585938 63 c 0
 356.475585938 90 376.475585938 137 403.475585938 204 c 1
 384.475585938 204 l 1
 274.475585938 203 l 1
504.475585938 457 m 1
 370.475585938 457 l 1
 288.475585938 261 l 1
 326.475585938 262 370.475585938 263 418.475585938 263 c 2
 426.475585938 263 l 1
 451.475585938 323 477.475585938 387 504.475585938 457 c 1
EndSplineSet
Validated: 524289
EndChar

StartChar: dollar
Encoding: 36 36 14
Width: 630
GlyphClass: 2
Flags: HMW
HStem: -17 60<259.847 293.847 269.847 293.847 273.847 293.847>
VStem: 238.847 63 504.847 69<235 287>
LayerCount: 2
Fore
SplineSet
215.84765625 -8 m 0
 198.84765625 -2 185.84765625 4 174.84765625 13 c 0
 153.84765625 31 139.84765625 52 132.84765625 76 c 0
 131.84765625 82 130.84765625 89 130.84765625 95 c 0
 130.84765625 101 132.84765625 107 134.84765625 112 c 0
 138.84765625 121 144.84765625 127 153.84765625 131 c 0
 160.84765625 134 166.84765625 137 169.84765625 137 c 0
 172.84765625 137 176.84765625 138 177.84765625 138 c 2
 182.84765625 138 l 2
 183.84765625 138 185.84765625 135 187.84765625 133 c 0
 189.84765625 131 193.84765625 125 196.84765625 118 c 0
 205.84765625 96 216.84765625 77 231.84765625 64 c 0
 246.84765625 50 266.84765625 43 291.84765625 43 c 2
 293.84765625 43 l 1
 301.84765625 43 l 1
 328.84765625 161 351.84765625 268 371.84765625 365 c 1
 360.84765625 366 351.84765625 368 345.84765625 369 c 0
 339.84765625 370 333.84765625 371 329.84765625 371 c 0
 311.84765625 373 296.84765625 378 283.84765625 387 c 0
 270.84765625 396 260.84765625 406 253.84765625 419 c 0
 243.84765625 438 238.84765625 458 238.84765625 480 c 0
 238.84765625 487 239.84765625 494 241.84765625 503 c 0
 246.84765625 526 254.84765625 548 265.84765625 569 c 0
 275.84765625 590 288.84765625 610 304.84765625 628 c 0
 320.84765625 646 340.84765625 661 362.84765625 674 c 0
 384.84765625 687 409.84765625 697 436.84765625 702 c 2
 443.84765625 704 l 1
 448.84765625 725 454.84765625 747 459.84765625 769 c 0
 462.84765625 784 467.84765625 795 473.84765625 803 c 0
 479.84765625 811 485.84765625 815 494.84765625 815 c 2
 496.84765625 815 l 2
 503.84765625 815 508.84765625 814 510.84765625 811 c 0
 512.84765625 808 513.84765625 803 513.84765625 797 c 0
 513.84765625 791 511.84765625 785 510.84765625 778 c 2
 496.84765625 711 l 1
 509.84765625 710 l 2
 522.84765625 710 540.84765625 706 562.84765625 700 c 0
 584.84765625 694 600.84765625 689 611.84765625 684 c 0
 618.84765625 681 623.84765625 676 625.84765625 670 c 0
 625.84765625 668 626.84765625 664 626.84765625 660 c 0
 626.84765625 656 624.84765625 651 622.84765625 644 c 0
 621.84765625 639 619.84765625 634 615.84765625 631 c 0
 611.84765625 628 607.84765625 626 604.84765625 626 c 2
 595.84765625 626 l 2
 589.84765625 626 583.84765625 627 577.84765625 629 c 0
 572.84765625 630 566.84765625 634 559.84765625 638 c 0
 552.84765625 642 543.84765625 646 532.84765625 649 c 0
 521.84765625 652 507.84765625 655 492.84765625 655 c 2
 483.84765625 656 l 1
 470.84765625 596 452.84765625 518 431.84765625 421 c 1
 443.84765625 419 l 2
 467.84765625 415 487.84765625 408 504.84765625 399 c 0
 522.84765625 389 535.84765625 378 545.84765625 366 c 0
 555.84765625 354 562.84765625 341 566.84765625 326 c 0
 570.84765625 311 573.84765625 295 573.84765625 279 c 0
 573.84765625 263 571.84765625 247 566.84765625 227 c 0
 559.84765625 198 549.84765625 170 533.84765625 144 c 0
 517.84765625 118 500.84765625 96 480.84765625 76 c 0
 460.84765625 56 439.84765625 40 416.84765625 26 c 0
 393.84765625 12 369.84765625 1 344.84765625 -6 c 2
 338.84765625 -8 l 1
 329.84765625 -52 323.84765625 -82 321.84765625 -96 c 0
 317.84765625 -107 311.84765625 -117 303.84765625 -123 c 0
 295.84765625 -129 287.84765625 -132 278.84765625 -132 c 2
 277.84765625 -132 l 2
 275.84765625 -132 272.84765625 -131 270.84765625 -131 c 0
 267.84765625 -129 265.84765625 -125 265.84765625 -118 c 0
 265.84765625 -113 266.84765625 -106 268.84765625 -97 c 0
 273.84765625 -81 279.84765625 -54 287.84765625 -17 c 1
 273.84765625 -17 l 1
 269.84765625 -17 l 2
 249.84765625 -17 232.84765625 -14 215.84765625 -8 c 0
315.84765625 468 m 0
 328.84765625 450 347.84765625 437 373.84765625 429 c 2
 384.84765625 426 l 1
 396.84765625 480 412.84765625 555 432.84765625 651 c 1
 414.84765625 645 l 2
 386.84765625 636 362.84765625 623 342.84765625 603 c 0
 322.84765625 583 309.84765625 560 304.84765625 533 c 0
 302.84765625 526 301.84765625 520 301.84765625 513 c 0
 301.84765625 496 306.84765625 481 315.84765625 468 c 0
504.84765625 241 m 0
 504.84765625 253 502.84765625 266 497.84765625 281 c 0
 493.84765625 294 485.84765625 306 473.84765625 317 c 0
 461.84765625 328 446.84765625 338 427.84765625 346 c 2
 415.84765625 352 l 1
 412.84765625 338 l 1
 412.84765625 338 401.84765625 287 380.84765625 188 c 0
 368.84765625 133 358.84765625 88 350.84765625 53 c 1
 370.84765625 62 l 2
 402.84765625 76 430.84765625 95 454.84765625 120 c 0
 478.84765625 145 493.84765625 173 500.84765625 205 c 0
 502.84765625 217 504.84765625 229 504.84765625 241 c 0
EndSplineSet
Validated: 524289
EndChar

StartChar: percent
Encoding: 37 37 15
Width: 630
GlyphClass: 2
Flags: HMW
HStem: -16 52<405.432 440.932 413.932 440.932> 184 49<468.432 469.432> 444 51<273.432 307.932 281.932 307.932> 645 48<337.432 341.932>
VStem: 216.932 41<522.5 546.5> 348.932 41<63.5 86.5> 379.932 41<589.5 628> 510.932 35<99 143> 510.932 45<129.5 169>
LayerCount: 2
Fore
SplineSet
239.932617188 461 m 0xfa
 228.932617188 472 220.932617188 486 218.932617188 503 c 0
 217.932617188 510 216.932617188 518 216.932617188 527 c 0
 216.932617188 536 217.932617188 548 220.932617188 561 c 0
 229.932617188 600 245.932617188 631 268.932617188 656 c 0
 291.932617188 681 320.932617188 693 353.932617188 693 c 0
 379.932617188 693 398.932617188 683 410.932617188 664 c 0
 417.932617188 653 420.932617188 638 420.932617188 618 c 0
 420.932617188 601 417.932617188 581 411.932617188 559 c 0
 402.932617188 521 386.932617188 493 365.932617188 473 c 0
 344.932617188 453 317.932617188 444 282.932617188 444 c 2
 281.932617188 444 l 2
 264.932617188 444 250.932617188 450 239.932617188 461 c 0xfa
116.932617188 12 m 0
 138.932617188 44 182.932617188 104 247.932617188 192 c 2
 442.932617188 470 l 2
 508.932617188 563 554.932617188 629 580.932617188 670 c 0
 588.932617188 680 597.932617188 686 607.932617188 688 c 0
 610.932617188 688 614.932617188 689 616.932617188 689 c 0
 621.932617188 689 625.932617188 687 630.932617188 684 c 0
 633.932617188 683 635.932617188 681 636.932617188 680 c 0
 637.932617188 679 638.932617188 675 638.932617188 673 c 0
 638.932617188 665 634.932617188 654 623.932617188 641 c 0
 590.932617188 600 514.932617188 497 396.932617188 330 c 0
 281.932617188 163 202.932617188 51 160.932617188 -9 c 0
 151.932617188 -21 143.932617188 -29 136.932617188 -34 c 0
 131.932617188 -37 126.932617188 -39 122.932617188 -39 c 0
 118.932617188 -39 115.932617188 -38 112.932617188 -36 c 0
 109.932617188 -34 105.932617188 -31 104.932617188 -29 c 0
 103.932617188 -27 102.932617188 -24 102.932617188 -21 c 0
 102.932617188 -12 107.932617188 -1 116.932617188 12 c 0
305.932617188 495 m 2
 307.932617188 495 l 2
 324.932617188 495 338.932617188 501 349.932617188 514 c 0
 360.932617188 527 369.932617188 543 375.932617188 563 c 0
 377.932617188 574 379.932617188 585 379.932617188 594 c 0
 379.932617188 605 378.932617188 615 373.932617188 623 c 0
 364.932617188 638 351.932617188 645 331.932617188 645 c 0
 314.932617188 645 299.932617188 638 287.932617188 623 c 0
 276.932617188 610 267.932617188 592 261.932617188 570 c 0
 259.932617188 560 257.932617188 551 257.932617188 542 c 0
 257.932617188 533 258.932617188 526 261.932617188 519 c 0
 268.932617188 505 283.932617188 497 305.932617188 495 c 2
371.932617188 1 m 0
 360.932617188 12 353.932617188 26 350.932617188 43 c 0
 349.932617188 50 348.932617188 59 348.932617188 68 c 0xfc80
 348.932617188 77 350.932617188 88 352.932617188 101 c 0
 360.932617188 140 377.932617188 171 400.932617188 196 c 0
 423.932617188 221 451.932617188 233 484.932617188 233 c 0
 497.932617188 233 509.932617188 231 518.932617188 226 c 0
 528.932617188 221 537.932617188 214 544.932617188 204 c 0
 551.932617188 194 555.932617188 179 555.932617188 159 c 0
 555.932617188 142 552.932617188 122 545.932617188 100 c 1xfd
 545.932617188 99 l 1
 534.932617188 61 518.932617188 32 497.932617188 12 c 0
 476.932617188 -7 449.932617188 -16 416.932617188 -16 c 2
 413.932617188 -16 l 2
 396.932617188 -16 382.932617188 -10 371.932617188 1 c 0
437.932617188 36 m 2
 440.932617188 36 l 2
 456.932617188 36 470.932617188 42 481.932617188 55 c 0
 492.932617188 68 501.932617188 83 506.932617188 103 c 0
 508.932617188 114 510.932617188 125 510.932617188 134 c 0
 510.932617188 152 506.932617188 165 495.932617188 174 c 0
 486.932617188 181 475.932617188 184 462.932617188 184 c 0
 445.932617188 184 431.932617188 176 419.932617188 162 c 0
 407.932617188 149 398.932617188 131 393.932617188 110 c 0
 391.932617188 100 389.932617188 91 389.932617188 82 c 0
 389.932617188 73 391.932617188 66 394.932617188 59 c 0
 401.932617188 45 415.932617188 37 437.932617188 36 c 2
EndSplineSet
Validated: 524289
EndChar

StartChar: ampersand
Encoding: 38 38 16
Width: 630
GlyphClass: 2
Flags: HMW
HStem: -29 69 657 55
VStem: 113.865 71<105.001 142.501> 291.866 64<541.001 542.001> 458.866 71<8.00098 34>
LayerCount: 2
Fore
SplineSet
525.866210938 5 m 0
 520.866210938 -11 513.866210938 -20.9990234375 505.866210938 -23.9990234375 c 0
 500.866210938 -25.9990234375 496.866210938 -27.9990234375 492.866210938 -27.9990234375 c 0
 487.866210938 -27.9990234375 483.866210938 -25.9990234375 479.866210938 -23.9990234375 c 0
 470.866210938 -17.9990234375 463.866210938 -6.9990234375 458.866210938 8.0009765625 c 0
 458.866210938 12.0009765625 456.866210938 22.0009765625 454.866210938 38.0009765625 c 0
 452.866210938 54.0009765625 450.866210938 65.0009765625 448.866210938 73.0009765625 c 2
 443.866210938 97.0009765625 l 1
 427.866210938 79.0009765625 l 2
 425.866210938 77.0009765625 420.866210938 70.0009765625 412.866210938 62.0009765625 c 2
 394.866210938 44.0009765625 l 2
 375.866210938 25.0009765625 362.866210938 13.0009765625 354.866210938 8.0009765625 c 0
 348.866210938 4.0009765625 340.866210938 0.0009765625 331.866210938 -5.9990234375 c 0
 322.866210938 -11.9990234375 313.866210938 -16.9990234375 305.866210938 -18.9990234375 c 0
 297.866210938 -20.9990234375 288.866210938 -23.9990234375 277.866210938 -25.9990234375 c 0
 266.866210938 -27.9990234375 256.866210938 -28.9990234375 246.866210938 -28.9990234375 c 0
 214.866210938 -28.9990234375 187.866210938 -19.9990234375 165.866210938 -2.9990234375 c 0
 143.866210938 14.0009765625 127.866210938 37.0009765625 119.866210938 66.0009765625 c 0
 115.866210938 81.0009765625 113.866210938 97.0009765625 113.866210938 113.000976562 c 0
 113.866210938 129.000976562 115.866210938 145.000976562 119.866210938 162.000976562 c 0
 147.866210938 284.000976562 212.866210938 367.000976562 316.866210938 411.000976562 c 2
 327.866210938 416.000976562 l 1
 311.866210938 460.000976562 302.866210938 486.000976562 300.866210938 491.000976562 c 0
 298.866210938 497.000976562 296.866210938 505.000976562 294.866210938 513.000976562 c 0
 292.866210938 521.000976562 291.866210938 528.000976562 291.866210938 533.000976562 c 0
 291.866210938 551.000976562 293.866210938 569.000976562 297.866210938 587.000976562 c 0
 302.866210938 609.000976562 313.866210938 632.000976562 331.866210938 653.000976562 c 0
 340.866210938 664.000976562 351.866210938 675.000976562 363.866210938 683.000976562 c 0
 375.866210938 691.000976562 390.866210938 698.000976562 408.866210938 704.000976562 c 0
 426.866210938 710.000976562 444.866210938 712.000976562 465.866210938 712.000976562 c 0
 482.866210938 712.000976562 498.866210938 710.000976562 512.866210938 704.000976562 c 0
 526.866210938 698.000976562 538.866210938 690.000976562 548.866210938 680.000976562 c 0
 558.866210938 670.000976562 564.866210938 657.000976562 568.866210938 640.000976562 c 0
 570.754882812 631.974609375 571.751953125 623.279296875 571.751953125 614.020507812 c 0
 571.751953125 603.668945312 570.505859375 592.61328125 567.866210938 581 c 0
 562.866210938 561 555.866210938 542 546.866210938 525 c 0
 537.866210938 508 528.866210938 493 518.866210938 481 c 0
 508.866210938 469 496.866210938 458 482.866210938 447 c 0
 468.866210938 436 455.866210938 427 444.866210938 421 c 0
 433.866210938 415 421.866210938 409 406.866210938 402 c 2
 397.866210938 397 l 1
 400.866210938 387 l 2
 407.866210938 366 419.866210938 335 436.866210938 294 c 0
 453.866210938 253 464.866210938 227 469.866210938 214 c 2
 477.866210938 191 l 1
 492.866210938 213 504.866210938 232 512.866210938 244 c 0
 520.866210938 256 527.866210938 266 532.866210938 273 c 0
 537.866210938 280 541.866210938 286 543.866210938 289 c 0
 557.866210938 305 568.866210938 315 577.866210938 318 c 0
 579.866210938 319 583.866210938 320 585.866210938 320 c 0
 589.866210938 320 593.866210938 318 598.866210938 316 c 0
 603.866210938 313 605.866210938 307 605.866210938 300 c 0
 605.866210938 287 598.866210938 272 587.866210938 255 c 0
 583.866210938 249 571.866210938 236 551.866210938 215 c 0
 531.866210938 194 512.866210938 174 495.866210938 153 c 1
 500.866210938 137 507.866210938 116 514.866210938 93 c 0
 521.866210938 70 525.866210938 55 526.866210938 50 c 0
 527.866210938 45 529.866210938 38 529.866210938 30 c 0
 529.866210938 22 527.866210938 14 525.866210938 5 c 0
444.866210938 657.000976562 m 0
 419.866210938 657.000976562 399.866210938 648.000976562 384.866210938 631.000976562 c 0
 372.866210938 617.000976562 363.866210938 598.000976562 358.866210938 575.000976562 c 0
 356.866210938 566.000976562 355.866210938 556.000976562 355.866210938 546.000976562 c 0
 355.866210938 536.000976562 356.866210938 526.000976562 358.866210938 515.000976562 c 0
 361.866210938 493.000976562 368.866210938 474.000976562 377.866210938 458.000976562 c 2
 382.866210938 450.000976562 l 1
 392.866210938 453.000976562 l 2
 407.866210938 458.000976562 421.866210938 463.000976562 432.866210938 468.000976562 c 0
 443.866210938 473.000976562 454.866210938 480.000976562 465.866210938 489.000976562 c 0
 476.866210938 498.000976562 486.866210938 508.000976562 493.866210938 521.000976562 c 0
 500.866210938 534.000976562 506.866210938 550.000976562 510.866210938 567.000976562 c 0
 512.866210938 576.000976562 514.866210938 585.000976562 514.866210938 593.000976562 c 0
 514.866210938 610.000976562 509.866210938 623.000976562 500.866210938 634.000976562 c 0
 486.866210938 649.000976562 467.866210938 657.000976562 444.866210938 657.000976562 c 0
197.866210938 82.0009765625 m 0
 212.866210938 54.0009765625 237.866210938 40.0009765625 270.866210938 40.0009765625 c 0
 285.866210938 40.0009765625 302.866210938 43.0009765625 322.866210938 49.0009765625 c 0
 329.866210938 51.0009765625 337.866210938 56.0009765625 345.866210938 61.0009765625 c 0
 353.866210938 66.0009765625 358.866210938 69.0009765625 363.866210938 72.0009765625 c 0
 368.866210938 75.0009765625 373.866210938 80.0009765625 380.866210938 87.0009765625 c 0
 387.866210938 94.0009765625 393.866210938 99.0009765625 395.866210938 102.000976562 c 0
 397.866210938 105.000976562 402.866210938 109.000976562 408.866210938 116.000976562 c 0
 414.866210938 123.000976562 418.866210938 127.000976562 419.866210938 128.000976562 c 2
 424.866210938 133.000976562 l 1
 418.866210938 163.000976562 413.866210938 186.000976562 409.866210938 201.000976562 c 0
 404.866210938 217.000976562 394.866210938 242.000976562 380.866210938 277.000976562 c 0
 366.866210938 312.000976562 356.866210938 337.000976562 350.866210938 354.000976562 c 2
 345.866210938 366.000976562 l 1
 333.866210938 361.000976562 l 2
 312.866210938 352.000976562 293.866210938 341.000976562 276.866210938 327.000976562 c 0
 259.866210938 313.000976562 245.866210938 298.000976562 234.866210938 282.000976562 c 0
 223.866210938 266.000976562 214.866210938 249.000976562 207.866210938 232.000976562 c 0
 200.866210938 215.000976562 195.866210938 197.000976562 190.866210938 177.000976562 c 0
 186.866210938 162.000976562 184.866210938 149.000976562 184.866210938 136.000976562 c 0
 184.866210938 115.000976562 188.866210938 97.0009765625 197.866210938 82.0009765625 c 0
EndSplineSet
Validated: 524289
EndChar

StartChar: quotesingle
Encoding: 39 39 17
Width: 630
GlyphClass: 2
Flags: HMW
HStem: 458 302<402.354 481.354 402.354 481.354>
LayerCount: 2
Fore
SplineSet
482.353515625 760 m 2
 490.353515625 760 497.353515625 758 503.353515625 754 c 0
 504.353515625 753 506.353515625 750 507.353515625 746 c 0
 508.353515625 742 507.353515625 737 506.353515625 730 c 0
 500.353515625 704 491.353515625 663 477.353515625 608 c 0
 463.353515625 553 452.353515625 513 444.353515625 490 c 0
 440.353515625 479 434.353515625 470 426.353515625 465 c 0
 418.353515625 460 411.353515625 458 404.353515625 458 c 2
 402.353515625 458 l 2
 392.353515625 459 384.353515625 463 379.353515625 468 c 0
 377.353515625 470 376.353515625 473 376.353515625 477 c 0
 376.353515625 481 377.353515625 484 378.353515625 489 c 0
 388.353515625 524 398.353515625 563 408.353515625 609 c 0
 418.353515625 655 427.353515625 696 434.353515625 731 c 0
 434.353515625 737 436.353515625 743 440.353515625 747 c 0
 444.353515625 751 448.353515625 754 452.353515625 755 c 0
 461.353515625 758 469.353515625 760 476.353515625 760 c 2
 481.353515625 760 l 1
 482.353515625 760 l 2
EndSplineSet
Validated: 524289
EndChar

StartChar: parenleft
Encoding: 40 40 18
Width: 630
GlyphClass: 2
Flags: HMW
HStem: -119 60<354.692 397.192> 745 57<562.692 595.692>
VStem: 227.192 71<140.5 147.5>
LayerCount: 2
Fore
SplineSet
393.192382812 -59 m 0
 401.192382812 -59 406.192382812 -61 408.192382812 -64 c 0
 409.192382812 -65 411.192382812 -67 411.192382812 -71 c 0
 411.192382812 -75 409.192382812 -81 408.192382812 -90 c 0
 406.192382812 -98 402.192382812 -104 394.192382812 -110 c 0
 386.192382812 -116 379.192382812 -119 373.192382812 -119 c 0
 336.192382812 -119 305.192382812 -105 281.192382812 -76 c 0
 256.192382812 -45 240.192382812 -3 232.192382812 52 c 0
 229.192382812 77 227.192382812 103 227.192382812 130 c 0
 227.192382812 165 229.192382812 203 235.192382812 244 c 0
 242.192382812 293 258.192382812 356 282.192382812 433 c 0
 306.192382812 510 332.192382812 574 361.192382812 623 c 0
 374.192382812 644 389.192382812 666 407.192382812 687 c 0
 425.192382812 708 444.192382812 727 465.192382812 744 c 0
 486.192382812 761 508.192382812 775 530.192382812 786 c 0
 552.192382812 797 572.192382812 802 592.192382812 802 c 0
 599.192382812 802 604.192382812 801 606.192382812 799 c 0
 608.192382812 797 610.192382812 793 610.192382812 788 c 0
 610.192382812 785 610.192382812 781 609.192382812 776 c 0
 607.192382812 765 602.192382812 757 595.192382812 752 c 0
 588.192382812 747 581.192382812 745 572.192382812 745 c 0
 553.192382812 745 536.192382812 740 518.192382812 729 c 0
 500.192382812 718 483.192382812 703 468.192382812 685 c 0
 439.192382812 651 414.192382812 609 392.192382812 558 c 0
 375.192382812 523 358.192382812 475 341.192382812 414 c 0
 324.192382812 353 313.192382812 304 307.192382812 268 c 0
 301.192382812 232 298.192382812 197 298.192382812 164 c 0
 298.192382812 117 303.192382812 76 312.192382812 41 c 0
 319.192382812 12 330.192382812 -11 343.192382812 -29 c 0
 358.192382812 -49 374.192382812 -59 393.192382812 -59 c 0
EndSplineSet
Validated: 524289
EndChar

StartChar: parenright
Encoding: 41 41 19
Width: 630
GlyphClass: 2
Flags: HMW
HStem: -119 60<196.056 200.056> 745 57<378.056 408.056>
VStem: 480.556 65<551.5 571>
LayerCount: 2
Fore
SplineSet
545.555664062 571 m 0
 545.555664062 532 541.555664062 488 534.555664062 438 c 0
 523.555664062 361 509.555664062 298 493.555664062 250 c 0
 470.555664062 177 442.555664062 113 408.555664062 57 c 0
 374.555664062 1 338.555664062 -42 298.555664062 -73 c 0
 258.555664062 -104 219.555664062 -119 180.555664062 -119 c 0
 175.555664062 -119 170.555664062 -117 166.555664062 -112 c 0
 164.555664062 -110 163.555664062 -106 163.555664062 -102 c 2
 163.555664062 -96 l 2
 166.555664062 -81 171.555664062 -71 177.555664062 -66 c 0
 183.555664062 -61 191.555664062 -59 200.555664062 -59 c 0
 217.555664062 -59 237.555664062 -50 259.555664062 -31 c 0
 280.555664062 -14 300.555664062 10 321.555664062 38 c 0
 342.555664062 66 361.555664062 99 381.555664062 139 c 0
 401.555664062 179 416.555664062 218 429.555664062 259 c 0
 441.555664062 297 453.555664062 348 464.555664062 410 c 0
 475.555664062 472 480.555664062 522 480.555664062 560 c 0
 480.555664062 582 479.555664062 603 476.555664062 624 c 0
 473.555664062 645 468.555664062 663 461.555664062 682 c 0
 454.555664062 701 444.555664062 716 430.555664062 728 c 0
 416.555664062 740 400.555664062 745 381.555664062 745 c 0
 374.555664062 745 368.555664062 747 364.555664062 751 c 0
 362.555664062 753 361.555664062 755 361.555664062 759 c 0
 361.555664062 763 362.555664062 768 363.555664062 773 c 0
 364.555664062 778 367.555664062 784 370.555664062 788 c 0
 373.555664062 792 376.555664062 795 378.555664062 796 c 0
 385.555664062 800 391.555664062 802 398.555664062 802 c 0
 417.555664062 802 435.555664062 797 452.555664062 787 c 0
 469.555664062 777 483.555664062 764 495.555664062 747 c 0
 507.555664062 730 518.555664062 711 526.555664062 690 c 0
 534.555664062 669 540.555664062 648 542.555664062 627 c 0
 544.555664062 610 545.555664062 592 545.555664062 571 c 0
EndSplineSet
Validated: 524289
EndChar

StartChar: asterisk
Encoding: 42 42 20
Width: 630
GlyphClass: 2
Flags: HMW
HStem: 305 80<186.901 209.401> 313 71<575.401 595.901> 319 52<478.901 488.901 437.401 506.401>
VStem: 305.401 62 405.401 66<145 173>
LayerCount: 2
Fore
SplineSet
431.400390625 129 m 0x98
 424.400390625 129 418.400390625 131 413.400390625 134 c 0
 411.400390625 135 408.400390625 137 407.400390625 139 c 0
 406.400390625 141 405.400390625 144 405.400390625 146 c 0
 404.400390625 173 397.400390625 213 384.400390625 264 c 2
 377.400390625 290 l 1
 362.400390625 268 l 2
 318.400390625 206 290.400390625 165 279.400390625 145 c 0
 276.400390625 139 271.400390625 134 266.400390625 131 c 0
 261.400390625 129 255.400390625 126 250.400390625 126 c 2
 244.400390625 126 l 2
 242.400390625 126 238.400390625 126 234.400390625 127 c 0
 230.400390625 128 225.400390625 130 223.400390625 132 c 0
 221.400390625 134 218.400390625 137 217.400390625 141 c 0
 216.400390625 145 215.400390625 148 215.400390625 151 c 2
 215.400390625 159 l 2
 215.400390625 166 219.400390625 173 225.400390625 182 c 2
 329.400390625 312 l 1
 302.400390625 311 l 2
 251.400390625 307 213.400390625 305 189.400390625 305 c 0
 184.400390625 305 179.400390625 307 176.400390625 308 c 0
 173.400390625 309 170.400390625 312 168.400390625 315 c 0
 165.400390625 320 163.400390625 325 163.400390625 331 c 2
 165.400390625 341 l 2
 165.400390625 346 167.400390625 351 169.400390625 356 c 0
 176.400390625 369 183.400390625 378 192.400390625 382 c 0
 197.400390625 384 201.400390625 385 206.400390625 385 c 2
 209.400390625 385 l 2
 237.400390625 383 284.400390625 379 351.400390625 374 c 1
 345.400390625 391 l 2
 330.400390625 440 316.400390625 477 305.400390625 503 c 0
 303.400390625 509 302.400390625 515 302.400390625 521 c 0
 302.400390625 527 303.400390625 534 305.400390625 540 c 0
 309.400390625 551 315.400390625 559 323.400390625 562 c 0
 329.400390625 566 335.400390625 568 341.400390625 568 c 0
 346.400390625 568 352.400390625 566 357.400390625 562 c 0
 362.400390625 558 366.400390625 552 367.400390625 545 c 0
 370.400390625 529 381.400390625 483 401.400390625 406 c 1
 417.400390625 426 l 2
 452.400390625 471 480.400390625 509 500.400390625 540 c 0
 505.400390625 549 512.400390625 556 519.400390625 560 c 0
 526.400390625 564 533.400390625 566 538.400390625 566 c 0
 543.400390625 566 548.400390625 564 551.400390625 561 c 2
 552.400390625 561 l 2
 554.400390625 560 557.400390625 557 558.400390625 552 c 0
 558.400390625 550 559.400390625 546 559.400390625 543 c 0
 559.400390625 530 555.400390625 518 545.400390625 507 c 0
 518.400390625 476 486.400390625 437 451.400390625 390 c 2
 437.400390625 371 l 1x38
 461.400390625 371 l 2
 516.400390625 371 557.400390625 375 583.400390625 382 c 0
 587.400390625 383 591.400390625 384 593.400390625 384 c 0x58
 598.400390625 384 602.400390625 381 604.400390625 378 c 0
 608.400390625 373 611.400390625 367 611.400390625 362 c 0
 611.400390625 357 609.400390625 350 605.400390625 341 c 0
 598.400390625 328 591.400390625 319 583.400390625 315 c 0
 581.400390625 314 578.400390625 313 576.400390625 313 c 0
 574.400390625 313 572.400390625 314 571.400390625 314 c 0
 555.400390625 317 527.400390625 319 485.400390625 319 c 0x38
 472.400390625 319 453.400390625 318 428.400390625 318 c 1
 469.400390625 187 l 2
 470.400390625 182 471.400390625 176 471.400390625 170 c 0
 471.400390625 164 470.400390625 159 468.400390625 154 c 0
 465.400390625 145 460.400390625 138 454.400390625 134 c 0
 448.400390625 130 440.400390625 129 431.400390625 129 c 0x98
EndSplineSet
Validated: 524289
EndChar

StartChar: plus
Encoding: 43 43 21
Width: 630
GlyphClass: 2
Flags: HMW
HStem: 370 59<349.64 378.64 349.64 378.64>
LayerCount: 2
Fore
SplineSet
255.639648438 369 m 2
 244.639648438 369 236.639648438 371 234.639648438 376 c 0
 232.639648438 379 230.639648438 383 230.639648438 388 c 0
 230.639648438 390 231.639648438 394 231.639648438 397 c 0
 233.639648438 407 238.639648438 415 245.639648438 422 c 0
 252.639648438 428 260.639648438 431 271.639648438 431 c 2
 274.639648438 431 l 2
 317.639648438 430 348.639648438 429 368.639648438 429 c 2
 378.639648438 429 l 1
 387.639648438 469 396.639648438 508 403.639648438 547 c 0
 404.639648438 557 408.639648438 565 413.639648438 570 c 0
 420.639648438 577 429.639648438 580 441.639648438 580 c 2
 444.639648438 580 l 2
 451.639648438 580 457.639648438 578 461.639648438 575 c 0
 462.639648438 574 463.639648438 571 463.639648438 567 c 0
 463.639648438 563 462.639648438 559 460.639648438 553 c 0
 449.639648438 514 439.639648438 472 428.639648438 427 c 1
 546.639648438 427 l 2
 556.639648438 427 562.639648438 425 563.639648438 423 c 0
 564.639648438 421 566.639648438 418 566.639648438 413 c 0
 566.639648438 406 564.639648438 398 561.639648438 391 c 0
 559.639648438 387 556.639648438 383 553.639648438 379 c 0
 548.639648438 373 541.639648438 370 532.639648438 370 c 2
 532.639648438 370 530.639648438 371 528.639648438 371 c 0
 518.639648438 371 504.639648438 372 484.639648438 372 c 0
 464.639648438 372 441.639648438 371 414.639648438 371 c 1
 409.639648438 347 403.639648438 323 398.639648438 298 c 0
 393.639648438 273 389.639648438 258 388.639648438 253 c 0
 385.639648438 240 380.639648438 232 375.639648438 227 c 0
 369.639648438 223 362.639648438 220 354.639648438 220 c 0
 347.639648438 220 342.639648438 221 339.639648438 223 c 0
 336.639648438 225 335.639648438 229 335.639648438 235 c 0
 335.639648438 239 335.639648438 243 336.639648438 248 c 2
 364.639648438 370 l 1
 349.639648438 370 l 1
 255.639648438 369 l 2
EndSplineSet
Validated: 524289
EndChar

StartChar: comma
Encoding: 44 44 22
Width: 630
GlyphClass: 2
Flags: HMW
VStem: 191.297 234
LayerCount: 2
Fore
SplineSet
191.296875 -185 m 2
 191.296875 -182 l 2
 191.296875 -176 194.296875 -169 201.296875 -161 c 0
 219.296875 -140 248.296875 -95 287.296875 -27 c 0
 326.296875 41 351.296875 89 362.296875 116 c 0
 364.296875 123 370.296875 129 376.296875 133 c 0
 382.296875 137 388.296875 139 393.296875 139 c 2
 394.296875 139 l 2
 400.296875 139 406.296875 138 411.296875 137 c 0
 416.296875 135 421.296875 131 423.296875 125 c 0
 424.296875 123 425.296875 120 425.296875 117 c 0
 425.296875 114 423.296875 108 421.296875 101 c 0
 408.296875 68 383.296875 19 347.296875 -48 c 0
 311.296875 -115 286.296875 -157 272.296875 -172 c 0
 260.296875 -185 247.296875 -195 232.296875 -200 c 0
 224.296875 -202 217.296875 -204 211.296875 -204 c 0
 208.296875 -204 204.296875 -203 202.296875 -202 c 0
 199.296875 -201 196.296875 -198 194.296875 -196 c 0
 192.296875 -193 191.296875 -189 191.296875 -185 c 2
EndSplineSet
Validated: 524289
EndChar

StartChar: hyphen
Encoding: 45 45 23
Width: 630
GlyphClass: 2
Flags: HMW
HStem: 255 62<257.372 297.372> 264 56<466.872 494.372>
LayerCount: 2
Fore
SplineSet
279.872070312 317 m 0x80
 314.872070312 317 356.872070312 317 405.872070312 318 c 0
 454.872070312 319 482.872070312 320 489.872070312 320 c 0x40
 498.872070312 320 504.872070312 318 506.872070312 316 c 0
 508.872070312 312 509.872070312 306 508.872070312 298 c 0
 506.872070312 287 500.872070312 278 495.872070312 273 c 0
 489.872070312 267 481.872070312 264 470.872070312 264 c 0
 462.872070312 264 430.872070312 262 375.872070312 259 c 0
 320.872070312 256 281.872070312 255 260.872070312 255 c 0
 253.872070312 255 247.872070312 256 244.872070312 258 c 0
 241.872070312 260 240.872070312 264 240.872070312 270 c 0
 240.872070312 274 241.872070312 278 242.872070312 283 c 0
 243.872070312 294 247.872070312 303 252.872070312 308 c 0
 259.872070312 314 268.872070312 317 279.872070312 317 c 0x80
EndSplineSet
Validated: 524289
EndChar

StartChar: period
Encoding: 46 46 24
Width: 630
GlyphClass: 2
Flags: HMW
HStem: -2 130<295.475 359.475 302.975 359.475>
VStem: 262.975 131<37.5 90.5>
LayerCount: 2
Fore
SplineSet
393.974609375 85 m 0
 393.974609375 80 392.974609375 74 391.974609375 68 c 0
 387.974609375 49 379.974609375 34 364.974609375 21 c 0
 349.974609375 8 331.974609375 0 310.974609375 -2 c 2
 302.974609375 -2 l 2
 287.974609375 -2 277.974609375 3 270.974609375 13 c 0
 265.974609375 22 262.974609375 32 262.974609375 43 c 0
 262.974609375 49 263.974609375 55 264.974609375 61 c 0
 268.974609375 79 279.974609375 94 296.974609375 107 c 0
 315.974609375 121 332.974609375 128 351.974609375 128 c 0
 366.974609375 128 378.974609375 123 385.974609375 113 c 0
 390.974609375 105 393.974609375 96 393.974609375 85 c 0
EndSplineSet
Validated: 524289
EndChar

StartChar: slash
Encoding: 47 47 25
Width: 630
GlyphClass: 2
Flags: W
LayerCount: 2
Fore
SplineSet
81.94140625 -31 m 0
 81.94140625 -28 82.94140625 -24 82.94140625 -20 c 0
 84.94140625 -3 92.94140625 12 103.94140625 27 c 0
 231.94140625 187 341.94140625 329 434.94140625 454 c 0
 493.94140625 530 556.94140625 617 623.94140625 714 c 0
 630.94140625 723 636.94140625 730 644.94140625 734 c 0
 652.94140625 738 659.94140625 741 665.94140625 741 c 0
 671.94140625 741 676.94140625 739 682.94140625 737 c 0
 688.94140625 733 692.94140625 727 692.94140625 719 c 0
 692.94140625 710 685.94140625 698 676.94140625 683 c 0
 652.94140625 649 588.94140625 566 483.94140625 433 c 0
 378.94140625 300 314.94140625 218 291.94140625 185 c 0
 276.94140625 164 252.94140625 129 218.94140625 80 c 0
 184.94140625 31 163.94140625 1 155.94140625 -10 c 0
 142.94140625 -27 127.94140625 -38 112.94140625 -45 c 0
 105.94140625 -47 100.94140625 -49 96.94140625 -49 c 0
 92.94140625 -49 88.94140625 -48 86.94140625 -46 c 2
 85.94140625 -46 l 2
 83.94140625 -44 81.94140625 -38 81.94140625 -31 c 0
EndSplineSet
Validated: 524289
EndChar

StartChar: zero
Encoding: 48 48 26
Width: 630
GlyphClass: 2
Flags: HMW
HStem: -12 60<301.334 301.834> 649 57<460.334 461.334>
VStem: 153.334 77<133.5 211>
LayerCount: 2
Fore
SplineSet
164.333984375 211 m 0
 165.333984375 218 168.333984375 235 174.333984375 261 c 0
 180.333984375 287 185.333984375 308 189.333984375 324 c 0
 193.333984375 340 199.333984375 361 206.333984375 388 c 0
 213.333984375 415 220.333984375 438 226.333984375 458 c 0
 232.333984375 478 240.333984375 500 250.333984375 522 c 0
 260.333984375 544 269.333984375 565 278.333984375 582 c 0
 300.333984375 623 328.333984375 653 363.333984375 674 c 0
 398.333984375 695 438.333984375 706 482.333984375 706 c 0
 504.333984375 706 525.333984375 702 543.333984375 693 c 0
 561.333984375 684 576.333984375 671 588.333984375 655 c 0
 600.333984375 639 608.333984375 618 613.333984375 591 c 0
 615.333984375 578 616.333984375 564 616.333984375 548 c 0
 616.333984375 532 614.333984375 516 612.333984375 496 c 0
 607.333984375 463 599.333984375 425 590.333984375 383 c 0
 581.333984375 341 570.333984375 298 558.333984375 256 c 0
 546.333984375 214 535.333984375 181 524.333984375 159 c 0
 504.333984375 117 484.333984375 82 464.333984375 57 c 0
 455.333984375 45 447.333984375 34 436.333984375 26 c 0
 425.333984375 18 415.333984375 11 405.333984375 6 c 0
 395.333984375 1 384.333984375 -3 372.333984375 -5 c 0
 360.333984375 -7 348.333984375 -10 336.333984375 -11 c 0
 324.333984375 -12 310.333984375 -12 293.333984375 -12 c 0
 268.333984375 -12 245.333984375 -7 224.333984375 3 c 0
 203.333984375 13 188.333984375 27 176.333984375 46 c 0
 164.333984375 65 156.333984375 88 154.333984375 116 c 0
 154.333984375 123 153.333984375 130 153.333984375 137 c 0
 153.333984375 159 157.333984375 184 164.333984375 211 c 0
366.333984375 616 m 0
 343.333984375 594 322.333984375 559 302.333984375 511 c 0
 295.333984375 494 288.333984375 473 282.333984375 451 c 0
 276.333984375 429 269.333984375 402 262.333984375 370 c 0
 255.333984375 338 250.333984375 315 248.333984375 302 c 2
 234.333984375 232 l 2
 234.333984375 230 232.333984375 226 232.333984375 221 c 0
 232.333984375 216 230.333984375 212 230.333984375 210 c 2
 215.333984375 160 l 1
 251.333984375 198 l 1
 353.333984375 321 448.333984375 447 539.333984375 576 c 1
 544.333984375 581 l 1
 541.333984375 588 l 2
 532.333984375 608 520.333984375 622 504.333984375 633 c 0
 489.333984375 644 471.333984375 649 451.333984375 649 c 0
 418.333984375 649 389.333984375 638 366.333984375 616 c 0
354.333984375 53 m 0
 367.333984375 56 381.333984375 61 394.333984375 70 c 0
 421.333984375 86 444.333984375 117 465.333984375 162 c 0
 469.333984375 171 476.333984375 194 486.333984375 230 c 0
 497.333984375 266 509.333984375 307 521.333984375 354 c 0
 533.333984375 401 541.333984375 446 548.333984375 489 c 2
 556.333984375 542 l 1
 526.333984375 498 l 1
 433.333984375 352 336.333984375 230 232.333984375 131 c 1
 227.333984375 127 l 1
 228.333984375 120 l 2
 233.333984375 93 244.333984375 74 261.333984375 62 c 0
 274.333984375 53 291.333984375 48 311.333984375 48 c 0
 327.333984375 48 341.333984375 50 354.333984375 53 c 0
EndSplineSet
Validated: 524289
EndChar

StartChar: one
Encoding: 49 49 27
Width: 630
GlyphClass: 2
Flags: HMW
HStem: 3 67
LayerCount: 2
Fore
SplineSet
525.346679688 47 m 2
 525.346679688 40 l 2
 523.346679688 29 518.346679688 21 511.346679688 14 c 0
 504.346679688 7 493.346679688 3 478.346679688 3 c 0
 275.346679688 5 160.346679688 7 138.346679688 7 c 0
 129.346679688 7 124.346679688 9 122.346679688 13 c 0
 120.346679688 16 118.346679688 19 118.346679688 23 c 0
 118.346679688 27 120.346679688 31 120.346679688 35 c 0
 122.346679688 46 125.346679688 55 132.346679688 62 c 0
 139.346679688 69 148.346679688 72 159.346679688 72 c 0
 187.346679688 72 235.346679688 71 302.346679688 70 c 1
 309.346679688 103 315.346679688 129 317.346679688 146 c 0
 317.346679688 151 320.346679688 168 326.346679688 197 c 2
 340.346679688 262 l 2
 342.346679688 275 349.346679688 300 357.346679688 336 c 0
 365.346679688 372 372.346679688 399 376.346679688 417 c 0
 391.346679688 481 406.346679688 549 426.346679688 620 c 1
 399.346679688 598 l 2
 352.346679688 558 318.346679688 534 298.346679688 525 c 0
 296.346679688 524 294.346679688 523 292.346679688 523 c 0
 288.346679688 523 283.346679688 527 279.346679688 532 c 0
 274.346679688 539 273.346679688 545 273.346679688 551 c 0
 273.346679688 553 274.346679688 555 274.346679688 557 c 0
 275.346679688 566 278.346679688 574 283.346679688 581 c 0
 288.346679688 588 295.346679688 595 306.346679688 604 c 0
 325.346679688 619 344.346679688 636 365.346679688 653 c 2
 412.346679688 692 l 2
 423.346679688 699 433.346679688 705 442.346679688 710 c 0
 451.346679688 715 458.346679688 718 463.346679688 718 c 0
 472.346679688 718 481.346679688 713 490.346679688 704 c 0
 497.346679688 697 502.346679688 691 502.346679688 686 c 2
 502.346679688 685 l 1
 502.346679688 685 488.346679688 633 461.346679688 529 c 0
 434.346679688 430 419.346679688 373 416.346679688 357 c 0
 402.346679688 290 390.346679688 234 381.346679688 190 c 0
 376.346679688 165 368.346679688 124 359.346679688 67 c 1
 384.346679688 67 418.346679688 66 458.346679688 65 c 0
 480.346679688 65 495.346679688 64 501.346679688 64 c 0
 507.346679688 64 513.346679688 63 516.346679688 62 c 0
 519.346679688 61 522.346679688 59 522.346679688 58 c 0
 524.346679688 56 525.346679688 52 525.346679688 47 c 2
EndSplineSet
Validated: 524289
EndChar

StartChar: two
Encoding: 50 50 28
Width: 630
GlyphClass: 2
Flags: HMW
HStem: -5 59 0 64<480.989 486.989> 650 60<460.489 472.489>
VStem: 552.989 68<578.5 582>
LayerCount: 2
Fore
SplineSet
302.989257812 -5 m 0xb0
 275.989257812 -6 246.989257812 -7 215.989257812 -7 c 0
 184.989257812 -7 160.989257812 -6 143.989257812 -4 c 0
 139.989257812 -4 137.989257812 -1 135.989257812 1 c 0
 132.989257812 5 129.989257812 12 129.989257812 23 c 0
 129.989257812 38 134.989257812 57 139.989257812 81 c 0
 146.989257812 108 157.989257812 137 175.989257812 167 c 0
 193.989257812 197 216.989257812 227 245.989257812 256 c 0
 272.989257812 284 299.989257812 307 328.989257812 324 c 0
 397.989257812 365 444.989257812 393 465.989257812 409 c 0
 494.989257812 431 516.989257812 456 529.989257812 482 c 0
 536.989257812 496 543.989257812 514 548.989257812 536 c 0
 550.989257812 549 552.989257812 560 552.989257812 571 c 0
 552.989257812 593 546.989257812 610 534.989257812 623 c 0
 517.989257812 641 489.989257812 650 454.989257812 650 c 0
 430.989257812 650 407.989257812 642 382.989257812 625 c 0
 357.989257812 608 337.989257812 590 321.989257812 569 c 0
 308.989257812 553 298.989257812 544 292.989257812 544 c 2
 288.989257812 544 l 2
 287.989257812 544 285.989257812 544 283.989257812 545 c 0
 281.989257812 546 276.989257812 549 271.989257812 551 c 0
 266.989257812 554 265.989257812 559 265.989257812 566 c 0
 265.989257812 572 271.989257812 584 280.989257812 603 c 0
 287.989257812 615 297.989257812 627 310.989257812 639 c 0
 323.989257812 651 338.989257812 662 355.989257812 673 c 0
 372.989257812 684 391.989257812 693 411.989257812 700 c 0
 431.989257812 707 450.989257812 710 469.989257812 710 c 0
 531.989257812 710 573.989257812 695 598.989257812 664 c 0
 613.989257812 645 620.989257812 620 620.989257812 588 c 0
 620.989257812 569 618.989257812 548 613.989257812 525 c 0
 600.989257812 472 577.989257812 430 545.989257812 398 c 0
 521.989257812 374 483.989257812 347 432.989257812 318 c 0
 416.989257812 308 396.989257812 296 369.989257812 281 c 0
 339.989257812 265 312.989257812 246 290.989257812 223 c 0
 268.989257812 200 251.989257812 176 238.989257812 151 c 0
 225.989257812 127 213.989257812 101 205.989257812 73 c 2
 201.989257812 58 l 1
 248.989257812 56 288.989257812 54 321.989257812 54 c 0
 346.989257812 54 365.989257812 55 381.989257812 56 c 0
 397.989257812 57 410.989257812 58 421.989257812 59 c 0
 432.989257812 60 451.989257812 62 480.989257812 64 c 2x70
 489.989257812 64 l 2
 493.989257812 64 497.989257812 65 501.989257812 65 c 0
 505.989257812 65 509.989257812 64 511.989257812 64 c 0
 512.989257812 63 514.989257812 61 516.989257812 60 c 2
 516.989257812 56 l 1
 516.989257812 52 l 2
 516.989257812 45 514.989257812 37 511.989257812 29 c 0
 508.989257812 21 502.989257812 14 496.989257812 8 c 0
 492.989257812 3 488.989257812 0 484.989257812 0 c 0
 444.989257812 0 385.989257812 -1 302.989257812 -5 c 0xb0
EndSplineSet
Validated: 524289
EndChar

StartChar: three
Encoding: 51 51 29
Width: 630
GlyphClass: 2
Flags: HMW
HStem: -12 60<310.957 332.957> 330 76<340.957 361.457> 650 60<438.957 452.957>
VStem: 478.457 74<214.5 271> 540.457 69<584.5 585.5>
LayerCount: 2
Fore
SplineSet
545.45703125 201 m 0xf0
 530.45703125 136 500.45703125 84 456.45703125 45 c 0
 414.45703125 7 363.45703125 -12 302.45703125 -12 c 0
 283.45703125 -12 265.45703125 -9 247.45703125 -2 c 0
 229.45703125 4 214.45703125 12 201.45703125 22 c 0
 188.45703125 32 177.45703125 44 168.45703125 56 c 0
 159.45703125 68 153.45703125 80 151.45703125 91 c 0
 150.45703125 96 149.45703125 101 149.45703125 107 c 0
 149.45703125 113 151.45703125 119 153.45703125 125 c 0
 158.45703125 135 164.45703125 142 172.45703125 146 c 0
 180.45703125 150 187.45703125 152 192.45703125 152 c 0
 194.45703125 152 197.45703125 151 199.45703125 151 c 0
 206.45703125 149 211.45703125 143 216.45703125 132 c 0
 225.45703125 110 239.45703125 90 259.45703125 73 c 0
 277.45703125 56 298.45703125 48 323.45703125 48 c 0
 359.45703125 48 391.45703125 60 419.45703125 84 c 0
 447.45703125 108 466.45703125 140 474.45703125 179 c 0
 476.45703125 194 478.45703125 208 478.45703125 221 c 0
 478.45703125 248 472.45703125 271 457.45703125 289 c 0
 435.45703125 316 392.45703125 330 330.45703125 330 c 0
 327.45703125 330 323.45703125 332 321.45703125 333 c 0
 319.45703125 334 316.45703125 337 314.45703125 341 c 0
 311.45703125 346 309.45703125 352 309.45703125 359 c 0
 309.45703125 361 310.45703125 365 310.45703125 368 c 0
 312.45703125 380 317.45703125 389 323.45703125 396 c 0
 329.45703125 403 336.45703125 406 345.45703125 406 c 0
 394.45703125 406 435.45703125 418 468.45703125 442 c 0
 504.45703125 466 527.45703125 501 536.45703125 546 c 0
 538.45703125 557 540.45703125 566 540.45703125 575 c 0xe8
 540.45703125 596 533.45703125 612 518.45703125 625 c 0
 498.45703125 642 471.45703125 650 434.45703125 650 c 0
 422.45703125 650 409.45703125 647 395.45703125 642 c 0
 390.45703125 640 384.45703125 636 378.45703125 632 c 0
 372.45703125 628 367.45703125 624 364.45703125 622 c 0
 361.45703125 620 357.45703125 614 351.45703125 608 c 2
 338.45703125 595 l 2
 336.45703125 593 332.45703125 587 327.45703125 580 c 0
 316.45703125 567 307.45703125 560 300.45703125 558 c 0
 298.45703125 558 296.45703125 557 294.45703125 557 c 0
 289.45703125 557 285.45703125 559 280.45703125 562 c 0
 278.45703125 564 275.45703125 566 274.45703125 568 c 0
 273.45703125 570 273.45703125 574 273.45703125 577 c 0
 273.45703125 588 278.45703125 600 287.45703125 615 c 0
 302.45703125 640 323.45703125 662 349.45703125 680 c 0
 362.45703125 689 378.45703125 697 395.45703125 702 c 0
 412.45703125 707 429.45703125 710 448.45703125 710 c 0
 512.45703125 710 558.45703125 695 584.45703125 666 c 0
 601.45703125 648 609.45703125 624 609.45703125 593 c 0
 609.45703125 576 606.45703125 556 601.45703125 535 c 0
 597.45703125 516 591.45703125 500 583.45703125 485 c 0
 575.45703125 470 566.45703125 458 556.45703125 448 c 0
 546.45703125 438 535.45703125 429 522.45703125 421 c 0
 509.45703125 413 497.45703125 408 485.45703125 403 c 0
 474.45703125 398 462.45703125 394 449.45703125 392 c 2
 401.45703125 381 l 1
 449.45703125 368 l 2
 470.45703125 363 487.45703125 356 501.45703125 348 c 0
 515.45703125 340 527.45703125 330 536.45703125 317 c 0
 547.45703125 302 552.45703125 283 552.45703125 259 c 0
 552.45703125 242 550.45703125 222 545.45703125 201 c 0xf0
EndSplineSet
Validated: 524289
EndChar

StartChar: four
Encoding: 52 52 30
Width: 630
GlyphClass: 2
Flags: HMW
HStem: 236 55<343.087 447.587 434.587 435.587>
VStem: 391.587 50 391.587 63<17 62 19 62>
LayerCount: 2
Fore
SplineSet
398.586914062 -1 m 0xa0
 393.586914062 5 391.586914062 11 391.586914062 17 c 2
 391.586914062 19 l 1
 396.586914062 40 404.586914062 78 415.586914062 134 c 2
 435.586914062 236 l 1
 383.586914062 236 l 2
 302.586914062 236 242.586914062 232 201.586914062 223 c 0
 197.586914062 223 193.586914062 222 190.586914062 222 c 0
 187.586914062 222 183.586914062 222 181.586914062 223 c 0
 177.586914062 225 174.586914062 228 172.586914062 231 c 0
 170.586914062 238 168.586914062 246 168.586914062 255 c 0
 168.586914062 260 170.586914062 266 171.586914062 274 c 0
 172.586914062 282 175.586914062 290 179.586914062 297 c 0
 190.586914062 315 213.586914062 345 250.586914062 387 c 0
 285.586914062 429 327.586914062 480 377.586914062 542 c 0
 427.586914062 604 465.586914062 650 489.586914062 679 c 0
 499.586914062 690 509.586914062 699 519.586914062 705 c 0
 529.586914062 711 538.586914062 713 545.586914062 713 c 2
 546.586914062 713 l 1
 552.586914062 713 l 2
 559.586914062 713 566.586914062 711 571.586914062 708 c 0
 576.586914062 705 578.586914062 699 578.586914062 691 c 2
 578.586914062 691 577.586914062 689 577.586914062 688 c 0
 576.586914062 665 570.586914062 629 561.586914062 581 c 0
 552.586914062 533 544.586914062 491 537.586914062 458 c 2
 501.586914062 291 l 1
 522.586914062 291 539.586914062 290 552.586914062 290 c 0
 562.586914062 290 568.586914062 287 570.586914062 285 c 0
 572.586914062 281 572.586914062 275 571.586914062 267 c 0
 569.586914062 256 564.586914062 247 559.586914062 242 c 0
 553.586914062 235 545.586914062 232 533.586914062 232 c 0
 521.586914062 232 506.586914062 233 489.586914062 234 c 1
 467.586914062 129 454.586914062 69 454.586914062 55 c 0
 454.586914062 36 449.586914062 20 441.586914062 7 c 0xc0
 434.586914062 -5 426.586914062 -11 417.586914062 -11 c 0
 410.586914062 -11 404.586914062 -8 398.586914062 -1 c 0xa0
516.586914062 640 m 1
 488.586914062 610 l 1
 379.586914062 481 301.586914062 380 255.586914062 308 c 2
 241.586914062 287 l 1
 266.586914062 289 l 2
 298.586914062 291 337.586914062 292 381.586914062 292 c 0
 399.586914062 292 421.586914062 291 447.586914062 291 c 1
 476.586914062 423 496.586914062 526 509.586914062 600 c 2
 516.586914062 640 l 1
EndSplineSet
Validated: 524289
EndChar

StartChar: five
Encoding: 53 53 31
Width: 630
GlyphClass: 2
Flags: HMW
HStem: -6 60<299.027 316.027> 433 64<420.527 481.027> 633 62<588.027 646.027 630.527 646.027> 639 61
VStem: 513.527 70<327 379.5>
LayerCount: 2
Fore
SplineSet
576.526367188 299 m 0xd8
 565.526367188 250 549.526367188 207 529.526367188 168 c 0
 510.526367188 129 488.526367188 97 465.526367188 72 c 0
 442.526367188 47 416.526367188 27 388.526367188 14 c 0
 360.526367188 1 331.526367188 -6 300.526367188 -6 c 0
 276.526367188 -6 253.526367188 -3 233.526367188 3 c 0
 212.526367188 9 196.526367188 17 184.526367188 26 c 0
 172.526367188 35 164.526367188 45 157.526367188 56 c 0
 150.526367188 67 144.526367188 78 141.526367188 89 c 0
 140.526367188 96 140.526367188 102 140.526367188 108 c 0
 140.526367188 114 140.526367188 121 142.526367188 126 c 0
 146.526367188 134 153.526367188 140 162.526367188 145 c 0
 173.526367188 150 181.526367188 152 185.526367188 152 c 0
 186.526367188 152 188.526367188 151 190.526367188 151 c 0
 192.526367188 151 195.526367188 150 196.526367188 148 c 0
 198.526367188 144 201.526367188 138 204.526367188 131 c 0
 215.526367188 103 231.526367188 83 252.526367188 70 c 0
 269.526367188 59 288.526367188 54 309.526367188 54 c 0
 354.526367188 54 396.526367188 75 432.526367188 117 c 0
 467.526367188 159 492.526367188 213 507.526367188 282 c 0
 511.526367188 302 513.526367188 319 513.526367188 335 c 0
 513.526367188 356 509.526367188 374 502.526367188 389 c 0
 495.526367188 405 485.526367188 417 470.526367188 424 c 0
 458.526367188 430 444.526367188 433 428.526367188 433 c 0
 412.526367188 433 395.526367188 430 378.526367188 426 c 0
 368.526367188 424 356.526367188 418 340.526367188 409 c 0
 336.526367188 407 330.526367188 403 323.526367188 398 c 0
 316.526367188 393 311.526367188 389 309.526367188 387 c 0
 307.526367188 385 298.526367188 376 283.526367188 363 c 0
 272.526367188 354 259.526367188 348 245.526367188 347 c 0
 244.526367188 347 243.526367188 346 242.526367188 346 c 0
 237.526367188 346 232.526367188 348 227.526367188 350 c 0
 220.526367188 353 217.526367188 364 217.526367188 383 c 0
 217.526367188 396 219.526367188 412 223.526367188 432 c 0
 227.526367188 452 232.526367188 473 238.526367188 494 c 0
 244.526367188 515 251.526367188 538 258.526367188 563 c 0
 265.526367188 588 269.526367188 606 271.526367188 619 c 1
 270.526367188 623 l 2
 268.526367188 627 267.526367188 632 267.526367188 638 c 0
 267.526367188 640 268.526367188 644 268.526367188 646 c 0
 268.526367188 656 271.526367188 665 275.526367188 673 c 0
 279.526367188 681 283.526367188 687 289.526367188 692 c 0
 295.526367188 697 301.526367188 700 306.526367188 700 c 0
 327.526367188 700 375.526367188 699 453.526367188 698 c 0
 534.526367188 697 597.526367188 696 641.526367188 696 c 0
 642.526367188 696 644.526367188 695 645.526367188 695 c 0xe8
 646.526367188 695 647.526367188 693 647.526367188 692 c 0
 649.526367188 687 651.526367188 682 651.526367188 676 c 2
 651.526367188 672 l 2
 651.526367188 664 648.526367188 657 646.526367188 650 c 0
 645.526367188 647 643.526367188 644 642.526367188 642 c 0
 641.526367188 640 639.526367188 637 637.526367188 636 c 0
 635.526367188 635 633.526367188 633 631.526367188 633 c 0
 629.526367188 633 625.526367188 631 622.526367188 631 c 2
 615.526367188 631 l 2
 614.526367188 631 610.526367188 632 605.526367188 632 c 0
 600.526367188 632 595.526367188 633 590.526367188 633 c 0
 585.526367188 633 572.526367188 634 551.526367188 636 c 0
 530.526367188 638 511.526367188 640 495.526367188 641 c 0
 479.526367188 642 458.526367188 643 429.526367188 643 c 0
 400.526367188 643 366.526367188 641 329.526367188 639 c 1
 326.526367188 626 321.526367188 604 313.526367188 572 c 0
 305.526367188 540 300.526367188 517 297.526367188 502 c 0
 294.526367188 487 288.526367188 454 278.526367188 403 c 1
 303.526367188 430 l 2
 323.526367188 450 346.526367188 465 375.526367188 478 c 0
 404.526367188 491 436.526367188 497 469.526367188 497 c 0
 492.526367188 497 512.526367188 492 528.526367188 482 c 0
 546.526367188 473 557.526367188 459 566.526367188 442 c 0
 577.526367188 421 583.526367188 395 583.526367188 364 c 0
 583.526367188 343 581.526367188 321 576.526367188 299 c 0xd8
EndSplineSet
Validated: 524289
EndChar

StartChar: six
Encoding: 54 54 32
Width: 630
GlyphClass: 2
Flags: HMW
HStem: -10 60<296.332 330.832> 405 64<394.332 461.332>
VStem: 162.832 58<186.5 192> 505.832 71<299 358>
LayerCount: 2
Fore
SplineSet
564.83203125 248 m 0
 556.83203125 213 542.83203125 178 523.83203125 146 c 0
 504.83203125 114 483.83203125 86 460.83203125 64 c 0
 439.83203125 42 416.83203125 23 390.83203125 10 c 0
 364.83203125 -3 338.83203125 -10 312.83203125 -10 c 0
 279.83203125 -10 250.83203125 -3 227.83203125 12 c 0
 204.83203125 27 188.83203125 48 178.83203125 75 c 0
 168.83203125 102 162.83203125 134 162.83203125 171 c 0
 162.83203125 213 169.83203125 260 182.83203125 313 c 0
 195.83203125 370 212.83203125 421 233.83203125 465 c 0
 254.83203125 509 276.83203125 547 298.83203125 578 c 0
 319.83203125 609 343.83203125 635 369.83203125 656 c 0
 395.83203125 677 423.83203125 693 451.83203125 704 c 0
 481.83203125 715 514.83203125 722 551.83203125 725 c 2
 558.83203125 725 l 2
 567.83203125 725 575.83203125 723 580.83203125 720 c 0
 582.83203125 719 583.83203125 716 584.83203125 714 c 0
 585.83203125 712 586.83203125 709 586.83203125 708 c 2
 586.83203125 704 l 2
 586.83203125 699 581.83203125 692 572.83203125 684 c 0
 563.83203125 676 555.83203125 670 546.83203125 668 c 0
 539.83203125 667 528.83203125 664 513.83203125 661 c 0
 498.83203125 658 485.83203125 654 474.83203125 651 c 0
 464.83203125 648 452.83203125 643 439.83203125 637 c 0
 412.83203125 624 382.83203125 601 351.83203125 567 c 0
 335.83203125 549 319.83203125 525 302.83203125 494 c 0
 285.83203125 463 272.83203125 436 263.83203125 412 c 2
 245.83203125 362 l 1
 283.83203125 399 l 2
 304.83203125 422 329.83203125 440 357.83203125 452 c 0
 385.83203125 464 416.83203125 469 448.83203125 469 c 0
 473.83203125 469 495.83203125 466 514.83203125 458 c 0
 533.83203125 450 546.83203125 438 557.83203125 421 c 0
 570.83203125 401 576.83203125 375 576.83203125 341 c 0
 576.83203125 314 572.83203125 283 564.83203125 248 c 0
321.83203125 378 m 0
 292.83203125 360 265.83203125 337 241.83203125 309 c 2
 239.83203125 307 l 1
 231.83203125 276 225.83203125 251 223.83203125 232 c 0
 221.83203125 221 220.83203125 209 220.83203125 197 c 0
 220.83203125 176 223.83203125 156 229.83203125 136 c 0
 234.83203125 120 240.83203125 105 249.83203125 92 c 0
 258.83203125 79 269.83203125 69 284.83203125 61 c 0
 297.83203125 54 312.83203125 50 328.83203125 50 c 2
 330.83203125 50 l 2
 352.83203125 50 376.83203125 59 398.83203125 78 c 0
 420.83203125 97 440.83203125 119 457.83203125 147 c 0
 476.83203125 175 488.83203125 203 495.83203125 232 c 0
 502.83203125 262 505.83203125 288 505.83203125 310 c 0
 505.83203125 335 500.83203125 355 490.83203125 369 c 0
 480.83203125 382 468.83203125 392 455.83203125 397 c 0
 442.83203125 402 427.83203125 405 408.83203125 405 c 0
 379.83203125 405 350.83203125 396 321.83203125 378 c 0
EndSplineSet
Validated: 524289
EndChar

StartChar: seven
Encoding: 55 55 33
Width: 630
GlyphClass: 2
Flags: HMW
HStem: 634 68
LayerCount: 2
Fore
SplineSet
637.108398438 631 m 0
 624.108398438 611 601.108398438 581 569.108398438 541 c 0
 538.108398438 501 505.108398438 459 474.108398438 417 c 0
 443.108398438 375 403.108398438 319 356.108398438 249 c 0
 309.108398438 179 262.108398438 107 215.108398438 33 c 0
 204.108398438 16 193.108398438 4 181.108398438 -3 c 0
 172.108398438 -8 165.108398438 -11 158.108398438 -11 c 2
 153.108398438 -11 l 2
 149.108398438 -10 145.108398438 -7 143.108398438 -4 c 0
 141.108398438 -1 140.108398438 3 140.108398438 9 c 0
 140.108398438 15 143.108398438 24 149.108398438 37 c 0
 196.108398438 105 245.108398438 173 294.108398438 241 c 0
 341.108398438 309 381.108398438 362 412.108398438 403 c 0
 443.108398438 444 470.108398438 483 497.108398438 522 c 0
 524.108398438 561 545.108398438 592 558.108398438 616 c 2
 566.108398438 633 l 1
 546.108398438 634 l 2
 521.108398438 634.5 495.608398438 634.75 469.233398438 634.75 c 0
 442.858398438 634.75 415.608398438 634.5 387.108398438 634 c 0
 330.108398438 633 292.108398438 629 272.108398438 624 c 0
 270.108398438 624 268.108398438 623 267.108398438 623 c 0
 266.108398438 623 264.108398438 624 263.108398438 624 c 0
 261.108398438 625 258.108398438 628 257.108398438 630 c 0
 255.108398438 637 253.108398438 646 254.108398438 658 c 0
 256.108398438 666 261.108398438 673 266.108398438 679 c 0
 271.108398438 685 278.108398438 690 291.108398438 692 c 0
 322.108398438 699 374.108398438 702 444.108398438 702 c 0
 466.108398438 702 511.108398438 700 577.108398438 697 c 0
 609.108398438 696 626.108398438 695 628.108398438 695 c 0
 638.108398438 695 645.108398438 691 650.108398438 682 c 0
 651.108398438 680 653.108398438 676 653.108398438 673 c 0
 653.108398438 670 652.108398438 667 652.108398438 665 c 0
 651.108398438 656 646.108398438 644 637.108398438 631 c 0
EndSplineSet
Validated: 524289
EndChar

StartChar: eight
Encoding: 56 56 34
Width: 630
GlyphClass: 2
Flags: HMW
HStem: -16 61<311.405 315.905> 658 48<428.405 468.405 442.905 468.405>
VStem: 143.905 58<122.5 164> 250.905 60 500.905 67<217.5 249.5> 539.905 62<550 586>
LayerCount: 2
Fore
SplineSet
567.905273438 244 m 0xf8
 567.905273438 233 565.905273438 221 562.905273438 207 c 0
 552.905273438 163 532.905273438 122 501.905273438 85 c 0
 484.905273438 65 468.905273438 49 449.905273438 34 c 0
 430.905273438 19 408.905273438 7 382.905273438 -2 c 0
 356.905273438 -11 329.905273438 -16 301.905273438 -16 c 0
 272.905273438 -16 246.905273438 -12 225.905273438 -3 c 0
 204.905273438 6 187.905273438 16 176.905273438 29 c 0
 165.905273438 42 156.905273438 58 151.905273438 77 c 0
 146.905273438 96 143.905273438 113 143.905273438 132 c 0
 143.905273438 151 145.905273438 172 150.905273438 194 c 0
 155.905273438 215 165.905273438 237 181.905273438 262 c 0
 197.905273438 287 218.905273438 310 242.905273438 331 c 0
 264.905273438 353 288.905273438 368 310.905273438 376 c 2
 334.905273438 384 l 1
 312.905273438 398 l 2
 288.905273438 413 271.905273438 432 261.905273438 457 c 0
 254.905273438 473 250.905273438 489 250.905273438 505 c 0
 250.905273438 514 251.905273438 523 253.905273438 531 c 0
 255.905273438 539 258.905273438 547 261.905273438 556 c 0
 263.905273438 565 268.905273438 574 274.905273438 586 c 0
 280.905273438 598 285.905273438 609 292.905273438 620 c 0
 299.905273438 631 309.905273438 641 320.905273438 652 c 0
 331.905273438 663 342.905273438 672 355.905273438 680 c 0
 368.905273438 688 383.905273438 694 401.905273438 699 c 0
 419.905273438 704 437.905273438 706 457.905273438 706 c 0
 478.905273438 706 496.905273438 704 514.905273438 699 c 0
 532.905273438 694 546.905273438 688 556.905273438 681 c 0
 566.905273438 674 574.905273438 664 581.905273438 654 c 0
 588.905273438 644 594.905273438 634 596.905273438 624 c 0
 599.905273438 611 601.905273438 595 601.905273438 577 c 0xf4
 601.905273438 563 599.905273438 548 596.905273438 533 c 0
 595.905273438 526 592.905273438 519 589.905273438 512 c 0
 586.905273438 505 582.905273438 499 578.905273438 493 c 0
 574.905273438 487 568.905273438 481 562.905273438 475 c 0
 556.905273438 469 550.905273438 464 545.905273438 459 c 0
 537.905273438 452 521.905273438 441 498.905273438 426 c 2
 453.905273438 396 l 1
 471.905273438 386 l 2
 490.905273438 376 506.905273438 365 519.905273438 352 c 0
 532.905273438 339 542.905273438 327 549.905273438 315 c 0
 556.905273438 303 561.905273438 292 563.905273438 279 c 0
 565.905273438 266 567.905273438 255 567.905273438 244 c 0xf8
499.905273438 638 m 0
 482.905273438 651 464.905273438 658 443.905273438 658 c 2
 442.905273438 658 l 2
 413.905273438 658 387.905273438 646 361.905273438 622 c 0
 335.905273438 598 319.905273438 570 313.905273438 541 c 0
 311.905273438 534 310.905273438 527 310.905273438 521 c 0
 310.905273438 502 316.905273438 486 328.905273438 471 c 0
 343.905273438 453 369.905273438 435 406.905273438 417 c 2
 410.905273438 415 l 1
 414.905273438 416 l 1
 441.905273438 428 466.905273438 444 490.905273438 465 c 0
 517.905273438 486 532.905273438 506 536.905273438 526 c 0
 538.905273438 535 539.905273438 545 539.905273438 555 c 0
 539.905273438 565 537.905273438 576 534.905273438 587 c 0
 528.905273438 608 516.905273438 625 499.905273438 638 c 0
211.905273438 114 m 0
 222.905273438 92 237.905273438 74 258.905273438 63 c 0
 278.905273438 51 299.905273438 45 322.905273438 45 c 0
 339.905273438 45 356.905273438 49 374.905273438 55 c 0
 392.905273438 61 409.905273438 70 425.905273438 81 c 0
 441.905273438 92 455.905273438 107 468.905273438 126 c 0
 481.905273438 145 490.905273438 165 495.905273438 186 c 0
 498.905273438 199 500.905273438 212 500.905273438 223 c 0xf8
 500.905273438 233 498.905273438 244 495.905273438 257 c 0
 492.905273438 270 487.905273438 282 479.905273438 294 c 0
 472.905273438 306 461.905273438 318 447.905273438 330 c 0
 433.905273438 342 416.905273438 353 395.905273438 363 c 2
 392.905273438 365 l 1
 388.905273438 364 l 2
 344.905273438 351 305.905273438 328 272.905273438 295 c 0
 236.905273438 262 213.905273438 227 204.905273438 189 c 0
 202.905273438 179 201.905273438 169 201.905273438 159 c 0
 201.905273438 143 204.905273438 128 211.905273438 114 c 0
EndSplineSet
Validated: 524289
EndChar

StartChar: nine
Encoding: 57 57 35
Width: 630
GlyphClass: 2
Flags: HMW
HStem: 248 64<329.433 393.433> 667 60<437.433 482.933 448.433 482.933>
VStem: 209.433 68<412.5 427> 558.433 57<522.5 530.5>
LayerCount: 2
Fore
SplineSet
592.432617188 382 m 0
 579.432617188 330 562.432617188 283 541.432617188 241 c 0
 520.432617188 199 496.432617188 162 472.432617188 133 c 0
 449.432617188 104 423.432617188 79 395.432617188 58 c 0
 367.432617188 37 338.432617188 22 308.432617188 11 c 0
 276.432617188 0 242.432617188 -7 205.432617188 -10 c 0
 203.432617188 -10 201.432617188 -11 199.432617188 -11 c 0
 190.432617188 -11 183.432617188 -8 177.432617188 -5 c 0
 175.432617188 -4 172.432617188 -2 171.432617188 0 c 0
 170.432617188 2 170.432617188 6 170.432617188 10 c 0
 170.432617188 16 175.432617188 22 183.432617188 30 c 0
 191.432617188 38 201.432617188 44 210.432617188 46 c 0
 217.432617188 48 228.432617188 51 244.432617188 55 c 0
 260.432617188 59 276.432617188 62 289.432617188 65 c 0
 300.432617188 68 314.432617188 73 329.432617188 79 c 0
 362.432617188 92 392.432617188 114 421.432617188 145 c 0
 439.432617188 165 455.432617188 188 472.432617188 214 c 0
 489.432617188 241 503.432617188 265 512.432617188 286 c 2
 534.432617188 341 l 1
 492.432617188 300 l 2
 473.432617188 280 452.432617188 266 428.432617188 259 c 0
 404.432617188 252 375.432617188 248 340.432617188 248 c 0
 318.432617188 248 297.432617188 253 279.432617188 266 c 0
 259.432617188 279 244.432617188 295 233.432617188 316 c 0
 222.432617188 337 214.432617188 362 211.432617188 390 c 0
 210.432617188 399 209.432617188 408 209.432617188 417 c 0
 209.432617188 437 211.432617188 456 216.432617188 476 c 0
 225.432617188 512 237.432617188 546 256.432617188 577 c 0
 275.432617188 608 295.432617188 635 317.432617188 657 c 0
 338.432617188 679 361.432617188 696 387.432617188 708 c 0
 413.432617188 720 441.432617188 727 468.432617188 727 c 0
 497.432617188 727 522.432617188 721 543.432617188 710 c 0
 569.432617188 696 588.432617188 673 600.432617188 642 c 0
 610.432617188 615 615.432617188 583 615.432617188 546 c 0
 615.432617188 499 607.432617188 444 592.432617188 382 c 0
549.432617188 581 m 0
 544.432617188 597 538.432617188 611 529.432617188 624 c 0
 520.432617188 637 508.432617188 647 493.432617188 655 c 0
 480.432617188 663 465.432617188 667 449.432617188 667 c 2
 448.432617188 667 l 2
 426.432617188 667 402.432617188 659 379.432617188 642 c 0
 356.432617188 625 337.432617188 603 320.432617188 577 c 0
 303.432617188 551 291.432617188 523 285.432617188 494 c 0
 279.432617188 468 277.432617188 445 277.432617188 425 c 0
 277.432617188 400 282.432617188 378 291.432617188 361 c 0
 308.432617188 328 338.432617188 312 380.432617188 312 c 0
 406.432617188 312 433.432617188 319 460.432617188 333 c 0
 488.432617188 347 512.432617188 366 534.432617188 391 c 1
 537.432617188 393 l 1
 542.432617188 415 547.432617188 445 554.432617188 485 c 0
 556.432617188 496 558.432617188 508 558.432617188 520 c 0
 558.432617188 541 555.432617188 561 549.432617188 581 c 0
EndSplineSet
Validated: 524289
EndChar

StartChar: colon
Encoding: 58 58 36
Width: 630
GlyphClass: 2
Flags: HMW
HStem: 52 131<312.271 356.771 316.771 356.771> 319 131<381.771 417.771 381.771 417.771>
VStem: 282.771 108<80 151.5 84 151.5> 343.771 109<343 424 351 424>
LayerCount: 2
Fore
SplineSet
343.771484375 351 m 2xd0
 345.771484375 369 351.771484375 392 358.771484375 419 c 0
 359.771484375 426 362.771484375 432 366.771484375 436 c 0
 370.771484375 440 376.771484375 443 382.771484375 445 c 0
 392.771484375 448 401.771484375 450 410.771484375 450 c 2
 417.771484375 450 l 2
 427.771484375 450 436.771484375 448 444.771484375 443 c 0
 449.771484375 440 452.771484375 433 452.771484375 424 c 2
 452.771484375 419 l 1
 448.771484375 398 440.771484375 376 429.771484375 352 c 0
 424.771484375 341 417.771484375 332 407.771484375 327 c 0
 397.771484375 322 390.771484375 319 383.771484375 319 c 2
 381.771484375 319 l 2
 369.771484375 320 360.771484375 323 353.771484375 327 c 0
 349.771484375 329 346.771484375 331 345.771484375 334 c 0
 344.771484375 337 343.771484375 340 343.771484375 343 c 2
 343.771484375 351 l 2xd0
282.771484375 80 m 2xe0
 282.771484375 84 l 1
 287.771484375 110 l 2
 287.771484375 112 290.771484375 117 291.771484375 122 c 0
 292.771484375 127 295.771484375 137 300.771484375 152 c 0
 301.771484375 158 304.771484375 163 308.771484375 167 c 0
 312.771484375 171 317.771484375 175 322.771484375 177 c 0
 333.771484375 181 342.771484375 183 350.771484375 183 c 2
 356.771484375 183 l 2
 362.771484375 183 368.771484375 182 373.771484375 180 c 0
 378.771484375 178 381.771484375 175 385.771484375 170 c 0
 389.771484375 165 391.771484375 160 391.771484375 153 c 2
 391.771484375 153 390.771484375 152 390.771484375 151 c 0
 389.771484375 129 382.771484375 106 371.771484375 83 c 0
 366.771484375 73 358.771484375 65 347.771484375 60 c 0
 336.771484375 55 327.771484375 52 319.771484375 52 c 2
 316.771484375 52 l 2
 307.771484375 52 298.771484375 56 290.771484375 62 c 0
 285.771484375 67 282.771484375 73 282.771484375 80 c 2xe0
EndSplineSet
Validated: 524289
EndChar

StartChar: semicolon
Encoding: 59 59 37
Width: 630
GlyphClass: 2
Flags: HMW
HStem: 277 131<403.863 437.863 403.863 437.863>
VStem: 364.863 109<306 382 310 382>
LayerCount: 2
Fore
SplineSet
437.86328125 408 m 2
 446.86328125 408 456.86328125 406 465.86328125 401 c 0
 467.86328125 400 470.86328125 398 471.86328125 394 c 0
 472.86328125 390 473.86328125 386 473.86328125 382 c 2
 473.86328125 377 l 1
 469.86328125 356 461.86328125 334 450.86328125 310 c 0
 445.86328125 299 437.86328125 290 428.86328125 285 c 0
 419.86328125 280 411.86328125 277 404.86328125 277 c 2
 403.86328125 277 l 2
 387.86328125 279 375.86328125 285 368.86328125 294 c 0
 366.86328125 297 364.86328125 301 364.86328125 306 c 2
 364.86328125 310 l 2
 366.86328125 328 371.86328125 351 378.86328125 378 c 0
 380.86328125 384 384.86328125 390 388.86328125 394 c 0
 392.86328125 398 398.86328125 401 404.86328125 403 c 0
 410.86328125 405 415.86328125 407 420.86328125 407 c 0
 425.86328125 407 430.86328125 408 432.86328125 408 c 2
 437.86328125 408 l 2
385.86328125 77 m 0
 379.86328125 56 339.86328125 -30 265.86328125 -182 c 0
 260.86328125 -193 253.86328125 -201 245.86328125 -206 c 0
 237.86328125 -211 230.86328125 -213 223.86328125 -213 c 2
 221.86328125 -213 l 2
 212.86328125 -213 204.86328125 -210 198.86328125 -204 c 0
 196.86328125 -202 194.86328125 -198 194.86328125 -194 c 0
 194.86328125 -190 195.86328125 -187 196.86328125 -183 c 0
 201.86328125 -168 216.86328125 -129 242.86328125 -67 c 0
 268.86328125 -5 288.86328125 41 303.86328125 74 c 0
 307.86328125 83 310.86328125 90 314.86328125 95 c 0
 318.86328125 100 323.86328125 103 325.86328125 104 c 0
 332.86328125 106 338.86328125 107 343.86328125 107 c 0
 344.86328125 107 347.86328125 106 349.86328125 106 c 0
 360.86328125 106 370.86328125 104 379.86328125 99 c 0
 384.86328125 97 387.86328125 92 387.86328125 87 c 0
 387.86328125 85 386.86328125 81 385.86328125 77 c 0
EndSplineSet
Validated: 524289
EndChar

StartChar: less
Encoding: 60 60 38
Width: 630
GlyphClass: 2
Flags: HMW
HStem: 680 20G<645.046 651.046>
LayerCount: 2
Fore
SplineSet
674.045898438 669 m 0
 674.045898438 663 671.045898438 657 666.045898438 650 c 0
 657.045898438 639 640.045898438 626 617.045898438 611 c 0
 577.045898438 585 514.045898438 543 430.045898438 483 c 0
 346.045898438 423 287.045898438 383 256.045898438 362 c 1
 266.045898438 352 l 2
 286.045898438 332 307.045898438 307 330.045898438 279 c 0
 353.045898438 251 373.045898438 226 390.045898438 203 c 0
 407.045898438 180 425.045898438 155 446.045898438 131 c 0
 467.045898438 107 486.045898438 88 503.045898438 74 c 0
 523.045898438 58 532.045898438 45 532.045898438 35 c 0
 532.045898438 32 530.045898438 27 527.045898438 20 c 0
 524.045898438 15 520.045898438 10 514.045898438 7 c 0
 508.045898438 4 500.045898438 1 491.045898438 0 c 2
 485.045898438 0 l 2
 478.045898438 0 470.045898438 2 461.045898438 5 c 0
 448.045898438 10 433.045898438 21 415.045898438 38 c 0
 397.045898438 55 378.045898438 77 357.045898438 102 c 0
 336.045898438 127 317.045898438 152 297.045898438 178 c 0
 277.045898438 204 255.045898438 230 232.045898438 258 c 0
 209.045898438 286 190.045898438 308 173.045898438 324 c 0
 170.045898438 327 168.045898438 333 168.045898438 341 c 0
 168.045898438 351 170.045898438 361 175.045898438 370 c 0
 180.045898438 379 185.045898438 385 192.045898438 389 c 0
 234.045898438 418 284.045898438 454 341.045898438 496 c 0
 398.045898438 538 451.045898438 576 498.045898438 610 c 0
 545.045898438 644 586.045898438 671 621.045898438 691 c 0
 632.045898438 697 641.045898438 700 649.045898438 700 c 0
 653.045898438 700 657.045898438 700 659.045898438 698 c 0
 667.045898438 692 672.045898438 684 673.045898438 675 c 0
 673.045898438 673 674.045898438 671 674.045898438 669 c 0
EndSplineSet
Validated: 524289
EndChar

StartChar: equal
Encoding: 61 61 39
Width: 630
GlyphClass: 2
Flags: HMW
HStem: 259 50 259 58 455 61<286.581 291.581>
LayerCount: 2
Fore
SplineSet
292.081054688 516 m 2x20
 294.081054688 516.000976562 l 2
 330.399414062 514.829101562 370.149414062 514.34375 413.331054688 514.34375 c 0
 443.865234375 514.34375 476.115234375 514.5859375 510.081054688 515 c 0
 542.081054688 515 560.081054688 516 567.081054688 516 c 0
 577.081054688 516 584.081054688 515 585.081054688 513 c 0
 586.081054688 511 587.081054688 507 587.081054688 502 c 0
 587.081054688 495 585.081054688 487 582.081054688 479 c 0
 578.081054688 470 573.081054688 463 566.081054688 461 c 0
 563.081054688 460 560.081054688 459 558.081054688 459 c 2
 551.081054688 459 l 2
 537.081054688 459 524.081054688 460 512.081054688 460 c 2
 478.081054688 460 l 1
 375.081054688 457 l 2
 333.081054688 456 302.081054688 455 281.081054688 455 c 0
 270.081054688 455 261.081054688 458 256.081054688 463 c 0
 253.081054688 466 251.081054688 470 251.081054688 475 c 0
 251.081054688 477 252.081054688 480 252.081054688 482 c 0
 254.081054688 492 260.081054688 500 267.081054688 507 c 0
 274.081054688 513 281.081054688 516 292.081054688 516 c 2x20
252.081054688 317.000976562 m 2x60
 272.081054688 317.000976562 295.081054688 316.000976562 323.081054688 316.000976562 c 0
 351.081054688 316.000976562 384.081054688 318.000976562 424.081054688 318.000976562 c 2
 522.081054688 320.000976562 l 2
 533.081054688 320.000976562 539.081054688 318.000976562 540.081054688 316.000976562 c 0
 542.081054688 313.000976562 542.081054688 307.000976562 541.081054688 298.000976562 c 0
 539.081054688 288.000976562 536.081054688 280.000976562 531.081054688 273.000976562 c 0
 529.081054688 269.000976562 525.081054688 266.000976562 521.081054688 265.000976562 c 0
 517.081054688 264.000976562 514.081054688 264.000976562 512.081054688 264.000976562 c 2
 505.081054688 264.000976562 l 2
 490.081054688 264.000976562 473.081054688 265.000976562 453.081054688 265.000976562 c 0
 433.081054688 265.000976562 392.081054688 263.000976562 328.081054688 261.000976562 c 0
 284.081054688 260.000976562 251.081054688 259.000976562 231.081054688 259.000976562 c 0
 220.081054688 259.000976562 212.081054688 261.000976562 209.081054688 266.000976562 c 0
 207.081054688 269.000976562 206.081054688 273.000976562 206.081054688 278.000976562 c 0
 206.081054688 281.000976562 207.081054688 285.000976562 207.081054688 288.000976562 c 0
 208.081054688 296.000976562 213.081054688 303.000976562 221.081054688 309.000976562 c 0xa0
 229.081054688 315.000976562 238.081054688 317.000976562 250.081054688 317.000976562 c 2
 252.081054688 317.000976562 l 2x60
EndSplineSet
Validated: 524289
EndChar

StartChar: greater
Encoding: 62 62 40
Width: 630
GlyphClass: 2
Flags: HMW
HStem: 687 20G<286.654 292.654 292.654 296.154>
LayerCount: 2
Fore
SplineSet
292.654296875 707 m 2
 299.654296875 707 307.654296875 705 316.654296875 702 c 0
 329.654296875 697 344.654296875 686 363.654296875 669 c 0
 382.654296875 652 400.654296875 631 420.654296875 606 c 0
 440.654296875 581 460.654296875 555 480.654296875 529 c 0
 500.654296875 503 522.654296875 477 544.654296875 449 c 0
 566.654296875 421 587.654296875 399 604.654296875 383 c 0
 607.654296875 380 609.654296875 374 609.654296875 366 c 0
 609.654296875 356 607.654296875 346 602.654296875 337 c 0
 597.654296875 328 592.654296875 322 585.654296875 318 c 0
 543.654296875 290 493.654296875 254 436.654296875 212 c 0
 379.654296875 170 327.654296875 131 280.654296875 97 c 0
 233.654296875 63 191.654296875 36 156.654296875 16 c 0
 145.654296875 10 136.654296875 7 128.654296875 7 c 0
 123.654296875 7 120.654296875 7 118.654296875 9 c 0
 114.654296875 12 110.654296875 16 108.654296875 20 c 0
 106.654296875 24 104.654296875 26 104.654296875 30 c 0
 104.654296875 34 103.654296875 37 103.654296875 38 c 0
 103.654296875 44 106.654296875 50 111.654296875 57 c 0
 120.654296875 68 136.654296875 81 160.654296875 96 c 0
 201.654296875 122 264.654296875 164 348.654296875 224 c 0
 432.654296875 284 491.654296875 324 522.654296875 345 c 1
 511.654296875 355 l 2
 491.654296875 375 471.654296875 400 448.654296875 428 c 0
 425.654296875 456 405.654296875 481 388.654296875 504 c 0
 371.654296875 527 352.654296875 552 331.654296875 576 c 0
 310.654296875 600 292.654296875 619 274.654296875 633 c 0
 254.654296875 649 245.654296875 662 245.654296875 672 c 0
 245.654296875 677 247.654296875 682 250.654296875 687 c 0
 253.654296875 692 258.654296875 697 264.654296875 700 c 0
 270.654296875 703 277.654296875 706 286.654296875 707 c 2
 292.654296875 707 l 2
EndSplineSet
Validated: 524289
EndChar

StartChar: question
Encoding: 63 63 41
Width: 630
GlyphClass: 2
Flags: HMW
HStem: -2 130<264.602 328.602 272.102 328.602> 650 60<448.102 461.102>
VStem: 231.102 132<37.5 90.5> 544.102 69<578.5 582>
LayerCount: 2
Fore
SplineSet
613.102539062 588 m 0
 613.102539062 569 610.102539062 548 605.102539062 525 c 0
 601.102539062 508 594.102539062 493 586.102539062 479 c 0
 578.102539062 465 569.102539062 453 559.102539062 443 c 0
 549.102539062 433 537.102539062 424 524.102539062 415 c 0
 511.102539062 406 498.102539062 396 484.102539062 387 c 0
 470.102539062 378 458.102539062 368 445.102539062 357 c 0
 432.102539062 346 421.102539062 333 409.102539062 318 c 0
 397.102539062 303 388.102539062 286 381.102539062 267 c 0
 375.102539062 252 367.102539062 240 358.102539062 232 c 0
 353.102539062 227 347.102539062 225 340.102539062 225 c 0
 338.102539062 225 334.102539062 227 329.102539062 227 c 0
 324.102539062 228 319.102539062 231 316.102539062 233 c 0
 311.102539062 237 309.102539062 242 309.102539062 249 c 0
 309.102539062 259 313.102539062 272 320.102539062 287 c 0
 328.102539062 304 338.102539062 320 350.102539062 335 c 0
 362.102539062 350 372.102539062 364 384.102539062 375 c 0
 396.102539062 386 409.102539062 397 422.102539062 407 c 0
 435.102539062 417 448.102539062 427 460.102539062 436 c 0
 472.102539062 445 484.102539062 454 495.102539062 464 c 0
 506.102539062 474 515.102539062 485 523.102539062 497 c 0
 531.102539062 509 537.102539062 522 540.102539062 535 c 0
 543.102539062 548 544.102539062 560 544.102539062 571 c 0
 544.102539062 593 538.102539062 610 526.102539062 623 c 0
 508.102539062 641 480.102539062 650 442.102539062 650 c 0
 432.102539062 650 422.102539062 648 411.102539062 643 c 0
 400.102539062 638 390.102539062 633 382.102539062 627 c 0
 374.102539062 621 365.102539062 613 355.102539062 604 c 0
 345.102539062 595 337.102539062 587 332.102539062 581 c 0
 327.102539062 575 320.102539062 567 312.102539062 558 c 0
 299.102539062 543 289.102539062 534 282.102539062 534 c 0
 281.102539062 534 278.102539062 533 277.102539062 533 c 0
 276.102539062 533 273.102539062 534 271.102539062 535 c 0
 269.102539062 536 264.102539062 538 259.102539062 540 c 0
 254.102539062 543 251.102539062 548 251.102539062 555 c 0
 251.102539062 564 256.102539062 576 267.102539062 592 c 0
 287.102539062 619 313.102539062 645 344.102539062 669 c 0
 360.102539062 681 378.102539062 691 398.102539062 699 c 0
 418.102539062 707 438.102539062 710 458.102539062 710 c 0
 521.102539062 710 565.102539062 695 590.102539062 664 c 0
 605.102539062 645 613.102539062 620 613.102539062 588 c 0
363.102539062 85 m 0
 363.102539062 80 362.102539062 74 361.102539062 68 c 0
 357.102539062 49 348.102539062 34 333.102539062 21 c 0
 318.102539062 8 300.102539062 0 280.102539062 -2 c 2
 272.102539062 -2 l 2
 257.102539062 -2 247.102539062 3 240.102539062 13 c 0
 234.102539062 22 231.102539062 32 231.102539062 43 c 0
 231.102539062 48 232.102539062 54 233.102539062 61 c 0
 238.102539062 79 248.102539062 94 265.102539062 107 c 0
 283.102539062 121 301.102539062 128 321.102539062 128 c 0
 336.102539062 128 348.102539062 123 355.102539062 113 c 0
 360.102539062 105 363.102539062 96 363.102539062 85 c 0
EndSplineSet
Validated: 524289
EndChar

StartChar: at
Encoding: 64 64 42
Width: 630
GlyphClass: 2
Flags: HMW
HStem: -117 61<257.823 305.323 272.823 305.323> 114 53<471.323 502.323> 130 56<336.323 344.323> 394 52<404.823 434.323 404.823 434.323> 625 65<457.323 493.823 470.823 486.823>
VStem: 118.822 60<100 118.5> 249.823 53<198 229> 434.823 33 585.823 51<460 533.5>
LayerCount: 2
Fore
SplineSet
508.823242188 49 m 2xdf80
 508.823242188 47 506.823242188 42 504.823242188 36 c 0
 502.823242188 30 498.823242188 22 492.823242188 12 c 0
 487.823242188 3 482.823242188 -6 477.823242188 -13 c 0
 472.823242188 -20 466.823242188 -28 458.823242188 -38 c 0
 450.823242188 -48 442.823242188 -55 434.823242188 -62 c 0
 426.823242188 -69 417.823242188 -77 405.823242188 -84 c 0
 393.823242188 -91 381.823242188 -97 369.823242188 -102 c 0
 357.823242188 -107 342.823242188 -111 326.823242188 -113 c 0
 310.823242188 -115 294.823242188 -117 277.823242188 -117 c 2
 272.823242188 -117 l 2
 242.823242188 -117 215.823242188 -109 193.823242188 -93 c 0
 171.823242188 -77 153.823242188 -55 140.823242188 -26 c 0
 125.823242188 8 118.823242188 50 118.823242188 99 c 0
 118.823242188 138 122.823242188 180 133.823242188 225 c 0
 147.823242188 283 164.823242188 338 184.823242188 388 c 0
 204.823242188 438 225.823242188 481 248.823242188 518 c 0
 271.823242188 555 298.823242188 586 324.823242188 612 c 0
 350.823242188 638 377.823242188 658 404.823242188 671 c 0
 431.823242188 684 457.823242188 690 483.823242188 690 c 0
 503.823242188 690 521.823242188 689 536.823242188 686 c 0
 551.823242188 683 566.823242188 677 578.823242188 669 c 0
 590.823242188 661 600.823242188 652 608.823242188 640 c 0
 616.823242188 628 623.823242188 611 628.823242188 591 c 0
 633.823242188 571 636.823242188 547 636.823242188 520 c 0
 636.823242188 463 625.823242188 388 604.823242188 295 c 0
 593.823242188 248 577.823242188 206 556.823242188 171 c 0
 545.823242188 153 533.823242188 139 520.823242188 129 c 0
 507.823242188 119 493.823242188 114 479.823242188 114 c 0
 462.823242188 114 450.823242188 119 443.823242188 128 c 0
 437.823242188 136 434.823242188 148 434.823242188 163 c 0
 434.823242188 169 434.823242188 176 435.823242188 184 c 2
 444.823242188 251 l 1
 412.823242188 192 l 2
 390.823242188 150 361.823242188 130 326.823242188 130 c 0xbf80
 294.823242188 130 272.823242188 140 260.823242188 161 c 0
 253.823242188 173 249.823242188 188 249.823242188 208 c 0
 249.823242188 225 252.823242188 245 257.823242188 268 c 0
 262.823242188 291 270.823242188 312 280.823242188 333 c 0
 290.823242188 354 300.823242188 370 312.823242188 384 c 0
 324.823242188 398 337.823242188 410 350.823242188 420 c 0
 363.823242188 430 377.823242188 436 390.823242188 440 c 0
 403.823242188 444 415.823242188 446 426.823242188 446 c 0
 441.823242188 446 456.823242188 443 470.823242188 436 c 0
 481.823242188 431 489.823242188 425 494.823242188 417 c 0
 495.823242188 414 496.823242188 411 496.823242188 409 c 0
 496.823242188 407 495.823242188 405 494.823242188 403 c 0
 488.823242188 394 482.823242188 389 476.823242188 387 c 0
 471.823242188 386 466.823242188 385 463.823242188 385 c 0
 458.823242188 385 447.823242188 387 431.823242188 392 c 0
 424.823242188 393 418.823242188 394 414.823242188 394 c 2
 404.823242188 394 l 2
 394.823242188 393 384.823242188 389 374.823242188 383 c 0
 364.823242188 377 355.823242188 371 347.823242188 362 c 0
 339.823242188 353 331.823242188 343 324.823242188 329 c 0
 317.823242188 315 312.823242188 300 308.823242188 283 c 0
 304.823242188 266 302.823242188 252 302.823242188 241 c 2
 302.823242188 229 l 2
 302.823242188 217 306.823242188 207 312.823242188 199 c 0
 319.823242188 190 329.823242188 186 342.823242188 186 c 0
 365.823242188 186 384.823242188 195 399.823242188 215 c 0
 412.823242188 233 424.823242188 261 434.823242188 301 c 0
 435.823242188 307 443.823242188 313 456.823242188 318 c 0
 466.823242188 322 474.823242188 324 481.823242188 324 c 0
 485.823242188 324 489.823242188 323 491.823242188 322 c 2
 492.823242188 321 l 1
 492.823242188 321 491.823242188 319 491.823242188 317 c 0
 479.823242188 281 471.823242188 253 469.823242188 232 c 0
 468.823242188 222 467.823242188 213 467.823242188 205 c 0
 467.823242188 197 468.823242188 191 470.823242188 186 c 0
 472.823242188 179 477.823242188 174 482.823242188 171 c 0
 487.823242188 169 492.823242188 167 497.823242188 167 c 0xdf80
 506.823242188 167 515.823242188 173 523.823242188 186 c 0xbf80
 529.823242188 196 535.823242188 208 540.823242188 223 c 0
 549.823242188 248 556.823242188 272 561.823242188 293 c 0
 568.823242188 327 575.823242188 360 579.823242188 391 c 0
 583.823242188 422 585.823242188 449 585.823242188 471 c 0
 585.823242188 489 583.823242188 506 580.823242188 522 c 0
 577.823242188 538 574.823242188 552 570.823242188 563 c 0
 566.823242188 574 560.823242188 584 552.823242188 592 c 0
 544.823242188 600 537.823242188 607 530.823242188 611 c 0
 523.823242188 615 516.823242188 619 507.823242188 621 c 0
 498.823242188 623 491.823242188 625 486.823242188 625 c 2
 470.823242188 625 l 2
 443.823242188 625 416.823242188 617 389.823242188 599 c 0
 362.823242188 581 336.823242188 557 312.823242188 526 c 0
 288.823242188 495 266.823242188 457 246.823242188 413 c 0
 226.823242188 369 210.823242188 320 198.823242188 267 c 0
 185.823242188 208 178.823242188 156 178.823242188 112 c 0
 178.823242188 88 180.823242188 68 184.823242188 51 c 0
 190.823242188 27 199.823242188 6 210.823242188 -11 c 0
 221.823242188 -28 234.823242188 -39 248.823242188 -46 c 0
 262.823242188 -53 279.823242188 -56 296.823242188 -56 c 0
 313.823242188 -56 330.823242188 -54 345.823242188 -51 c 0
 360.823242188 -48 372.823242188 -43 383.823242188 -38 c 0
 394.823242188 -33 404.823242188 -26 415.823242188 -18 c 0
 426.823242188 -10 434.823242188 -1 440.823242188 6 c 0
 446.823242188 13 454.823242188 22 462.823242188 32 c 0
 467.823242188 39 471.823242188 44 475.823242188 48 c 0
 480.823242188 54 484.823242188 58 486.823242188 59 c 0
 488.823242188 59 490.823242188 61 492.823242188 62 c 0
 494.823242188 63 497.823242188 63 499.823242188 62 c 0
 501.823242188 61 504.823242188 59 505.823242188 58 c 0
 506.823242188 57 508.823242188 53 508.823242188 51 c 2
 508.823242188 49 l 2xdf80
492.823242188 321 m 1024
EndSplineSet
Validated: 524289
EndChar

StartChar: A
Encoding: 65 65 43
Width: 630
GlyphClass: 2
Flags: HMW
HStem: 276 43<475.267 475.267 475.267 485.267>
VStem: 480.267 72<66 126> 485.267 57 499.267 62
LayerCount: 2
Fore
SplineSet
472.266601562 276 m 1xa0
 397.266601562 273 327.266601562 265 265.266601562 253 c 1
 232.266601562 196 198.266601562 131 163.266601562 58 c 0
 154.266601562 40 145.266601562 28 134.266601562 23 c 0
 129.266601562 21 123.266601562 19 119.266601562 19 c 0
 115.266601562 19 112.266601562 20 109.266601562 21 c 0
 106.266601562 22 103.266601562 25 102.266601562 28 c 0
 101.266601562 31 100.266601562 35 100.266601562 39 c 0
 100.266601562 49 105.266601562 63 113.266601562 81 c 0
 122.266601562 102 152.266601562 157 206.266601562 245 c 1
 204.266601562 256 201.266601562 258 199.266601562 252 c 1
 194.266601562 255 192.266601562 259 192.266601562 263 c 0
 192.266601562 264 193.266601562 266 193.266601562 268 c 0
 194.266601562 275 198.266601562 282 207.266601562 289 c 0
 216.266601562 296 227.266601562 301 238.266601562 305 c 1
 239.266601562 314 241.266601562 315 242.266601562 307 c 1
 351.266601562 499 432.266601562 627 485.266601562 691 c 0
 496.266601562 704 506.266601562 712 513.266601562 717 c 0
 520.266601562 722 527.266601562 725 533.266601562 725 c 2
 534.266601562 725 l 1
 538.266601562 725 l 2
 545.266601562 725 550.266601562 723 555.266601562 720 c 0
 559.266601562 718 561.266601562 712 561.266601562 705 c 2x90
 561.266601562 700 l 1
 554.266601562 617 550.266601562 500 546.266601562 348 c 0
 544.266601562 289 542.266601562 241 542.266601562 201 c 0xa0
 542.266601562 137 545.266601562 98 549.266601562 84 c 0
 551.266601562 78 552.266601562 72 552.266601562 68 c 0xc0
 552.266601562 64 551.266601562 60 550.266601562 56 c 0
 547.266601562 47 541.266601562 41 536.266601562 35 c 0
 531.266601562 29 525.266601562 24 518.266601562 22 c 0
 513.266601562 20 510.266601562 19 507.266601562 19 c 0
 503.266601562 19 498.266601562 20 495.266601562 22 c 0
 488.266601562 26 483.266601562 37 481.266601562 54 c 0
 481.266601562 62 480.266601562 81 480.266601562 111 c 0
 480.266601562 141 483.266601562 197 485.266601562 276 c 1
 481.266601562 285 477.266601562 285 472.266601562 276 c 1xa0
476.266601562 610 m 2
 439.266601562 565 383.266601562 470 308.266601562 324 c 1
 298.266601562 303 l 1
 320.266601562 306 l 2
 378.266601562 313 429.266601562 318 475.266601562 319 c 2
 487.266601562 320 l 1
 499.266601562 637 l 1
 476.266601562 610 l 2
EndSplineSet
Validated: 524289
EndChar

StartChar: B
Encoding: 66 66 44
Width: 630
GlyphClass: 2
Flags: HMW
HStem: 310 47<329.212 333.212 333.212 334.212> 642 43<405.212 422.212 422.212 425.212>
VStem: 489.212 72<211 215.5 211 215.5> 531.212 62<533.5 538.5>
LayerCount: 2
Fore
SplineSet
559.211914062 201 m 2xd0
 554.211914062 177 543.211914062 153 526.211914062 130 c 0
 509.211914062 107 487.211914062 85 462.211914062 65 c 0
 438.211914062 45 408.211914062 28 374.211914062 14 c 0
 340.211914062 0 304.211914062 -10 265.211914062 -14 c 1
 259.024414062 -19.0625 252.836914062 -21.59375 246.649414062 -21.59375 c 2
 232.211914062 -17 l 1
 226.024414062 -22.0625 220.153320312 -24.59375 214.243164062 -24.59375 c 0
 209.645507812 -24.59375 205.024414062 -23.0625 200.211914062 -20 c 0
 180.211914062 -22 166.211914062 -23 156.211914062 -23 c 0
 150.211914062 -23 144.211914062 -22 138.211914062 -21 c 2
 136.211914062 -21 l 1
 133.211914062 -21 l 2
 125.211914062 -21 119.211914062 -18 116.211914062 -13 c 0
 114.211914062 -11 113.211914062 -7 113.211914062 -2 c 0
 113.211914062 3 114.211914062 8 116.211914062 14 c 0
 125.211914062 42 138.211914062 95 155.211914062 174 c 0
 172.211914062 253 189.211914062 335 205.211914062 419 c 0
 214.211914062 463 221.211914062 493 224.211914062 508 c 0
 227.211914062 523 232.211914062 544 239.211914062 570 c 0
 244.211914062 579 248.211914062 597 253.211914062 623 c 0
 256.211914062 639 262.211914062 651 270.211914062 658 c 0
 278.211914062 665 286.211914062 669 295.211914062 669 c 2
 299.211914062 669 l 1
 300.211914062 669 l 2
 311.211914062 672 321.211914062 675 331.211914062 677 c 0
 350.211914062 681 367.211914062 684 384.211914062 684 c 0
 393.211914062 684 400.211914062 685 405.211914062 685 c 2
 422.211914062 685 l 1
 432.211914062 685 l 2
 469.211914062 685 501.211914062 678 528.211914062 662 c 0
 555.211914062 646 573.211914062 624 584.211914062 595 c 0
 590.211914062 578 593.211914062 561 593.211914062 541 c 0
 593.211914062 526 591.211914062 509 587.211914062 492 c 0
 579.211914062 455 564.211914062 423 542.211914062 397 c 0
 520.211914062 371 494.211914062 352 465.211914062 340 c 1
 456.211914062 329 448.211914062 325 439.211914062 329 c 1
 445.671875 320.38671875 451.6171875 315.89453125 457.786132812 315.89453125 c 0
 460.211914062 315.89453125 462.671875 316.588867188 465.211914062 318 c 0
 482.211914062 311 499.211914062 300 515.211914062 287 c 0
 531.211914062 274 543.211914062 259 552.211914062 242 c 0
 558.211914062 231 561.211914062 220 561.211914062 211 c 2xe0
 559.211914062 201 l 2xd0
319.211914062 629 m 2
 313.211914062 627 l 1
 295.211914062 553 283.211914062 501 276.211914062 470 c 0
 269.211914062 439 262.211914062 402 253.211914062 360 c 1
 288.211914062 358 317.211914062 357 341.211914062 357 c 0
 359.211914062 357 376.211914062 359 391.211914062 362 c 0
 406.211914062 365 420.211914062 369 431.211914062 375 c 0
 442.211914062 381 453.211914062 388 463.211914062 397 c 0
 473.211914062 406 482.211914062 414 489.211914062 423 c 0
 496.211914062 432 502.211914062 441 507.211914062 451 c 0
 512.211914062 461 516.211914062 471 519.211914062 479 c 0
 522.211914062 487 526.211914062 496 528.211914062 506 c 0
 530.211914062 516 531.211914062 525 531.211914062 534 c 0xd0
 531.211914062 543 530.211914062 550 529.211914062 557 c 0
 526.211914062 574 520.211914062 587 511.211914062 598 c 0
 502.211914062 609 492.211914062 617 479.211914062 624 c 0
 459.211914062 636 437.211914062 642 413.211914062 642 c 0
 382.211914062 642 350.211914062 638 319.211914062 629 c 2
457.211914062 261 m 0
 446.211914062 271 430.211914062 280 409.211914062 289 c 0
 388.211914062 298 363.211914062 305 334.211914062 310 c 1
 333.211914062 310 l 2
 291.211914062 310 262.211914062 308 243.211914062 308 c 1
 221.211914062 194 204.211914062 109 193.211914062 54 c 1
 210.211914062 55 226.211914062 56 241.211914062 56 c 0
 256.211914062 56 267.211914062 57 274.211914062 57 c 0
 301.211914062 58 327.211914062 64 353.211914062 74 c 0
 379.211914062 84 401.211914062 94 419.211914062 108 c 0
 437.211914062 122 452.211914062 137 464.211914062 152 c 0
 477.211914062 167 485.211914062 182 488.211914062 196 c 0
 488.211914062 199 489.211914062 203 489.211914062 206 c 0xe0
 489.211914062 225 478.211914062 243 457.211914062 261 c 0
EndSplineSet
Validated: 524289
EndChar

StartChar: C
Encoding: 67 67 45
Width: 630
GlyphClass: 2
Flags: HMW
HStem: -31 67<266.505 316.505 277.505 316.505> 654 59<529.505 534.005> 701 21G
VStem: 131.505 77<126.5 190.5>
LayerCount: 2
Fore
SplineSet
284.504882812 -31 m 2xd0
 277.504882812 -31 l 2
 255.504882812 -31 235.504882812 -27 216.504882812 -18 c 0
 197.504882812 -9 182.504882812 2 170.504882812 17 c 0
 158.504882812 32 149.504882812 49 142.504882812 70 c 0
 135.504882812 91 131.504882812 114 131.504882812 139 c 0
 131.504882812 159 133.504882812 179 138.504882812 200 c 0
 149.504882812 249 164.504882812 297 184.504882812 343 c 0
 204.504882812 389 225.504882812 432 249.504882812 469 c 0
 271.504882812 506 295.504882812 540 321.504882812 571 c 0
 347.504882812 602 373.504882812 627 398.504882812 648 c 0
 423.504882812 669 449.504882812 685 473.504882812 696 c 0
 497.504882812 707 519.504882812 713 539.504882812 713 c 0
 560.504882812 713 578.504882812 710 595.504882812 705 c 1
 598.504882812 711 602.504882812 710 605.504882812 701 c 1xb0
 607.504882812 712 609.504882812 716 610.504882812 711 c 1
 614.504882812 720 619.504882812 727 626.504882812 732 c 0
 633.504882812 737 639.504882812 740 646.504882812 740 c 2
 651.504882812 741 l 2
 656.504882812 741 661.504882812 739 666.504882812 735 c 0
 672.504882812 730 675.504882812 723 675.504882812 713 c 0
 675.504882812 697 673.504882812 678 669.504882812 656 c 0
 668.504882812 647 666.504882812 635 662.504882812 621 c 0
 658.504882812 607 655.504882812 598 655.504882812 596 c 0
 653.504882812 583 645.504882812 570 634.504882812 557 c 0
 623.504882812 544 614.504882812 537 607.504882812 537 c 2
 602.504882812 537 l 2
 595.504882812 537 589.504882812 539 584.504882812 544 c 0
 580.504882812 547 578.504882812 552 578.504882812 558 c 0
 578.504882812 559 579.504882812 562 579.504882812 565 c 0
 580.504882812 571 585.504882812 588 592.504882812 616 c 0
 591.504882812 623 589.504882812 625 587.504882812 621 c 1
 584.504882812 623 578.504882812 629 569.504882812 637 c 0
 567.504882812 639 563.504882812 642 558.504882812 645 c 0
 549.504882812 651 539.504882812 654 528.504882812 654 c 0
 508.504882812 654 485.504882812 647 461.504882812 632 c 0
 437.504882812 617 413.504882812 596 389.504882812 570 c 0
 365.504882812 544 340.504882812 514 318.504882812 481 c 0
 296.504882812 448 275.504882812 409 257.504882812 367 c 0
 237.504882812 325 223.504882812 281 214.504882812 239 c 0
 210.504882812 219 208.504882812 200 208.504882812 181 c 0
 208.504882812 169 209.504882812 157 211.504882812 145 c 0
 215.504882812 114 225.504882812 88 243.504882812 68 c 0
 260.504882812 47 281.504882812 36 306.504882812 36 c 0
 326.504882812 36 344.504882812 38 364.504882812 43 c 0
 384.504882812 48 401.504882812 54 417.504882812 62 c 0
 433.504882812 70 447.504882812 76 459.504882812 84 c 0
 471.504882812 92 482.504882812 100 493.504882812 109 c 0
 501.504882812 114 508.504882812 119 513.504882812 121 c 0
 518.504882812 123 523.504882812 125 528.504882812 125 c 0
 531.504882812 125 534.504882812 124 536.504882812 122 c 0
 540.504882812 117 542.504882812 113 542.504882812 108 c 0
 542.504882812 97 534.504882812 82 517.504882812 64 c 0
 457.504882812 1 380.504882812 -31 284.504882812 -31 c 2xd0
EndSplineSet
Validated: 524289
EndChar

StartChar: D
Encoding: 68 68 46
Width: 630
GlyphClass: 2
Flags: HMW
HStem: -31 61<314.56 361.06 327.06 361.06> 712 21G<311.06 315.06 311.06 311.06>
VStem: 311.06 4<688 688 712 712> 530.06 65<341 379>
LayerCount: 2
Fore
SplineSet
315.059570312 712 m 1
 311.059570312 712 l 1
 312.059570312 726 314.059570312 732 315.059570312 730 c 2
 315.059570312 712 l 1
315.059570312 687 m 1
 326.059570312 686 339.059570312 683 352.059570312 680 c 0
 369.059570312 676 385.059570312 671 402.059570312 664 c 0
 419.059570312 657 436.059570312 647 455.059570312 635 c 0
 474.059570312 623 491.059570312 609 508.059570312 593 c 0
 525.059570312 577 539.059570312 557 553.059570312 533 c 0
 567.059570312 509 577.059570312 484 584.059570312 457 c 0
 591.059570312 430 595.059570312 398 595.059570312 363 c 0
 595.059570312 319 590.059570312 272 578.059570312 222 c 0
 572.059570312 200 564.059570312 176 553.059570312 153 c 0
 542.059570312 130 529.059570312 107 512.059570312 85 c 0
 495.059570312 63 478.059570312 43 459.059570312 26 c 0
 441.059570312 9 421.059570312 -6 400.059570312 -16 c 0
 379.059570312 -26 356.059570312 -31 335.059570312 -31 c 2
 327.059570312 -31 l 2
 302.059570312 -31 277.059570312 -29 252.059570312 -27 c 0
 227.059570312 -25 207.059570312 -21 191.059570312 -17 c 0
 175.059570312 -13 160.059570312 -9 147.059570312 -5 c 0
 134.059570312 -1 126.059570312 0 123.059570312 0 c 0
 115.059570312 0 109.059570312 3 106.059570312 8 c 0
 104.059570312 10 103.059570312 15 103.059570312 20 c 0
 103.059570312 25 104.059570312 30 106.059570312 36 c 0
 115.059570312 68 129.059570312 125 148.059570312 207 c 0
 167.059570312 289 184.059570312 377 203.059570312 472 c 0
 210.059570312 509 216.059570312 533 219.059570312 545 c 0
 222.059570312 557 226.059570312 575 232.059570312 600 c 0
 238.059570312 625 242.059570312 640 243.059570312 645 c 0
 246.059570312 660 252.059570312 672 260.059570312 679 c 0
 268.059570312 686 276.059570312 690 285.059570312 690 c 0
 293.059570312 690 302.059570312 689 311.059570312 688 c 1
 306.059570312 654 300.059570312 628 294.059570312 611 c 0
 273.059570312 525 254.059570312 433 237.059570312 338 c 0
 229.059570312 287 221.059570312 243 212.059570312 208 c 0
 200.059570312 151 191.059570312 104 184.059570312 69 c 0
 186.059570312 60 190.059570312 58 192.059570312 65 c 1
 215.059570312 52 239.059570312 43 264.059570312 38 c 0
 289.059570312 33 319.059570312 30 352.059570312 30 c 0
 370.059570312 30 388.059570312 36 406.059570312 50 c 0
 424.059570312 64 440.059570312 81 454.059570312 102 c 0
 468.059570312 123 480.059570312 145 492.059570312 169 c 0
 504.059570312 193 513.059570312 218 518.059570312 241 c 0
 526.059570312 275 530.059570312 307 530.059570312 337 c 0
 530.059570312 421 501.059570312 489 441.059570312 540 c 0
 416.059570312 562 377.059570312 586 326.059570312 611 c 1
 326.059570312 616 l 1
 323.059570312 616 l 1
 323.059570312 617 l 1
 321.059570312 617 l 1
 321.059570312 618 l 1
 319.059570312 618 l 1
 319.059570312 619 l 1
 315.059570312 619 l 1
 315.059570312 687 l 1
EndSplineSet
Validated: 524289
EndChar

StartChar: E
Encoding: 69 69 47
Width: 630
GlyphClass: 2
Flags: HMW
HStem: -20 63<190.7 271.2> -6 66<460.2 506.7 466.7 506.7> 312 62<247.7 285.7> 332 57<539.2 568.7> 615 59<491.7 513.2 467.7 519.7>
VStem: 112.7 77<27.5 74.5>
LayerCount: 2
Fore
SplineSet
478.700195312 -6 m 2x4c
 466.700195312 -6 l 2
 453.700195312 -6 432.700195312 -7 401.700195312 -9 c 0
 306.700195312 -16 238.700195312 -20 200.700195312 -20 c 0xac
 180.700195312 -20 166.700195312 -19 153.700195312 -18 c 0
 142.700195312 -18 133.700195312 -11 124.700195312 0 c 0
 117.700195312 9 112.700195312 21 112.700195312 34 c 0
 112.700195312 47 119.700195312 81 132.700195312 136 c 0
 142.700195312 180 153.700195312 228 166.700195312 279 c 0
 179.700195312 330 190.700195312 388 203.700195312 451 c 0
 211.700195312 491 217.700195312 517 220.700195312 530 c 0
 223.700195312 543 228.700195312 562 235.700195312 587 c 0
 242.700195312 612 245.700195312 627 246.700195312 634 c 0
 250.700195312 649 256.700195312 660 264.700195312 668 c 0
 272.700195312 676 281.700195312 680 290.700195312 680 c 1
 291.700195312 672 293.700195312 672 294.700195312 680 c 0
 298.700195312 680 301.700195312 679 304.700195312 678 c 0
 307.700195312 677 310.700195312 674 311.700195312 670 c 0
 312.700195312 659 314.700195312 656 315.700195312 661 c 1
 317.700195312 654 320.700195312 654 322.700195312 663 c 1
 370.700195312 670 431.700195312 674 503.700195312 674 c 0
 522.700195312 674 538.700195312 673 555.700195312 673 c 0
 591.700195312 672 619.700195312 669 640.700195312 667 c 0
 651.700195312 665 658.700195312 662 660.700195312 659 c 0
 660.700195312 658 661.700195312 655 661.700195312 653 c 0
 661.700195312 651 660.700195312 647 660.700195312 643 c 0
 660.700195312 639 658.700195312 634 656.700195312 630 c 0
 651.700195312 621 646.700195312 614 639.700195312 612 c 0
 636.700195312 610 633.700195312 609 631.700195312 609 c 0
 629.700195312 609 627.700195312 610 625.700195312 610 c 0
 582.700195312 613 540.700195312 615 498.700195312 615 c 0
 484.700195312 615 469.700195312 614 454.700195312 614 c 0
 399.700195312 613 352.700195312 609 310.700195312 602 c 1
 308.700195312 593 304.700195312 593 302.700195312 601 c 1
 282.700195312 526 266.700195312 450 250.700195312 373 c 1
 255.700195312 366 259.700195312 366 264.700195312 374 c 1
 306.700195312 374 365.700195312 376 438.700195312 381 c 0
 512.700195312 386 553.700195312 389 563.700195312 389 c 0x1c
 573.700195312 389 579.700195312 386 581.700195312 384 c 0
 583.700195312 380 583.700195312 374 582.700195312 366 c 0
 580.700195312 355 575.700195312 346 570.700195312 341 c 0
 564.700195312 335 555.700195312 332 544.700195312 332 c 0
 533.700195312 332 487.700195312 329 408.700195312 322 c 0
 329.700195312 315 276.700195312 312 247.700195312 312 c 1xac
 244.700195312 303 239.700195312 303 237.700195312 311 c 1
 227.700195312 267 219.700195312 225 210.700195312 184 c 0
 196.700195312 122 189.700195312 82 189.700195312 67 c 0
 189.700195312 63 190.700195312 57 190.700195312 50 c 0
 192.700195312 41 195.700195312 41 197.700195312 48 c 1
 202.700195312 46 209.700195312 44 219.700195312 44 c 0
 228.700195312 44 242.700195312 43 261.700195312 43 c 0
 280.700195312 43 306.700195312 44 338.700195312 45 c 0
 413.700195312 49 463.700195312 53 486.700195312 58 c 0
 494.700195312 59 500.700195312 60 504.700195312 60 c 0
 508.700195312 60 512.700195312 59 514.700195312 58 c 0
 516.700195312 57 518.700195312 55 519.700195312 54 c 0
 520.700195312 53 521.700195312 50 521.700195312 47 c 0
 521.700195312 44 522.700195312 41 522.700195312 39 c 0
 522.700195312 37 521.700195312 33 521.700195312 31 c 0
 519.700195312 20 514.700195312 11 506.700195312 3 c 0
 501.700195312 -4 493.700195312 -7 484.700195312 -7 c 0
 482.700195312 -7 480.700195312 -6 478.700195312 -6 c 2x4c
EndSplineSet
Validated: 524289
EndChar

StartChar: F
Encoding: 70 70 48
Width: 630
GlyphClass: 2
Flags: HMW
HStem: 323 60<346.53 359.53> 619 63
LayerCount: 2
Fore
SplineSet
643.530273438 677 m 0
 654.530273438 676 660.530273438 673 661.530273438 671 c 0
 663.530273438 668 664.530273438 662 663.530273438 654 c 0
 661.530273438 645 655.530273438 636 648.530273438 629 c 0
 642.530273438 622 634.530273438 619 623.530273438 619 c 2
 621.530273438 619 l 2
 588.530273438 621 554.530273438 622 519.530273438 622 c 0
 454.530273438 622 382.530273438 618 303.530273438 611 c 1
 287.530273438 544 276.530273438 498 270.530273438 472 c 0
 264.530273438 446 257.530273438 414 249.530273438 376 c 1
 254.530273438 369 260.530273438 369 265.530273438 378 c 1
 290.530273438 381 317.530273438 383 346.530273438 383 c 2
 367.530273438 383 l 2
 404.530273438 382 437.530273438 379 467.530273438 376 c 0
 497.530273438 373 520.530273438 370 537.530273438 367 c 0
 543.530273438 366 547.530273438 363 550.530273438 362 c 0
 553.530273438 361 556.530273438 359 556.530273438 359 c 2
 557.530273438 357 558.530273438 354 558.530273438 350 c 2
 558.530273438 344 l 2
 556.530273438 335 551.530273438 326 545.530273438 319 c 0
 541.530273438 313 534.530273438 310 525.530273438 310 c 2
 523.530273438 310 l 2
 506.530273438 313 480.530273438 317 448.530273438 319 c 0
 416.530273438 321 379.530273438 323 339.530273438 323 c 0
 301.530273438 323 270.530273438 320 244.530273438 316 c 1
 242.530273438 307 239.530273438 307 237.530273438 315 c 1
 217.530273438 207 197.530273438 107 177.530273438 15 c 0
 173.530273438 4 166.530273438 -5 156.530273438 -12 c 0
 146.530273438 -19 136.530273438 -22 126.530273438 -22 c 0
 125.530273438 -22 123.530273438 -21 123.530273438 -21 c 2
 115.530273438 -21 109.530273438 -18 106.530273438 -13 c 0
 104.530273438 -11 103.530273438 -7 103.530273438 -2 c 0
 103.530273438 3 104.530273438 8 106.530273438 14 c 0
 115.530273438 43 127.530273438 100 146.530273438 183 c 0
 165.530273438 266 183.530273438 352 200.530273438 440 c 0
 209.530273438 484 216.530273438 515 219.530273438 530 c 0
 222.530273438 545 226.530273438 565 233.530273438 591 c 0
 238.530273438 601 243.530273438 619 248.530273438 645 c 0
 251.530273438 660 257.530273438 672 265.530273438 679 c 0
 273.530273438 686 282.530273438 690 291.530273438 690 c 2
 295.530273438 690 l 2
 300.530273438 690 303.530273438 689 306.530273438 688 c 0
 309.530273438 687 312.530273438 684 313.530273438 680 c 0
 313.530273438 669 315.530273438 667 316.530273438 672 c 1
 392.530273438 679 463.530273438 682 529.530273438 682 c 0
 574.530273438 682 612.530273438 680 643.530273438 677 c 0
EndSplineSet
Validated: 524289
EndChar

StartChar: G
Encoding: 71 71 49
Width: 630
GlyphClass: 2
Flags: HMW
HStem: -31 67<264.646 313.646 275.646 313.646> 289 59<526.146 566.646> 666 58<531.146 535.146>
VStem: 129.646 78<126.5 190.5>
LayerCount: 2
Fore
SplineSet
651.645507812 687 m 0
 659.645507812 682 664.645507812 677 666.645507812 674 c 0
 669.645507812 669 670.645507812 664 670.645507812 658 c 0
 670.645507812 650 668.645507812 640 662.645507812 629 c 0
 660.645507812 623 653.645507812 618 646.645507812 615 c 0
 642.645507812 614 639.645507812 613 637.645507812 613 c 0
 635.645507812 613 631.645507812 615 627.645507812 615 c 0
 624.645507812 616 617.645507812 621 606.645507812 630 c 0
 595.645507812 639 582.645507812 647 568.645507812 654 c 0
 554.645507812 662 541.645507812 666 528.645507812 666 c 0
 508.645507812 666 486.645507812 658 462.645507812 643 c 0
 438.645507812 628 414.645507812 607 389.645507812 580 c 0
 364.645507812 553 339.645507812 522 317.645507812 487 c 0
 295.645507812 452 274.645507812 413 256.645507812 370 c 0
 236.645507812 327 221.645507812 283 212.645507812 239 c 0
 208.645507812 219 207.645507812 200 207.645507812 181 c 0
 207.645507812 169 207.645507812 157 209.645507812 145 c 0
 213.645507812 114 225.645507812 89 242.645507812 68 c 0
 260.645507812 47 280.645507812 36 305.645507812 36 c 0
 321.645507812 36 337.645507812 42 355.645507812 54 c 0
 373.645507812 66 391.645507812 80 406.645507812 97 c 0
 421.645507812 114 436.645507812 132 451.645507812 153 c 0
 466.645507812 174 479.645507812 195 490.645507812 215 c 0
 501.645507812 235 511.645507812 253 518.645507812 270 c 0
 520.645507812 275 523.645507812 281 525.645507812 289 c 1
 518.645507812 287 512.645507812 287 506.645507812 288 c 0
 469.645507812 286 433.645507812 282 396.645507812 276 c 0
 359.645507812 270 333.645507812 263 317.645507812 254 c 0
 314.645507812 252 311.645507812 250 309.645507812 250 c 0
 307.645507812 250 305.645507812 251 303.645507812 253 c 0
 299.645507812 257 296.645507812 262 296.645507812 268 c 2
 296.645507812 270 l 2
 297.645507812 291 310.645507812 308 335.645507812 320 c 0
 352.645507812 329 388.645507812 337 441.645507812 342 c 0
 481.645507812 346 513.645507812 348 538.645507812 348 c 0
 564.645507812 348 579.645507812 347 585.645507812 345 c 2
 591.645507812 341 l 2
 593.645507812 339 595.645507812 336 595.645507812 331 c 2
 595.645507812 328 l 2
 594.645507812 318 591.645507812 310 587.645507812 304 c 0
 583.645507812 298 578.645507812 293 571.645507812 291 c 0
 569.645507812 289 567.645507812 289 565.645507812 289 c 0
 564.645507812 282 562.645507812 275 559.645507812 266 c 0
 556.645507812 257 554.645507812 249 553.645507812 244 c 0
 548.645507812 230 541.645507812 214 532.645507812 195 c 0
 523.645507812 176 511.645507812 157 497.645507812 136 c 0
 483.645507812 115 468.645507812 94 450.645507812 74 c 0
 432.645507812 54 414.645507812 36 395.645507812 20 c 0
 376.645507812 4 357.645507812 -9 336.645507812 -18 c 0
 315.645507812 -27 296.645507812 -31 277.645507812 -31 c 2
 275.645507812 -31 l 2
 253.645507812 -31 233.645507812 -27 214.645507812 -18 c 0
 195.645507812 -9 181.645507812 2 169.645507812 17 c 0
 157.645507812 32 148.645507812 49 141.645507812 70 c 0
 134.645507812 91 129.645507812 114 129.645507812 139 c 0
 129.645507812 159 132.645507812 179 137.645507812 200 c 0
 149.645507812 251 164.645507812 300 184.645507812 347 c 0
 204.645507812 394 225.645507812 437 249.645507812 475 c 0
 271.645507812 513 295.645507812 548 321.645507812 580 c 0
 347.645507812 612 372.645507812 638 398.645507812 659 c 0
 424.645507812 680 449.645507812 696 473.645507812 707 c 0
 497.645507812 718 520.645507812 724 541.645507812 724 c 0
 563.645507812 724 590.645507812 718 617.645507812 705 c 0
 632.645507812 698 643.645507812 692 651.645507812 687 c 0
EndSplineSet
Validated: 524289
EndChar

StartChar: H
Encoding: 72 72 50
Width: 630
GlyphClass: 2
Flags: HMW
HStem: 312 62<253.897 296.397 253.897 296.397>
LayerCount: 2
Fore
SplineSet
253.896484375 312 m 1
 251.896484375 304 249.896484375 297 248.896484375 293 c 0
 247.896484375 289 245.896484375 285 245.896484375 282 c 0
 226.896484375 215 206.896484375 126 184.896484375 15 c 0
 180.896484375 4 173.896484375 -5 163.896484375 -12 c 0
 153.896484375 -19 142.896484375 -22 133.896484375 -22 c 0
 132.896484375 -22 130.896484375 -21 130.896484375 -21 c 2
 123.896484375 -21 117.896484375 -18 113.896484375 -13 c 0
 111.896484375 -11 110.896484375 -7 110.896484375 -2 c 0
 110.896484375 3 111.896484375 8 113.896484375 14 c 0
 118.896484375 31 129.896484375 76 146.896484375 148 c 0
 155.896484375 186 169.896484375 248 191.896484375 334 c 0
 202.896484375 376 210.896484375 407 215.896484375 428 c 0
 220.896484375 449 226.896484375 479 235.896484375 520 c 0
 242.896484375 554 247.896484375 573 247.896484375 577 c 0
 249.896484375 586 251.896484375 597 255.896484375 612 c 0
 259.896484375 627 261.896484375 638 263.896484375 645 c 0
 267.896484375 660 274.896484375 672 282.896484375 679 c 0
 290.896484375 686 299.896484375 690 308.896484375 690 c 1
 308.896484375 682 310.896484375 682 310.896484375 690 c 1
 318.896484375 690 324.896484375 688 328.896484375 683 c 0
 330.896484375 680 332.896484375 675 332.896484375 670 c 0
 332.896484375 665 331.896484375 659 330.896484375 653 c 0
 329.896484375 647 324.896484375 633 318.896484375 611 c 0
 312.896484375 589 307.896484375 569 303.896484375 550 c 0
 299.896484375 531 294.896484375 506 287.896484375 470 c 0
 280.896484375 434 274.896484375 402 267.896484375 373 c 1
 272.896484375 366 275.896484375 366 280.896484375 374 c 1
 311.896484375 374 343.896484375 375 376.896484375 379 c 0
 409.896484375 383 438.896484375 388 465.896484375 392 c 0
 492.896484375 396 513.896484375 399 528.896484375 400 c 1
 530.896484375 411 532.896484375 421 533.896484375 430 c 0
 534.896484375 439 537.896484375 445 538.896484375 450 c 0
 544.896484375 470 549.896484375 497 555.896484375 533 c 0
 558.896484375 546 564.896484375 566 571.896484375 594 c 0
 578.896484375 622 584.896484375 639 585.896484375 645 c 0
 589.896484375 660 595.896484375 672 604.896484375 679 c 0
 613.896484375 686 621.896484375 690 630.896484375 690 c 1
 630.896484375 682 632.896484375 682 633.896484375 690 c 1
 642.896484375 690 649.896484375 688 653.896484375 683 c 0
 655.896484375 680 657.896484375 675 657.896484375 670 c 0
 657.896484375 665 656.896484375 657 654.896484375 648 c 0
 652.896484375 639 646.896484375 616 636.896484375 576 c 0
 626.896484375 536 618.896484375 502 611.896484375 472 c 0
 604.896484375 442 595.896484375 399 583.896484375 343 c 0
 574.896484375 297 559.896484375 236 539.896484375 161 c 0
 520.896484375 85 509.896484375 36 504.896484375 15 c 0
 501.896484375 4 494.896484375 -5 485.896484375 -12 c 0
 476.896484375 -19 467.896484375 -22 458.896484375 -22 c 0
 457.896484375 -22 455.896484375 -21 455.896484375 -21 c 2
 448.896484375 -21 442.896484375 -18 439.896484375 -13 c 0
 438.896484375 -11 436.896484375 -7 436.896484375 -2 c 0
 436.896484375 3 437.896484375 8 439.896484375 14 c 0
 465.896484375 107 489.896484375 211 513.896484375 327 c 1
 513.896484375 325 516.896484375 330 517.896484375 343 c 1
 512.896484375 334 507.896484375 334 502.896484375 342 c 1
 492.896484375 342 455.896484375 337 393.896484375 327 c 0
 331.896484375 317 285.896484375 312 260.896484375 312 c 2
 253.896484375 312 l 1
EndSplineSet
Validated: 524289
EndChar

StartChar: I
Encoding: 73 73 51
Width: 630
GlyphClass: 2
Flags: HMW
HStem: -14 56<123.327 146.327> -6 53<375.828 377.827 353.327 392.828> 625 59<288.827 290.327 290.327 295.327 288.827 333.327>
LayerCount: 2
Fore
SplineSet
416.327148438 -7 m 0x60
 412.327148438 -7 401.328125 -6 384.328125 -6 c 0
 367.328125 -6 345.328125 -7 316.328125 -8 c 1
 295.583984375 -13.333984375 274.83984375 -16.208984375 254.095703125 -16.208984375 c 2
 211.327148438 -12 l 1
 171.327148438 -13 144.327148438 -14 130.327148438 -14 c 0xa0
 116.327148438 -14 108.327148438 -12 104.327148438 -8 c 0
 102.327148438 -6 101.327148438 -2 101.327148438 1 c 0
 101.327148438 3 102.327148438 6 102.327148438 8 c 0
 103.327148438 17 107.327148438 26 114.327148438 32 c 0
 121.327148438 38 133.327148438 42 146.327148438 42 c 0
 173.327148438 43 220.327148438 45 288.327148438 47 c 1x60
 320.327148438 166 348.327148438 290 373.327148438 418 c 0
 379.327148438 448 382.327148438 465 382.327148438 470 c 0
 384.327148438 481 389.327148438 501 396.327148438 532 c 0
 398.327148438 541 401.327148438 555 406.327148438 575 c 0
 411.327148438 595 416.327148438 607 416.327148438 610 c 1
 416.327148438 607 418.327148438 611 419.327148438 624 c 1
 383.327148438 624 354.327148438 625 333.327148438 625 c 2
 290.327148438 625 l 2
 282.327148438 625 276.327148438 624 276.327148438 624 c 2
 266.327148438 624 259.327148438 626 256.327148438 631 c 0
 254.327148438 633 253.327148438 637 253.327148438 642 c 2
 253.327148438 649 l 2
 254.327148438 658 259.327148438 666 266.327148438 673 c 0
 273.327148438 680 282.327148438 684 295.327148438 684 c 0
 344.327148438 685 389.327148438 686 431.327148438 686 c 0
 514.327148438 686 584.327148438 683 642.327148438 676 c 0
 650.327148438 676 656.327148438 673 660.327148438 670 c 0
 664.327148438 667 666.327148438 663 666.327148438 657 c 0
 666.327148438 655 665.327148438 652 665.327148438 650 c 0
 663.327148438 641 657.327148438 631 649.327148438 622 c 0
 646.327148438 618 642.327148438 615 637.327148438 613 c 0
 634.327148438 612 631.327148438 611 629.327148438 611 c 0
 627.327148438 611 626.327148438 612 624.327148438 612 c 0
 607.327148438 614 559.327148438 618 482.327148438 623 c 1
 477.327148438 596 473.327148438 578 469.327148438 568 c 0
 453.327148438 504 438.327148438 436 425.327148438 365 c 0
 416.327148438 318 403.327148438 258 386.327148438 188 c 0
 369.327148438 118 358.327148438 71 353.327148438 47 c 1
 366.327148438 47 l 2
 389.327148438 47 436.327148438 46 505.327148438 46 c 0
 514.327148438 46 521.327148438 44 522.327148438 42 c 0xa0
 523.327148438 40 524.327148438 36 524.327148438 31 c 2
 524.327148438 23 l 2
 522.327148438 13 517.327148438 5 512.327148438 -2 c 0
 510.327148438 -6 507.327148438 -8 504.327148438 -9 c 0
 501.327148438 -10 498.327148438 -12 496.327148438 -12 c 0
 494.327148438 -12 491.327148438 -11 489.327148438 -11 c 0
 474.327148438 -9 451.327148438 -7 416.327148438 -7 c 0x60
EndSplineSet
Validated: 524289
EndChar

StartChar: J
Encoding: 74 74 52
Width: 630
GlyphClass: 2
Flags: HMW
HStem: -35 77<289.767 297.267> 611 65<630.767 648.767> 625 59<293.767 297.767 297.767 299.767 293.767 355.767>
VStem: 132.767 63<150 170.5 159.5 161.5>
LayerCount: 2
Fore
SplineSet
320.766601562 52 m 0xb0
 326.766601562 59 332.766601562 69 339.766601562 83 c 0
 352.766601562 112 367.766601562 159 382.766601562 224 c 0
 385.766601562 237 396.766601562 284 412.766601562 366 c 0
 428.766601562 445 445.766601562 531 466.766601562 623 c 1
 419.766601562 625 383.766601562 625 355.766601562 625 c 2
 297.766601562 625 l 2
 286.766601562 625 281.766601562 624 281.766601562 624 c 2
 271.766601562 624 264.766601562 626 261.766601562 631 c 0
 259.766601562 633 256.766601562 637 256.766601562 642 c 0
 256.766601562 644 257.766601562 647 257.766601562 649 c 0
 258.766601562 658 263.766601562 666 270.766601562 673 c 0
 277.766601562 680 287.766601562 684 299.766601562 684 c 0
 348.766601562 685 393.766601562 686 434.766601562 686 c 0
 516.766601562 686 586.766601562 683 644.766601562 676 c 0xd0
 652.766601562 676 658.766601562 673 662.766601562 670 c 0
 666.766601562 667 667.766601562 663 667.766601562 657 c 0
 667.766601562 655 666.766601562 652 666.766601562 650 c 0
 664.766601562 641 659.766601562 631 651.766601562 622 c 0
 647.766601562 618 644.766601562 615 639.766601562 613 c 0
 637.766601562 612 633.766601562 611 631.766601562 611 c 0
 629.766601562 611 626.766601562 612 624.766601562 612 c 0
 603.766601562 615 569.766601562 619 518.766601562 621 c 1
 512.766601562 595 505.766601562 563 498.766601562 523 c 0
 492.766601562 479 485.766601562 443 478.766601562 416 c 0
 472.766601562 384 465.766601562 349 457.766601562 309 c 0
 449.766601562 269 441.766601562 235 433.766601562 206 c 0
 416.766601562 146 398.766601562 98 381.766601562 62 c 0
 364.766601562 26 349.766601562 0 334.766601562 -14 c 0
 319.766601562 -28 304.766601562 -35 289.766601562 -35 c 0
 271.766601562 -35 253.766601562 -31 237.766601562 -24 c 0
 220.766601562 -17 206.766601562 -7 195.766601562 5 c 0
 184.766601562 17 174.766601562 31 165.766601562 46 c 0
 156.766601562 61 150.766601562 76 145.766601562 91 c 0
 140.766601562 106 136.766601562 118 135.766601562 129 c 0
 134.766601562 140 132.766601562 146 132.766601562 150 c 2
 132.766601562 159 l 2
 132.766601562 164 134.766601562 170 136.766601562 177 c 0
 138.766601562 184 141.766601562 191 144.766601562 197 c 0
 147.766601562 203 151.766601562 209 157.766601562 213 c 0
 163.766601562 217 170.766601562 221 177.766601562 222 c 0
 180.766601562 222 183.766601562 223 185.766601562 223 c 0
 190.766601562 223 194.766601562 221 196.766601562 218 c 0
 198.766601562 215 200.766601562 210 200.766601562 205 c 0
 200.766601562 203 199.766601562 199 199.766601562 196 c 0
 197.766601562 187 195.766601562 176 195.766601562 165 c 0
 195.766601562 154 197.766601562 142 200.766601562 128 c 0
 203.766601562 114 208.766601562 100 215.766601562 87 c 0
 222.766601562 74 234.766601562 64 249.766601562 55 c 0
 263.766601562 46 279.766601562 42 299.766601562 42 c 0
 306.766601562 42 314.766601562 45 320.766601562 52 c 0xb0
EndSplineSet
Validated: 524289
EndChar

StartChar: K
Encoding: 75 75 53
Width: 630
GlyphClass: 2
Flags: HMW
HStem: -22 21G<136.563 142.063> 695 20G<623.062 626.062>
LayerCount: 2
Fore
SplineSet
114.063476562 10 m 0
 114.063476562 13 115.0625 18 117.0625 23 c 0
 126.0625 53 139.0625 110 158.0625 193 c 0
 176.0625 277 193.0625 363 211.0625 452 c 0
 220.0625 496 227.0625 526 230.0625 541 c 0
 232.0625 556 238.0625 578 245.0625 607 c 0
 252.0625 635 257.0625 653 258.0625 660 c 0
 262.0625 678 268.0625 691 276.0625 700 c 0
 284.0625 709 292.0625 714 301.0625 714 c 1
 302.0625 722 304.0625 722 304.0625 714 c 1
 312.0625 714 318.0625 711 322.0625 703 c 0
 324.0625 698 325.0625 692 325.0625 683 c 0
 325.0625 678 324.0625 674 323.0625 669 c 0
 320.0625 653 312.0625 618 299.0625 564 c 0
 286.0625 509 273.0625 452 260.0625 391 c 1
 402.0625 530 l 2
 443.0625 573 483.0625 611 525.0625 642 c 0
 558.0625 670 579.0625 688 588.0625 695 c 0
 597.0625 704 606.0625 710 613.0625 712 c 0
 618.0625 714 622.0625 715 624.0625 715 c 0
 628.0625 715 632.0625 711 635.0625 703 c 0
 637.0625 698 638.0625 692 638.0625 685 c 0
 638.0625 676 629.0625 665 612.0625 651 c 0
 600.0625 639 560.0625 603 491.0625 542 c 1
 427.0625 478 367.0625 419 312.0625 366 c 1
 317.0625 357 l 2
 331.0625 334 356.0625 296 392.0625 245 c 0
 428.0625 191 458.0625 145 483.0625 106 c 0
 508.041015625 71.0302734375 523.041992188 48.0400390625 525.063476562 39.0234375 c 0
 524.948242188 28.3505859375 522.916015625 17.7333984375 518.063476562 9 c 0
 514.063476562 0 509.063476562 -8 502.063476562 -13 c 0
 495.063476562 -18 490.063476562 -21 485.063476562 -21 c 0
 477.063476562 -21 470.063476562 -13 464.063476562 4 c 0
 460.063476562 13 444.063476562 36 417.063476562 73 c 0
 390.063476562 110 361.063476562 152 330.063476562 196 c 0
 299.063476562 245 277.063476562 283 264.063476562 310 c 2
 250.063476562 337 l 1
 239.063476562 286 l 1
 188.063476562 24 l 2
 184.063476562 9 177.063476562 -2 167.063476562 -10 c 0
 157.063476562 -18 147.063476562 -22 137.063476562 -22 c 0
 136.063476562 -22 134.063476562 -21 134.063476562 -21 c 2
 126.063476562 -21 120.063476562 -17 117.063476562 -8 c 0
 115.063476562 -3 114.063476562 3 114.063476562 10 c 0
EndSplineSet
Validated: 524289
EndChar

StartChar: L
Encoding: 76 76 54
Width: 630
GlyphClass: 2
Flags: HMW
HStem: -15 62.9962
LayerCount: 2
Fore
SplineSet
527.440429688 72 m 0
 530.440429688 63 531.439453125 54 530.439453125 44 c 0
 528.439453125 35 523.439453125 27 518.439453125 22 c 0
 513.439453125 17 503.439453125 12 489.439453125 10 c 0
 446.439453125 1 386.439453125 -5 309.439453125 -9 c 0
 230.439453125 -13 170.439453125 -15 130.439453125 -15 c 0
 122.439453125 -15 116.439453125 -12 113.439453125 -7 c 0
 111.439453125 -5 110.439453125 -1 110.439453125 4 c 0
 110.439453125 9 111.439453125 14 113.439453125 20 c 0
 126.439453125 51 138.439453125 89 151.439453125 135 c 0
 174.439453125 206 195.439453125 275 213.439453125 341 c 0
 222.439453125 372 234.439453125 427 249.439453125 506 c 0
 264.439453125 585 272.439453125 629 273.439453125 636 c 0
 277.439453125 652 283.439453125 664 291.439453125 671 c 0
 299.439453125 678 307.439453125 682 315.439453125 682 c 1
 316.439453125 674 318.439453125 674 318.439453125 682 c 1
 325.439453125 682 331.439453125 679 335.439453125 674 c 0
 337.439453125 672 338.439453125 668 338.439453125 662 c 0
 338.439453125 656 337.439453125 650 336.439453125 645 c 0
 332.439453125 626 327.439453125 600 319.439453125 567 c 0
 310.439453125 517 300.439453125 475 290.439453125 441 c 0
 279.439453125 389 269.439453125 345 259.439453125 309 c 0
 253.439453125 281 243.439453125 240 228.439453125 187 c 0
 212.439453125 134 201.439453125 92 194.439453125 62 c 0
 193.8515625 54.35546875 192.91796875 49.8232421875 192.044921875 47.99609375 c 1
 206.0859375 47.9287109375 214.62109375 47 219.440429688 47 c 0
 263.440429688 47 315.440429688 51 375.440429688 58 c 0
 439.440429688 65 485.440429688 72 510.440429688 78 c 1
 517.440429688 78 l 2
 522.440429688 78 525.440429688 76 527.440429688 72 c 0
EndSplineSet
Validated: 524289
EndChar

StartChar: M
Encoding: 77 77 55
Width: 630
GlyphClass: 2
Flags: HMW
HStem: 664 20G
VStem: 109.735 1<-14.5 -10> 486.736 62<39 84 51.5 71>
LayerCount: 2
Fore
SplineSet
306.736328125 -7 m 1
 299.736328125 -7 294.736328125 -5 291.736328125 -1 c 0
 288.736328125 4 285.736328125 11 285.736328125 19 c 0
 285.736328125 51 290.736328125 124 299.736328125 239 c 0
 308.736328125 354 316.736328125 464 325.736328125 570 c 0
 327.736328125 610 332.736328125 648 335.736328125 684 c 1
 325.736328125 651 314.736328125 616 303.736328125 578 c 0
 288.736328125 529 273.736328125 470 255.736328125 403 c 0
 245.736328125 364 232.736328125 316 216.736328125 257 c 0
 207.736328125 224 198.736328125 194 190.736328125 167 c 0
 180.736328125 137 172.736328125 113 167.736328125 95 c 0
 162.736328125 78 157.736328125 65 156.736328125 58 c 0
 152.736328125 37 145.736328125 20 135.736328125 8 c 0
 126.736328125 -4 119.736328125 -10 110.736328125 -10 c 1
 110.736328125 -19 109.736328125 -19 109.736328125 -10 c 1
 108.736328125 -10 106.736328125 -8 105.736328125 -7 c 0
 101.736328125 -5 98.736328125 6 98.736328125 25 c 0
 98.736328125 33 101.736328125 44 104.736328125 58 c 0
 106.736328125 66 109.736328125 79 115.736328125 98 c 0
 121.736328125 118 130.736328125 144 141.736328125 178 c 0
 152.736328125 214 162.736328125 241 167.736328125 260 c 2
 214.736328125 412 l 2
 222.736328125 441 231.736328125 477 244.736328125 519 c 0
 268.736328125 601 286.736328125 649 297.736328125 666 c 0
 304.736328125 679 312.736328125 689 323.736328125 695 c 0
 334.736328125 701 344.736328125 704 352.736328125 704 c 2
 356.736328125 704 l 1
 357.736328125 704 l 2
 366.736328125 704 373.736328125 702 378.736328125 697 c 0
 383.736328125 691 384.736328125 681 384.736328125 667 c 2
 384.736328125 659 l 2
 384.736328125 606 373.736328125 483 351.736328125 291 c 0
 341.736328125 198 335.736328125 137 333.736328125 107 c 1
 340.736328125 97 348.736328125 95 355.736328125 102 c 1
 381.736328125 201 405.736328125 289 428.736328125 368 c 0
 445.736328125 425 464.736328125 482 485.736328125 539 c 0
 506.736328125 595 522.736328125 638 536.736328125 668 c 0
 540.736328125 678 546.736328125 686 553.736328125 692 c 0
 561.736328125 698 568.736328125 702 574.736328125 703 c 0
 580.736328125 703 586.736328125 704 589.736328125 704 c 2
 597.736328125 704 l 1
 601.736328125 704 l 1
 613.736328125 704 l 2
 615.736328125 704 620.736328125 703 624.736328125 702 c 0
 628.736328125 700 631.736328125 697 632.736328125 695 c 0
 633.736328125 693 634.736328125 689 635.736328125 683 c 0
 636.736328125 679 637.736328125 674 637.736328125 668 c 2
 637.736328125 665 l 2
 635.736328125 644 620.736328125 546 591.736328125 370 c 0
 563.736328125 195 548.736328125 96 548.736328125 72 c 0
 548.736328125 31 537.736328125 6 517.736328125 -4 c 0
 513.736328125 -6 510.736328125 -7 507.736328125 -7 c 0
 504.736328125 -7 499.736328125 -5 496.736328125 -2 c 0
 489.736328125 3 486.736328125 17 486.736328125 39 c 2
 486.736328125 44 l 2
 486.736328125 98 519.736328125 294 584.736328125 632 c 1
 577.736328125 642 568.736328125 644 560.736328125 639 c 1
 520.736328125 537 490.736328125 446 468.736328125 363 c 0
 446.736328125 286 424.736328125 212 401.736328125 143 c 0
 378.736328125 74 363.736328125 32 355.736328125 17 c 0
 348.736328125 1 332.736328125 -7 310.736328125 -7 c 1
 309.736328125 -15 307.736328125 -15 306.736328125 -7 c 1
EndSplineSet
Validated: 524289
EndChar

StartChar: N
Encoding: 78 78 56
Width: 630
GlyphClass: 2
Flags: HMW
HStem: -12 21G<122.241 128.741> 685 20G<306.741 309.741 636.741 643.741>
LayerCount: 2
Fore
SplineSet
553.241210938 190 m 0
 539.241210938 133 528.241210938 90 520.241210938 63 c 0
 511.241210938 35 505.241210938 18 502.241210938 11 c 0
 495.241210938 -6 481.241210938 -14 459.241210938 -14 c 1
 458.241210938 -22 456.241210938 -22 455.241210938 -14 c 1
 448.241210938 -14 443.241210938 -12 440.241210938 -7 c 0
 436.241210938 -2 433.241210938 5 433.241210938 13 c 0
 431.241210938 26 424.241210938 56 411.241210938 101 c 2
 372.241210938 246 l 2
 359.241210938 295 345.241210938 349 332.241210938 410 c 0
 319.241210938 471 311.241210938 523 307.241210938 565 c 0
 305.241210938 595 301.241210938 624 299.241210938 653 c 1
 294.241210938 626 289.241210938 597 284.241210938 567 c 0
 272.241210938 494 259.241210938 425 245.241210938 362 c 0
 230.241210938 298 214.241210938 233 197.241210938 167 c 0
 180.241210938 103 170.241210938 63 168.241210938 49 c 0
 165.241210938 27 158.241210938 11 149.241210938 2 c 0
 141.241210938 -7 133.241210938 -12 124.241210938 -12 c 0
 120.241210938 -12 117.241210938 -10 115.241210938 -8 c 0
 113.241210938 -6 111.241210938 3 111.241210938 17 c 0
 111.241210938 25 113.241210938 35 116.241210938 48 c 0
 118.241210938 62 132.241210938 114 154.241210938 204 c 2
 213.241210938 443 l 2
 229.241210938 512 243.241210938 578 254.241210938 640 c 0
 256.241210938 653 259.241210938 664 264.241210938 673 c 0
 268.241210938 683 273.241210938 690 279.241210938 695 c 0
 286.241210938 699 291.241210938 702 296.241210938 703 c 0
 301.241210938 704 305.241210938 705 308.241210938 705 c 0
 311.241210938 705 315.241210938 704 317.241210938 704 c 0
 326.241210938 704 333.241210938 702 338.241210938 697 c 0
 342.241210938 692 345.241210938 682 345.241210938 668 c 0
 347.241210938 625 364.241210938 543 394.241210938 422 c 0
 423.241210938 301 449.241210938 204 471.241210938 130 c 0
 475.241210938 115 479.241210938 102 483.241210938 92 c 1
 486.241210938 103 490.241210938 116 493.241210938 132 c 0
 508.241210938 195 529.241210938 288 554.241210938 409 c 0
 581.241210938 530 596.241210938 609 600.241210938 649 c 0
 602.241210938 664 607.241210938 677 615.241210938 688 c 0
 624.241210938 699 632.241210938 705 641.241210938 705 c 0
 646.241210938 705 651.241210938 704 653.241210938 703 c 0
 655.241210938 702 658.241210938 700 659.241210938 698 c 0
 660.241210938 693 661.241210938 685 661.241210938 673 c 0
 661.241210938 671 660.241210938 664 659.241210938 654 c 0
 659.241210938 643 647.241210938 590 625.241210938 495 c 0
 604.241210938 397 580.241210938 295 553.241210938 190 c 0
EndSplineSet
Validated: 524289
EndChar

StartChar: O
Encoding: 79 79 57
Width: 630
GlyphClass: 2
Flags: HMW
HStem: -24 72<289.379 290.379> 649 44<463.379 464.879>
VStem: 148.379 70<138.5 181.5> 555.379 65<517 533 517 534>
LayerCount: 2
Fore
SplineSet
595.37890625 367 m 0
 587.37890625 329 577.37890625 291 566.37890625 252 c 0
 555.37890625 213 544.37890625 183 533.37890625 161 c 0
 519.37890625 130 504.37890625 104 488.37890625 82 c 0
 473.37890625 61 457.37890625 43 442.37890625 29 c 0
 427.37890625 15 411.37890625 5 393.37890625 -3 c 0
 375.37890625 -11 357.37890625 -17 339.37890625 -20 c 0
 321.37890625 -23 301.37890625 -24 279.37890625 -24 c 0
 246.37890625 -24 217.37890625 -12 195.37890625 10 c 0
 173.37890625 32 158.37890625 62 151.37890625 101 c 0
 149.37890625 116 148.37890625 131 148.37890625 146 c 0
 148.37890625 161 152.37890625 189 159.37890625 231 c 0
 160.37890625 234 162.37890625 240 163.37890625 248 c 0
 170.37890625 278 175.37890625 302 180.37890625 320 c 0
 185.37890625 338 191.37890625 362 200.37890625 392 c 0
 217.37890625 448 239.37890625 501 268.37890625 551 c 0
 290.37890625 593 320.37890625 627 360.37890625 653 c 0
 400.37890625 679 442.37890625 693 484.37890625 693 c 0
 505.37890625 693 525.37890625 688 544.37890625 679 c 0
 563.37890625 670 578.37890625 657 591.37890625 639 c 0
 604.37890625 621 612.37890625 598 617.37890625 570 c 0
 619.37890625 556 620.37890625 541 620.37890625 525 c 0
 620.37890625 509 618.37890625 492 616.37890625 473 c 0
 611.37890625 440 603.37890625 405 595.37890625 367 c 0
344.37890625 55 m 0
 360.37890625 60 376.37890625 67 392.37890625 77 c 0
 408.37890625 87 422.37890625 101 436.37890625 118 c 0
 450.37890625 135 462.37890625 154 473.37890625 176 c 0
 478.37890625 184 485.37890625 204 494.37890625 237 c 0
 503.37890625 269 514.37890625 307 525.37890625 351 c 0
 536.37890625 395 545.37890625 439 552.37890625 481 c 0
 554.37890625 494 555.37890625 507 555.37890625 519 c 0
 555.37890625 549 550.37890625 576 537.37890625 598 c 0
 526.37890625 617 513.37890625 630 497.37890625 639 c 0
 486.37890625 646 472.37890625 649 457.37890625 649 c 0
 424.37890625 649 393.37890625 635 365.37890625 606 c 0
 338.37890625 579 315.37890625 541 295.37890625 492 c 0
 268.37890625 428 246.37890625 352 229.37890625 265 c 0
 222.37890625 225 218.37890625 194 218.37890625 169 c 0
 218.37890625 140 222.37890625 116 229.37890625 97 c 0
 234.37890625 83 243.37890625 71 255.37890625 62 c 0
 267.37890625 53 281.37890625 48 297.37890625 48 c 0
 313.37890625 48 328.37890625 50 344.37890625 55 c 0
EndSplineSet
Validated: 524289
EndChar

StartChar: P
Encoding: 80 80 58
Width: 630
GlyphClass: 2
Flags: HMW
HStem: 230 69<324.42 347.42 322.42 360.42> 642 45<425.92 471.42>
VStem: 257.92 3 553.92 62<538.5 539.5>
LayerCount: 2
Fore
SplineSet
318.919921875 633 m 1
 314.919921875 614 308.919921875 587 299.919921875 551 c 0
 290.919921875 515 281.919921875 478 273.919921875 440 c 0
 265.919921875 402 256.919921875 361 247.919921875 319 c 1
 256.919921875 315 l 2
 278.919921875 304 305.919921875 299 338.919921875 299 c 0
 355.919921875 299 370.919921875 301 385.919921875 304 c 0
 400.919921875 307 413.919921875 311 425.919921875 316 c 0
 437.919921875 321 447.919921875 328 457.919921875 336 c 0
 467.919921875 344 477.919921875 352 484.919921875 360 c 0
 491.919921875 368 498.919921875 378 505.919921875 389 c 0
 512.919921875 400 517.919921875 409 521.919921875 418 c 0
 525.919921875 427 529.919921875 437 533.919921875 448 c 0
 537.919921875 459 541.919921875 469 543.919921875 476 c 0
 545.919921875 483 548.919921875 493 550.919921875 504 c 0
 552.919921875 515 553.919921875 526 553.919921875 535 c 0
 553.919921875 544 553.919921875 551 552.919921875 558 c 0
 549.919921875 575 542.919921875 588 533.919921875 599 c 0
 524.919921875 610 515.919921875 618 502.919921875 625 c 0
 491.919921875 632 479.919921875 637 468.919921875 639 c 0
 457.919921875 641 446.919921875 642 435.919921875 642 c 0
 415.919921875 642 377.919921875 639 318.919921875 633 c 1
156.919921875 141 m 0
 163.919921875 163 169.920898438 193 175.920898438 231 c 0
 182.920898438 258 190.920898438 294 197.920898438 337 c 0
 206.920898438 379 212.920898438 414 218.920898438 442 c 0
 229.706054688 490.04296875 243.375 547.69921875 259.927734375 614.96875 c 0
 259.279296875 615.579101562 258.456054688 618.640625 257.919921875 624 c 1
 256.919921875 617 254.919921875 619 254.919921875 628 c 0
 254.919921875 630 253.919921875 632 253.919921875 634 c 0
 253.919921875 636 254.919921875 640 255.919921875 642 c 0
 257.919921875 649 260.919921875 655 265.919921875 660 c 0
 270.919921875 665 275.919921875 668 279.919921875 669 c 0
 300.919921875 674 330.919921875 679 370.919921875 682 c 0
 410.919921875 685 437.919921875 687 452.919921875 687 c 0
 489.919921875 687 523.919921875 680 550.919921875 665 c 0
 577.919921875 650 596.919921875 627 607.919921875 598 c 0
 613.919921875 581 615.919921875 563 615.919921875 543 c 0
 615.919921875 534 614.919921875 516 610.919921875 489 c 0
 601.919921875 453 588.919921875 420 569.919921875 388 c 0
 550.919921875 356 530.919921875 328 506.919921875 305 c 0
 484.919921875 282 458.919921875 263 430.919921875 250 c 0
 402.919921875 237 374.919921875 230 345.919921875 230 c 0
 302.919921875 230 268.919921875 233 246.919921875 240 c 1
 241.919921875 233 238.919921875 235 234.919921875 244 c 1
 227.919921875 207 222.919921875 176 218.919921875 151 c 0
 214.919921875 126 207.919921875 81 196.919921875 14 c 0
 194.919921875 4 187.919921875 -4 177.919921875 -10 c 0
 167.919921875 -16 158.919921875 -19 148.919921875 -19 c 0
 138.919921875 -19 131.919921875 -16 126.919921875 -11 c 0
 124.919921875 -9 122.919921875 -5 122.919921875 -1 c 0
 122.919921875 3 124.919921875 7 126.919921875 14 c 0
 133.919921875 42 143.919921875 84 156.919921875 141 c 0
EndSplineSet
Validated: 524289
EndChar

StartChar: Q
Encoding: 81 81 59
Width: 630
GlyphClass: 2
Flags: HMW
HStem: -39 20G -24 72 649 44
VStem: 151.617 71 323.617 46<146.5 196.5> 554.617 65
LayerCount: 2
Fore
SplineSet
327.6171875 48 m 1x7c
 341.6171875 48 l 1
 338.6171875 63 l 2
 331.6171875 92 326.6171875 115 324.6171875 132 c 0
 324.6171875 138 323.6171875 144 323.6171875 149 c 0
 323.6171875 174 330.6171875 193 345.6171875 204 c 0
 350.6171875 208 355.6171875 210 359.6171875 210 c 0
 361.6171875 210 362.6171875 210 364.6171875 208 c 0
 366.6171875 206 369.6171875 200 369.6171875 193 c 0
 371.6171875 160 380.6171875 123 392.6171875 82 c 2
 396.6171875 67 l 1
 407.6171875 75 l 2
 437.6171875 96 462.6171875 129 479.6171875 173 c 0
 484.6171875 183 490.6171875 203 498.6171875 234 c 0
 507.6171875 265 516.6171875 303 527.6171875 349 c 0
 538.6171875 395 546.6171875 439 551.6171875 481 c 0
 553.6171875 494 554.6171875 507 554.6171875 519 c 0
 554.6171875 552 548.6171875 579 535.6171875 601 c 0
 525.6171875 618 513.6171875 631 497.6171875 639 c 0
 486.6171875 646 472.6171875 649 457.6171875 649 c 0
 424.6171875 649 393.6171875 635 365.6171875 608 c 0
 337.6171875 581 315.6171875 543 295.6171875 494 c 0
 264.6171875 423 242.6171875 347 229.6171875 264 c 0
 225.6171875 240 222.6171875 218 222.6171875 197 c 0
 222.6171875 184 224.6171875 171 226.6171875 158 c 0
 231.6171875 125 240.6171875 99 256.6171875 79 c 0
 273.6171875 58 293.6171875 48 318.6171875 48 c 2
 327.6171875 48 l 1x7c
436.6171875 -211 m 0
 429.6171875 -209 424.618164062 -203.999023438 421.618164062 -194.999023438 c 0
 416.618164062 -182.999023438 407.618164062 -159.999023438 395.618164062 -127.999023438 c 0
 383.618164062 -95.9990234375 371.618164062 -59.9990234375 358.618164062 -18.9990234375 c 1xbc
 356.618164062 -27.9990234375 351.618164062 -27.9990234375 348.618164062 -20.9990234375 c 1
 333.618164062 -22.9990234375 317.618164062 -23.9990234375 300.618164062 -23.9990234375 c 0
 277.618164062 -23.9990234375 256.618164062 -19.9990234375 236.618164062 -10.9990234375 c 0
 216.618164062 -1.9990234375 201.618164062 10.0009765625 189.618164062 25.0009765625 c 0
 177.618164062 40.0009765625 167.618164062 60.0009765625 160.618164062 81.0009765625 c 0
 153.618164062 102.000976562 151.618164062 126.000976562 151.618164062 152.000976562 c 0
 151.618164062 178.000976562 153.618164062 205.000976562 158.618164062 232.000976562 c 0
 183.618164062 360.000976562 221.618164062 465.000976562 268.618164062 547.000976562 c 0
 290.618164062 589.000976562 321.618164062 623.000976562 361.618164062 651.000976562 c 0
 401.618164062 679.000976562 442.618164062 693.000976562 484.618164062 693.000976562 c 0
 529.618164062 693.000976562 564.618164062 677.000976562 589.618164062 644.000976562 c 0
 602.618164062 627.000976562 610.618164062 605.000976562 615.618164062 576.000976562 c 0
 617.618164062 561.000976562 619.618164062 545.000976562 619.618164062 528.000976562 c 0
 619.618164062 511.000976562 617.618164062 493.000976562 615.618164062 473.000976562 c 0
 609.618164062 427.000976562 598.618164062 372.000976562 582.618164062 307.000976562 c 0
 566.618164062 242.000976562 549.618164062 191.000976562 534.618164062 155.000976562 c 0
 506.618164062 86.0009765625 469.618164062 36.0009765625 422.618164062 7.0009765625 c 1
 420.044921875 -1.5751953125 416.736328125 -4.267578125 414.584960938 -0.4453125 c 1
 431.262695312 -42.5927734375 447.958984375 -83.77734375 465.6171875 -124 c 0
 470.6171875 -144 476.6171875 -155 481.6171875 -158 c 0
 481.6171875 -160 482.6171875 -163 482.6171875 -165 c 0
 482.6171875 -167 482.6171875 -170 481.6171875 -173 c 0
 479.6171875 -180 474.6171875 -187 469.6171875 -193 c 0
 464.6171875 -199 461.6171875 -205 457.6171875 -207 c 0
 452.6171875 -210 447.6171875 -212 442.6171875 -212 c 0
 440.6171875 -212 438.6171875 -211 436.6171875 -211 c 0
EndSplineSet
Validated: 524289
EndChar

StartChar: R
Encoding: 82 82 60
Width: 630
GlyphClass: 2
Flags: HMW
VStem: 144.886 1<-21 -19> 324.886 3 327.886 4<682 682> 553.886 64<459.5 483>
LayerCount: 2
Fore
SplineSet
481.885742188 -17 m 0xd0
 475.885742188 -15 470.885742188 -9 466.885742188 0 c 0
 459.885742188 15 450.885742188 32 437.885742188 53 c 0
 424.885742188 74 409.885742188 97 390.885742188 122 c 0
 371.885742188 147 350.885742188 172 324.885742188 197 c 0
 298.885742188 222 273.885742188 242 247.885742188 257 c 0
 246.182617188 255.296875 244.595703125 254.40625 243.045898438 254.40625 c 0
 240.044921875 254.40625 237.182617188 257.74609375 233.885742188 265 c 1
 233.885742188 253.838867188 232.411132812 248.57421875 231.361328125 248.57421875 c 0
 231.188476562 248.57421875 231.02734375 248.716796875 230.885742188 249 c 1
 223.885742188 210 215.885742188 165 208.885742188 112 c 0
 201.885742188 59 197.885742188 27 195.885742188 14 c 0
 193.885742188 4 187.885742188 -4 177.885742188 -10 c 0
 167.885742188 -16 158.885742188 -19 147.885742188 -19 c 2
 145.885742188 -19 l 1
 145.885742188 -23 145.635742188 -25 145.385742188 -25 c 0
 145.135742188 -25 144.885742188 -23 144.885742188 -19 c 1
 135.885742188 -19 128.885742188 -16 124.885742188 -11 c 0
 123.885742188 -9 121.885742188 -5 121.885742188 -1 c 0
 121.885742188 3 122.885742188 8 124.885742188 14 c 0
 135.885742188 49 143.885742188 79 149.885742188 104 c 0
 155.885742188 129 169.885742188 189 190.885742188 284 c 0
 192.885742188 298 199.885742188 325 210.885742188 365 c 0
 221.885742188 407 231.885742188 446 238.885742188 483 c 0
 242.885742188 505 246.885742188 537 252.885742188 576 c 0
 258.885742188 615 262.885742188 638 264.885742188 645 c 1
 212.922851562 468.625 186.922851562 380.375 186.885742188 380.375 c 1
 186.885742188 380.375 212.848632812 468.875 264.885742188 646 c 1
 264.885742188 643.215820312 265.043945312 641.85546875 265.234375 641.85546875 c 0
 265.522460938 641.85546875 265.885742188 644.9765625 265.885742188 651 c 0
 266.885742188 661 271.885742188 670 280.885742188 678 c 0
 287.885742188 686 296.885742188 690 306.885742188 690 c 0
 315.885742188 690 321.885742188 688 324.885742188 685 c 0
 325.448242188 679.9375 326.327148438 677.40625 326.98828125 677.40625 c 0
 327.502929688 677.40625 327.885742188 678.9375 327.885742188 682 c 1
 328.385742188 678 329.135742188 676 329.885742188 676 c 0
 330.635742188 676 331.385742188 678 331.885742188 682 c 1xb0
 375.885742188 680 416.885742188 672 451.885742188 661 c 0
 486.885742188 649 516.885742188 635 538.885742188 619 c 0
 560.885742188 603 579.885742188 584 592.885742188 563 c 0
 605.885742188 542 614.885742188 523 616.885742188 502 c 0
 616.885742188 495 617.885742188 487 617.885742188 479 c 0
 617.885742188 466 615.885742188 453 613.885742188 440 c 0
 606.885742188 409 593.885742188 383 573.885742188 363 c 0
 564.885742188 354 553.885742188 345 540.885742188 337 c 0
 527.885742188 329 514.885742188 323 500.885742188 318 c 0
 487.885742188 313 472.885742188 308 455.885742188 304 c 0
 438.885742188 300 422.885742188 295 405.885742188 293 c 0
 388.885742188 291 369.885742188 289 348.885742188 287 c 1
 342.698242188 281.9375 336.510742188 279.40625 330.323242188 279.40625 c 2
 315.885742188 284 l 1
 324.249023438 270.060546875 333.4765625 263.893554688 341.961914062 263.893554688 c 0
 342.607421875 263.893554688 343.249023438 263.9296875 343.885742188 264 c 0
 392.885742188 230 432.885742188 190 465.885742188 146 c 0
 499.885742188 102 520.885742188 64 527.885742188 33 c 1
 527.885742188 30 l 2
 527.885742188 22 525.885742188 15 521.885742188 8 c 0
 516.885742188 -1 509.885742188 -7 502.885742188 -12 c 0
 496.885742188 -16 491.885742188 -18 486.885742188 -18 c 0
 485.885742188 -18 483.885742188 -17 481.885742188 -17 c 0xd0
473.885742188 368 m 0
 485.885742188 372 496.885742188 377 507.885742188 384 c 0
 529.885742188 397 544.885742188 417 550.885742188 442 c 0
 552.885742188 449 553.885742188 456 553.885742188 463 c 0
 553.885742188 477 550.885742188 491 543.885742188 504 c 0
 533.885742188 524 519.885742188 540 502.885742188 554 c 0
 486.885742188 568 467.885742188 581 446.885742188 592 c 0
 406.885742188 613 368.885742188 628 328.885742188 636 c 2
 318.885742188 638 l 1
 307.885742188 581 298.885742188 535 292.885742188 500 c 0
 291.885742188 493 288.885742188 480 283.885742188 462 c 0
 278.885742188 444 268.885742188 407 251.885742188 350 c 1
 263.885742188 347 l 2
 270.885742188 346 280.885742188 345 291.885742188 345 c 2
 294.885742188 345 l 2
 296.885742188 345 306.885742188 346 325.885742188 347 c 0
 395.885742188 350 444.885742188 357 473.885742188 368 c 0
EndSplineSet
Validated: 524289
EndChar

StartChar: S
Encoding: 83 83 61
Width: 630
GlyphClass: 2
Flags: HMW
HStem: -29 62<281.911 285.911> 668 56<490.911 535.911>
VStem: 242.411 70<474 520.5> 506.411 71<234.5 287.5>
LayerCount: 2
Fore
SplineSet
145.411132812 117 m 0
 152.411132812 120 158.411132812 123 161.411132812 123 c 0
 164.411132812 123 168.411132812 124 169.411132812 124 c 2
 174.411132812 124 l 2
 175.411132812 124 177.411132812 122 179.411132812 119 c 0
 181.411132812 116 185.411132812 110 188.411132812 103 c 0
 196.411132812 82 209.411132812 65 229.411132812 52 c 0
 247.411132812 39 269.411132812 33 294.411132812 33 c 0
 309.411132812 33 325.411132812 36 342.411132812 41 c 0
 359.411132812 46 375.411132812 52 392.411132812 62 c 0
 409.411132812 72 425.411132812 84 440.411132812 97 c 0
 455.411132812 110 467.411132812 125 478.411132812 143 c 0
 489.411132812 161 497.411132812 180 501.411132812 200 c 0
 504.411132812 216 506.411132812 229 506.411132812 240 c 0
 506.411132812 259 503.411132812 275 496.411132812 290 c 0
 491.411132812 299 484.411132812 308 475.411132812 317 c 0
 466.411132812 326 456.411132812 334 443.411132812 341 c 0
 430.411132812 348 415.411132812 353 396.411132812 358 c 0
 377.411132812 363 356.411132812 368 333.411132812 371 c 0
 315.411132812 373 299.411132812 380 286.411132812 389 c 0
 273.411132812 398 264.411132812 409 257.411132812 422 c 0
 247.411132812 442 242.411132812 463 242.411132812 485 c 0
 242.411132812 492 242.411132812 499 244.411132812 508 c 0
 249.411132812 530 256.411132812 551 267.411132812 572 c 0
 278.411132812 593 292.411132812 612 309.411132812 631 c 0
 326.411132812 650 346.411132812 666 367.411132812 680 c 0
 388.411132812 694 413.411132812 704 441.411132812 712 c 0
 469.411132812 720 497.411132812 724 528.411132812 724 c 0
 543.411132812 724 565.411132812 722 592.411132812 719 c 0
 619.411132812 716 638.411132812 712 647.411132812 708 c 0
 654.411132812 706 659.411132812 701 661.411132812 694 c 0
 661.411132812 691 662.411132812 687 662.411132812 683 c 0
 662.411132812 679 661.411132812 673 659.411132812 667 c 0
 657.411132812 661 654.411132812 656 651.411132812 654 c 0
 648.411132812 652 644.411132812 649 640.411132812 649 c 0
 636.411132812 649 633.411132812 648 629.411132812 648 c 0
 625.411132812 648 621.411132812 649 616.411132812 650 c 0
 614.411132812 650 610.411132812 652 608.411132812 653 c 0
 597.411132812 656 589.411132812 660 582.411132812 661 c 0
 575.411132812 662 565.411132812 664 551.411132812 665 c 0
 537.411132812 667 521.411132812 668 504.411132812 668 c 0
 477.411132812 668 450.411132812 663 424.411132812 653 c 0
 398.411132812 643 374.411132812 628 353.411132812 608 c 0
 332.411132812 588 320.411132812 566 315.411132812 540 c 0
 313.411132812 532 312.411132812 524 312.411132812 517 c 0
 312.411132812 495 320.411132812 476 333.411132812 460 c 0
 350.411132812 439 378.411132812 428 416.411132812 426 c 0
 446.411132812 424 472.411132812 418 493.411132812 409 c 0
 514.411132812 400 531.411132812 389 542.411132812 376 c 0
 554.411132812 363 563.411132812 348 569.411132812 331 c 0
 575.411132812 314 577.411132812 296 577.411132812 279 c 0
 577.411132812 262 576.411132812 243 571.411132812 223 c 0
 564.411132812 192 553.411132812 164 538.411132812 137 c 0
 523.411132812 110 507.411132812 87 487.411132812 67 c 0
 467.411132812 47 446.411132812 30 423.411132812 15 c 0
 400.411132812 0 374.411132812 -11 349.411132812 -18 c 0
 324.411132812 -25 298.411132812 -29 273.411132812 -29 c 0
 233.411132812 -29 201.411132812 -20 174.411132812 -2 c 0
 147.411132812 16 130.411132812 36 124.411132812 60 c 0
 123.411132812 67 122.411132812 74 122.411132812 80 c 0
 122.411132812 86 124.411132812 92 126.411132812 97 c 0
 130.411132812 106 136.411132812 112 145.411132812 117 c 0
EndSplineSet
Validated: 524289
EndChar

StartChar: T
Encoding: 84 84 62
Width: 630
GlyphClass: 2
Flags: HMW
HStem: 612 64<615.9 643.4 615.9 643.4>
LayerCount: 2
Fore
SplineSet
356.900390625 303 m 0
 384.900390625 459 402.900390625 560 411.900390625 606 c 1
 411.900390625 603 413.900390625 607 414.900390625 620 c 1
 330.900390625 625 283.900390625 628 271.900390625 630 c 0
 251.900390625 633 241.900390625 640 241.900390625 649 c 0
 241.900390625 651 242.900390625 653 242.900390625 655 c 0
 243.900390625 665 249.900390625 674 258.900390625 682 c 0
 264.900390625 687 271.900390625 690 278.900390625 690 c 0
 280.900390625 690 282.900390625 689 284.900390625 689 c 0
 317.900390625 682 434.900390625 678 637.900390625 676 c 0
 648.900390625 676 655.900390625 674 657.900390625 670 c 0
 659.900390625 666 660.900390625 662 660.900390625 657 c 0
 660.900390625 655 659.900390625 652 659.900390625 650 c 0
 657.900390625 640 651.900390625 631 643.900390625 622 c 0
 636.900390625 615 628.900390625 612 619.900390625 612 c 2
 615.900390625 612 l 2
 597.150390625 609.75 578.822265625 608.625 560.916015625 608.625 c 0
 531.072265625 608.625 502.400390625 611.75 474.900390625 618 c 1
 446.900390625 475 409.900390625 277 364.900390625 24 c 0
 361.900390625 13 354.900390625 4 344.900390625 -3 c 0
 334.900390625 -10 324.900390625 -13 315.900390625 -13 c 2
 312.900390625 -13 l 2
 304.900390625 -13 298.900390625 -10 294.900390625 -5 c 0
 293.900390625 -3 292.900390625 1 292.900390625 6 c 0
 292.900390625 11 293.900390625 16 295.900390625 23 c 0
 304.900390625 54 325.900390625 147 356.900390625 303 c 0
EndSplineSet
Validated: 524289
EndChar

StartChar: U
Encoding: 85 85 63
Width: 630
GlyphClass: 2
Flags: HMW
HStem: -29 67<280.28 337.28>
VStem: 140.28 68<141.5 183.5> 240.28 62
LayerCount: 2
Fore
SplineSet
572.280273438 251 m 0
 565.280273438 222 556.280273438 194 543.280273438 168 c 0
 532.280273438 143 519.280273438 121 506.280273438 102 c 0
 493.280273438 83 480.280273438 66 465.280273438 51 c 0
 450.280273438 36 435.280273438 24 420.280273438 14 c 0
 405.280273438 4 390.280273438 -5 374.280273438 -11 c 0
 358.280273438 -17 344.280273438 -21 330.280273438 -24 c 0
 316.280273438 -27 301.280273438 -29 287.280273438 -29 c 0
 273.280273438 -29 258.280273438 -27 243.280273438 -22 c 0
 227.280273438 -17 211.280273438 -8 196.280273438 4 c 0
 181.280273438 16 169.280273438 31 159.280273438 49 c 0
 149.280273438 67 143.280273438 91 141.280273438 121 c 0
 141.280273438 129 140.280273438 137 140.280273438 146 c 0
 140.280273438 170 142.280273438 196 147.280273438 224 c 0
 189.280273438 427 220.280273438 564 240.280273438 637 c 0
 244.280273438 653 251.280273438 665 260.280273438 673 c 0
 269.280273438 681 278.280273438 685 287.280273438 685 c 0
 293.280273438 685 297.280273438 684 299.280273438 681 c 0
 301.280273438 678 302.280273438 673 302.280273438 667 c 0
 302.280273438 661 300.280273438 655 299.280273438 648 c 0
 249.280273438 422 220.280273438 285 213.280273438 238 c 0
 209.280273438 214 208.280273438 193 208.280273438 174 c 0
 208.280273438 160 209.280273438 146 211.280273438 131 c 0
 214.280273438 113 221.280273438 97 229.280273438 83 c 0
 237.280273438 69 249.280273438 59 264.280273438 50 c 0
 279.280273438 42 295.280273438 38 315.280273438 38 c 0
 359.280273438 38 398.280273438 54 432.280273438 88 c 0
 466.280273438 122 491.280273438 172 509.280273438 239 c 0
 518.280273438 267 528.280273438 303 537.280273438 345 c 0
 547.280273438 387 556.280273438 426 563.280273438 459 c 0
 586.280273438 566 599.280273438 623 600.280273438 629 c 0
 607.280273438 656 615.280273438 673 623.280273438 679 c 0
 627.280273438 682 630.280273438 685 633.280273438 685 c 0
 636.280273438 685 640.280273438 686 645.280273438 686 c 0
 650.280273438 686 653.280273438 685 655.280273438 684 c 0
 657.280273438 683 660.280273438 680 662.280273438 676 c 0
 664.280273438 672 665.280273438 669 665.280273438 664 c 0
 665.280273438 659 664.280273438 652 663.280273438 645 c 0
 644.280273438 541 614.280273438 410 572.280273438 251 c 0
EndSplineSet
Validated: 524289
EndChar

StartChar: V
Encoding: 86 86 64
Width: 630
GlyphClass: 2
Flags: HMW
VStem: 227.874 64<623 664 631 664>
LayerCount: 2
Fore
SplineSet
677.874023438 674 m 2
 677.874023438 668 l 2
 676.874023438 662 671.874023438 654 664.874023438 645 c 0
 642.874023438 610 590.874023438 512 507.874023438 352 c 1
 430.874023438 193 379.874023438 85 355.874023438 27 c 0
 351.874023438 15 346.874023438 6 339.874023438 -1 c 0
 332.874023438 -8 324.874023438 -12 315.874023438 -12 c 2
 309.874023438 -12 l 2
 299.874023438 -12 291.874023438 -10 286.874023438 -5 c 0
 280.874023438 0 276.874023438 10 275.874023438 24 c 0
 266.874023438 96 255.874023438 204 244.874023438 350 c 0
 233.874023438 494 227.874023438 585 227.874023438 623 c 2
 227.874023438 631 l 2
 227.874023438 672 236.874023438 697 256.874023438 707 c 0
 261.874023438 709 264.874023438 711 268.874023438 711 c 0
 272.874023438 711 276.874023438 709 279.874023438 706 c 0
 286.874023438 700 290.874023438 686 291.874023438 664 c 0
 291.874023438 659 294.874023438 599 300.874023438 486 c 2
 308.874023438 359 l 1
 316.874023438 226 l 2
 319.874023438 184 322.874023438 151 324.874023438 126 c 0
 324.874023438 109 326.874023438 94 327.874023438 82 c 1
 334.874023438 90 340.874023438 102 347.874023438 117 c 0
 383.874023438 192 435.874023438 301 502.874023438 445 c 2
 609.874023438 664 l 2
 619.874023438 685 630.874023438 699 641.874023438 705 c 0
 646.874023438 709 651.874023438 711 656.874023438 711 c 0
 658.874023438 711 661.874023438 710 666.874023438 708 c 0
 669.874023438 704 672.874023438 699 674.874023438 692 c 0
 676.874023438 687 677.874023438 681 677.874023438 674 c 2
EndSplineSet
Validated: 524289
EndChar

StartChar: W
Encoding: 87 87 65
Width: 630
GlyphClass: 2
Flags: HMW
VStem: 618.24 57
LayerCount: 2
Fore
SplineSet
149.240234375 27 m 2
 149.240234375 30 l 1
 149.240234375 30 150.240234375 31 150.240234375 32 c 0
 150.240234375 34 151.240234375 58 154.240234375 105 c 0
 156.240234375 136 160.240234375 168 164.240234375 199 c 0
 174.240234375 276 195.240234375 420 226.240234375 632 c 0
 232.240234375 675 244.240234375 702 264.240234375 711 c 0
 266.240234375 713 271.240234375 714 273.240234375 714 c 2
 275.240234375 714 l 2
 279.240234375 713 282.240234375 710 285.240234375 708 c 0
 287.240234375 707 289.240234375 702 289.240234375 693 c 0
 289.240234375 690 290.240234375 686 290.240234375 681 c 0
 290.240234375 679 289.240234375 676 288.240234375 672 c 0
 279.240234375 633 257.240234375 490 222.240234375 242 c 0
 219.240234375 219 216.240234375 187 211.240234375 147 c 0
 206.240234375 103 202.240234375 75 201.240234375 65 c 1
 208.240234375 55 216.240234375 53 224.240234375 59 c 1
 231.240234375 81 241.240234375 108 251.240234375 140 c 0
 260.240234375 169 281.240234375 237 314.240234375 342 c 2
 314.240234375 342 328.240234375 392 360.240234375 493 c 0
 377.240234375 545 392.240234375 588 404.240234375 622 c 0
 416.240234375 657 424.240234375 678 429.240234375 687 c 0
 436.240234375 703 451.240234375 711 472.240234375 711 c 1
 473.240234375 720 475.240234375 720 476.240234375 712 c 1
 491.240234375 712 498.240234375 703 498.240234375 685 c 0
 498.240234375 668 494.240234375 621 486.240234375 544 c 0
 484.240234375 517 479.240234375 479 473.240234375 428 c 0
 468.240234375 378 464.240234375 340 462.240234375 313 c 0
 457.240234375 273 450.240234375 208 444.240234375 116 c 0
 442.240234375 81 441.240234375 49 439.240234375 18 c 1
 448.240234375 45 457.240234375 75 466.240234375 108 c 0
 496.240234375 204 533.240234375 332 576.240234375 493 c 0
 600.240234375 572 614.240234375 623 618.240234375 645 c 0
 621.240234375 667 628.240234375 684 638.240234375 696 c 0
 647.240234375 707 655.240234375 713 663.240234375 713 c 0
 665.240234375 713 669.240234375 712 670.240234375 711 c 0
 674.240234375 708 675.240234375 697 675.240234375 678 c 0
 675.240234375 670 674.240234375 659 671.240234375 645 c 0
 663.240234375 611 648.240234375 560 626.240234375 491 c 2
 581.240234375 347 l 1
 581.240234375 347 570.240234375 303 543.240234375 217 c 0
 526.240234375 161 513.240234375 118 502.240234375 89 c 0
 491.240234375 59 482.240234375 39 475.240234375 28 c 0
 468.240234375 14 458.240234375 4 447.240234375 -3 c 0
 436.240234375 -8 428.240234375 -11 421.240234375 -11 c 2
 417.240234375 -11 l 1
 415.240234375 -11 l 2
 406.240234375 -11 399.240234375 -8 394.240234375 -3 c 0
 389.240234375 2 387.240234375 12 387.240234375 26 c 2
 387.240234375 30 l 2
 387.240234375 92 394.240234375 175 408.240234375 279 c 2
 426.240234375 411 l 2
 438.240234375 504 446.240234375 566 449.240234375 595 c 1
 442.240234375 605 434.240234375 607 427.240234375 601 c 1
 396.240234375 490 362.240234375 374 326.240234375 255 c 0
 291.240234375 137 266.240234375 61 251.240234375 26 c 0
 248.240234375 15 242.240234375 7 234.240234375 1 c 0
 226.240234375 -4 218.240234375 -8 210.240234375 -9 c 0
 202.240234375 -10 196.240234375 -11 189.240234375 -11 c 0
 178.240234375 -10 168.240234375 -9 160.240234375 -8 c 0
 157.240234375 -6 155.240234375 -4 154.240234375 -2 c 0
 152.240234375 0 151.240234375 4 150.240234375 11 c 0
 149.240234375 16 149.240234375 21 149.240234375 27 c 2
183.240234375 -11 m 1024
EndSplineSet
Validated: 524289
EndChar

StartChar: X
Encoding: 88 88 66
Width: 630
GlyphClass: 2
Flags: HMW
VStem: 259.902 66
LayerCount: 2
Fore
SplineSet
488.90234375 -18 m 0
 481.90234375 -15 475.90234375 -7 469.90234375 5 c 0
 462.90234375 19 453.90234375 41 444.90234375 71 c 0
 435.90234375 100 424.90234375 137 412.90234375 183 c 0
 400.90234375 230 389.90234375 271 380.90234375 305 c 1
 367.90234375 288 l 2
 342.90234375 255 302.90234375 200 249.90234375 123 c 0
 193.90234375 48 162.90234375 7 155.90234375 0 c 0
 146.90234375 -11 138.90234375 -18 131.90234375 -21 c 0
 127.90234375 -23 123.90234375 -24 121.90234375 -24 c 0
 116.90234375 -24 112.90234375 -19 107.90234375 -9 c 0
 104.90234375 -3 102.90234375 4 102.90234375 11 c 0
 102.90234375 18 109.90234375 31 121.90234375 48 c 0
 128.90234375 56 164.90234375 98 228.90234375 175 c 1
 288.90234375 255 331.90234375 315 360.90234375 357 c 1
 264.90234375 627 l 2
 261.90234375 635 259.90234375 642 259.90234375 649 c 0
 259.90234375 667 265.90234375 682 276.90234375 693 c 0
 284.90234375 702 292.90234375 706 300.90234375 706 c 0
 302.90234375 706 306.90234375 704 310.90234375 702 c 0
 316.90234375 698 321.90234375 690 325.90234375 679 c 0
 338.90234375 651 365.90234375 567 407.90234375 427 c 2
 414.90234375 405 l 1
 427.90234375 424 l 2
 525.90234375 568 587.90234375 654 613.90234375 683 c 0
 621.90234375 694 629.90234375 701 637.90234375 705 c 0
 642.90234375 707 647.90234375 709 651.90234375 709 c 0
 656.90234375 709 660.90234375 707 664.90234375 700 c 0
 666.90234375 695 669.90234375 689 669.90234375 683 c 0
 669.90234375 682 670.90234375 679 670.90234375 676 c 2
 667.90234375 667 l 2
 665.90234375 661 661.90234375 655 654.90234375 648 c 2
 560.90234375 532 l 1
 501.90234375 450 462.90234375 395 441.90234375 364 c 0
 439.90234375 362 436.90234375 358 432.90234375 351 c 1
 442.90234375 321 458.90234375 269 479.90234375 195 c 0
 500.90234375 121 515.90234375 75 524.90234375 55 c 0
 529.90234375 45 531.90234375 36 531.90234375 28 c 0
 531.90234375 22 530.90234375 16 529.90234375 11 c 0
 528.90234375 6 525.90234375 1 521.90234375 -5 c 0
 513.90234375 -16 505.90234375 -22 498.90234375 -22 c 0
 496.90234375 -22 492.90234375 -20 488.90234375 -18 c 0
EndSplineSet
Validated: 524289
EndChar

StartChar: Y
Encoding: 89 89 67
Width: 630
GlyphClass: 2
Flags: HMW
VStem: 230.756 76<613 653.5 626 653.5>
LayerCount: 2
Fore
SplineSet
653.755859375 623 m 0
 648.755859375 615 639.755859375 601.999023438 626.755859375 582.999023438 c 0
 613.755859375 563.999023438 601.755859375 546.999023438 593.755859375 533.999023438 c 0
 585.755859375 520.999023438 568.755859375 496.999023438 543.755859375 461.999023438 c 0
 521.755859375 426.999023438 501.755859375 396.999023438 487.755859375 374.999023438 c 0
 455.713867188 324.647460938 420.103515625 298.091796875 391.755859375 209 c 0
 370.755859375 143 375.576171875 95.607421875 327.755859375 -17 c 0
 322.659179688 -29.0009765625 301.755859375 -35 290.755859375 -38 c 0
 288.755859375 -38 284.755859375 -39 282.755859375 -39 c 0
 277.755859375 -39 272.755859375 -37 267.755859375 -33 c 0
 262.755859375 -28 258.755859375 -21 258.755859375 -13 c 0
 258.755859375 -10 260.755859375 -6 260.755859375 -4 c 0
 261.755859375 3 267.061523438 8.7080078125 270.755859375 18 c 0
 303.755859375 101 270.755859375 18 334.755859375 231 c 1
 328.755859375 258 320.755859375 291 309.755859375 329 c 0
 298.755859375 367 291.755859375 393 287.755859375 407 c 0
 283.755859375 421 276.755859375 443 266.755859375 475 c 0
 257.755859375 504 249.755859375 530 243.755859375 551 c 0
 237.755859375 572 232.755859375 593 230.755859375 613 c 2
 230.755859375 626 l 2
 230.755859375 634 231.755859375 641 233.755859375 647 c 0
 236.755859375 657 241.755859375 665 246.755859375 670 c 0
 251.755859375 675 256.755859375 680 263.755859375 682 c 0
 269.755859375 684 274.755859375 686 279.755859375 686 c 0
 283.755859375 686 287.755859375 685 291.755859375 684 c 0
 295.755859375 683 298.755859375 679 300.755859375 673 c 0
 302.755859375 667 306.755859375 659 306.755859375 648 c 0
 307.755859375 625 310.755859375 600 314.755859375 573 c 0
 315.755859375 564 317.755859375 552 321.755859375 536 c 0
 325.755859375 520 328.755859375 510 329.755859375 506 c 0
 340.755859375 464 347.755859375 442 347.755859375 442 c 2
 358.755859375 403 366.755859375 365 372.755859375 328 c 0
 373.755859375 311 375.755859375 301 376.755859375 300 c 0
 381.755859375 300 387.755859375 308 392.755859375 323 c 0
 394.755859375 327 403.755859375 340 416.755859375 362 c 0
 429.755859375 384 451.755859375 418 480.755859375 465 c 0
 509.755859375 512 530.755859375 548 545.755859375 574 c 0
 550.755859375 583 558.755859375 595 569.755859375 611 c 0
 581.755859375 627 591.755859375 640 596.755859375 649 c 0
 602.755859375 660 608.755859375 668 614.755859375 675 c 0
 620.755859375 682 626.755859375 686 631.755859375 688 c 0
 641.755859375 692 649.755859375 692 656.755859375 689 c 0
 658.755859375 687 662.755859375 684 664.755859375 682 c 0
 667.755859375 677 668.755859375 670 668.755859375 663 c 0
 668.755859375 661 668.755859375 656 667.755859375 651 c 0
 665.755859375 642 659.755859375 633 653.755859375 623 c 0
EndSplineSet
Validated: 524289
EndChar

StartChar: Z
Encoding: 90 90 68
Width: 630
GlyphClass: 2
Flags: HMW
HStem: 9 63 627 69<275.856 322.356 279.356 322.356> 629 55
LayerCount: 2
Fore
SplineSet
530.35546875 40 m 2xa0
 528.35546875 29 523.35546875 21 516.35546875 14 c 0
 509.35546875 7 500.35546875 3 486.35546875 3 c 0
 483.35546875 3 450.35546875 4 390.35546875 6 c 0
 330.35546875 8 274.35546875 9 221.35546875 9 c 0
 198.35546875 9 168.35546875 8 129.35546875 7 c 2
 128.35546875 7 l 2
 126.35546875 7 122.35546875 8 121.35546875 9 c 0
 120.35546875 10 117.35546875 15 115.35546875 20 c 0
 113.35546875 25 113.35546875 31 113.35546875 36 c 2
 113.35546875 49 l 2
 114.35546875 55 120.35546875 66 129.35546875 81 c 0
 138.35546875 96 153.35546875 117 174.35546875 144 c 0
 202.35546875 181 260.35546875 256 350.35546875 368 c 0
 439.35546875 480 507.35546875 561 551.35546875 612 c 2
 571.35546875 634 l 1
 522.35546875 632 467.35546875 630 405.35546875 629 c 0
 343.35546875 628 301.35546875 627 280.35546875 627 c 2xc0
 279.35546875 627 l 2
 272.35546875 627 266.35546875 628 265.35546875 632 c 0
 264.35546875 636 262.35546875 640 262.35546875 644 c 0
 262.35546875 648 263.35546875 651 263.35546875 655 c 0
 265.35546875 664 272.35546875 674 282.35546875 683 c 0
 292.35546875 692 304.35546875 696 316.35546875 696 c 0
 328.35546875 696 345.35546875 694 366.35546875 690 c 0
 387.35546875 686 406.35546875 684 421.35546875 684 c 2
 438.35546875 684 l 2
 477.35546875 684 528.35546875 686 592.35546875 691 c 0
 630.35546875 693 651.35546875 695 651.35546875 695 c 2
 653.35546875 695 656.35546875 694 657.35546875 693 c 0
 658.35546875 692 660.35546875 689 661.35546875 687 c 0
 663.35546875 682 666.35546875 676 666.35546875 670 c 0
 666.35546875 667 664.35546875 663 664.35546875 658 c 0
 662.35546875 654 658.35546875 648 649.35546875 639 c 0
 640.35546875 630 627.35546875 618 613.35546875 605 c 0
 599.35546875 592 590.35546875 581 583.35546875 573 c 0
 556.35546875 540 517.35546875 493 467.35546875 431 c 0
 417.35546875 369 368.35546875 308 320.35546875 247 c 0
 272.35546875 186 230.35546875 131 197.35546875 84 c 2
 182.35546875 63 l 1
 209.35546875 65 l 2
 278.35546875 70 341.35546875 72 400.35546875 72 c 0
 447.35546875 72 482.35546875 70 504.35546875 66 c 0
 516.35546875 64 524.35546875 60 528.35546875 55 c 0
 530.35546875 53 530.35546875 50 530.35546875 46 c 2
 530.35546875 40 l 2xa0
EndSplineSet
Validated: 524289
EndChar

StartChar: bracketleft
Encoding: 91 91 69
Width: 630
GlyphClass: 2
Flags: HMW
HStem: -69 47 773 64<612.292 614.292>
LayerCount: 2
Fore
SplineSet
536.291992188 837 m 1
 607.291992188 837 l 2
 621.291992188 837 629.291992188 838 629.291992188 838 c 2
 638.291992188 838 644.291992188 837 646.291992188 833 c 0
 648.291992188 829 649.291992188 824 649.291992188 819 c 2
 649.291992188 812 l 2
 648.291992188 807 645.291992188 803 643.291992188 798 c 0
 637.291992188 786 630.291992188 778 621.291992188 775 c 0
 618.291992188 774 615.291992188 773 613.291992188 773 c 0
 611.291992188 773 608.291992188 774 607.291992188 774 c 0
 584.291992188 778 546.291992188 780 494.291992188 780 c 0
 471.291992188 780 441.291992188 779 406.291992188 778 c 1
 401.291992188 758 392.291992188 719 377.291992188 661 c 0
 362.291992188 603 350.291992188 555 340.291992188 516 c 0
 330.291992188 477 319.291992188 431 307.291992188 377 c 0
 300.291992188 337 284.291992188 268 260.291992188 170 c 0
 236.291992188 72 221.291992188 8 214.291992188 -22 c 1
 257.291992188 -22 l 2
 287.291992188 -22 323.291992188 -21 365.291992188 -20 c 0
 407.291992188 -19 430.291992188 -17 435.291992188 -17 c 0
 445.291992188 -17 451.291992188 -19 453.291992188 -21 c 0
 455.291992188 -25 455.291992188 -31 454.291992188 -39 c 0
 452.291992188 -49 448.291992188 -58 442.291992188 -65 c 0
 440.291992188 -68 436.291992188 -71 433.291992188 -72 c 0
 430.291992188 -73 427.291992188 -74 425.291992188 -74 c 0
 423.291992188 -74 420.291992188 -73 418.291992188 -73 c 0
 403.291992188 -71 383.291992188 -70 358.291992188 -70 c 0
 356.291992188 -70 348.291992188 -69 337.291992188 -69 c 0
 326.291992188 -69 311.291992188 -70 294.291992188 -71 c 0
 231.291992188 -75 188.291992188 -77 166.291992188 -77 c 0
 153.291992188 -77 145.291992188 -74 141.291992188 -70 c 0
 139.291992188 -68 138.291992188 -65 138.291992188 -61 c 0
 138.291992188 -55 140.291992188 -47 145.291992188 -37 c 1
 145.291992188 -36 l 1
 148.291992188 -27 l 2
 159.291992188 8 176.291992188 71 198.291992188 161 c 0
 220.291992188 251 241.291992188 341 260.291992188 431 c 0
 263.291992188 452 268.291992188 474 274.291992188 500 c 0
 280.291992188 526 292.291992188 579 312.291992188 660 c 0
 317.291992188 681 322.291992188 703 329.291992188 729 c 0
 336.291992188 755 340.291992188 772 342.291992188 781 c 2
 343.291992188 784 l 2
 343.291992188 788 342.291992188 791 342.291992188 793 c 0
 342.291992188 805 347.291992188 815 357.291992188 824 c 0
 364.291992188 831 375.291992188 835 388.291992188 835 c 0
 432.291992188 836 473.291992188 837 509.291992188 837 c 2
 536.291992188 837 l 1
EndSplineSet
Validated: 524289
EndChar

StartChar: backslash
Encoding: 92 92 70
Width: 630
GlyphClass: 2
Flags: HMW
VStem: 452.443 71<4.29497e+09 4.29497e+09>
LayerCount: 2
Fore
SplineSet
475.442382812 -45 m 0
 464.442382812 -39 457.442382812 -29 452.442382812 -14 c 0
 450.442382812 -3 442.442382812 27 431.442382812 76 c 0
 420.442382812 125 412.442382812 160 407.442382812 181 c 0
 398.442382812 214 371.442382812 296 328.442382812 429 c 0
 285.442382812 562 259.442382812 645 251.442382812 679 c 0
 250.442382812 684 249.442382812 689 249.442382812 694 c 0
 249.442382812 702 251.442382812 709 253.442382812 715 c 0
 258.442382812 724 265.442382812 731 275.442382812 736 c 0
 283.442382812 739 290.442382812 741 297.442382812 741 c 0
 302.442382812 741 308.442382812 739 312.442382812 735 c 0
 316.442382812 731 319.442382812 726 321.442382812 718 c 0
 344.442382812 621 368.442382812 535 390.442382812 458 c 0
 425.442382812 333 470.442382812 190 524.442382812 30 c 0
 526.442382812 24 527.442382812 17 527.442382812 10 c 0
 527.442382812 3 525.442382812 -6 523.442382812 -15 c 0
 518.442382812 -31 511.442382812 -41 503.442382812 -45 c 0
 498.442382812 -47 494.442382812 -49 489.442382812 -49 c 0
 484.442382812 -49 480.442382812 -47 475.442382812 -45 c 0
EndSplineSet
Validated: 524289
EndChar

StartChar: bracketright
Encoding: 93 93 71
Width: 630
GlyphClass: 2
Flags: HMW
HStem: -69 49 780 57<473.595 488.095>
LayerCount: 2
Fore
SplineSet
500.594726562 837 m 2
 537.594726562 837 577.594726562 836 619.594726562 835 c 0
 631.594726562 835 639.594726562 832 642.594726562 827 c 0
 644.594726562 824 646.594726562 820 646.594726562 816 c 0
 646.594726562 812 645.594726562 809 645.594726562 806 c 0
 643.594726562 801 641.594726562 796 639.594726562 792 c 2
 637.594726562 789 l 1
 637.594726562 787 l 1
 635.594726562 781 l 1
 635.594726562 780 l 2
 635.594726562 775 630.594726562 760 625.594726562 735 c 2
 595.594726562 591 l 2
 583.594726562 535 570.594726562 483 557.594726562 436 c 0
 535.594726562 346 514.594726562 256 494.594726562 166 c 0
 474.594726562 76 462.594726562 14 457.594726562 -21 c 2
 455.594726562 -30 l 1
 455.594726562 -32 l 2
 455.594726562 -39 454.594726562 -45 453.594726562 -50 c 0
 452.594726562 -58 447.594726562 -64 440.594726562 -69 c 0
 433.594726562 -74 423.594726562 -77 410.594726562 -77 c 0
 388.594726562 -77 346.594726562 -74 285.594726562 -71 c 0
 267.594726562 -71 246.594726562 -69 223.594726562 -69 c 0
 200.594726562 -69 180.594726562 -71 160.594726562 -73 c 0
 157.594726562 -73 153.594726562 -74 152.594726562 -74 c 0
 147.594726562 -74 143.594726562 -72 142.594726562 -70 c 0
 141.594726562 -63 141.594726562 -55 143.594726562 -44 c 0
 145.594726562 -35 150.594726562 -29 155.594726562 -24 c 0
 160.594726562 -19 169.594726562 -17 180.594726562 -17 c 0
 184.594726562 -17 206.594726562 -19 248.594726562 -20 c 0
 290.594726562 -21 325.594726562 -22 355.594726562 -22 c 2
 392.594726562 -22 l 1
 398.594726562 4 412.594726562 67 433.594726562 165 c 0
 454.594726562 263 470.594726562 331 481.594726562 371 c 1
 481.594726562 372 l 1
 494.594726562 425 506.594726562 472 514.594726562 511 c 0
 522.594726562 550 540.594726562 639 569.594726562 778 c 1
 530.594726562 779 499.594726562 780 476.594726562 780 c 0
 426.594726562 780 389.594726562 778 363.594726562 774 c 0
 361.594726562 774 357.594726562 773 355.594726562 773 c 0
 353.594726562 773 350.594726562 773 348.594726562 774 c 0
 346.594726562 775 344.594726562 778 344.594726562 780 c 0
 341.594726562 789 340.594726562 798 342.594726562 807 c 0
 344.594726562 816 348.594726562 823 355.594726562 830 c 0
 361.594726562 835 369.594726562 838 380.594726562 838 c 2
 381.594726562 838 l 2
 409.594726562 838 440.594726562 837 473.594726562 837 c 2
 500.594726562 837 l 2
EndSplineSet
Validated: 524289
EndChar

StartChar: asciicircum
Encoding: 94 94 72
Width: 630
GlyphClass: 2
Flags: HMW
HStem: 607 326<238.613 521.113>
LayerCount: 2
Fore
SplineSet
631.112304688 614 m 0
 626.112304688 619 617.112304688 630 605.112304688 648 c 0
 603.112304688 650 599.112304688 654 597.112304688 658 c 0
 570.112304688 698 553.112304688 726 543.112304688 743 c 0
 533.112304688 760 521.112304688 787 504.112304688 824 c 2
 495.112304688 841 l 1
 483.112304688 828 l 2
 461.112304688 803 442.112304688 783 425.112304688 767 c 0
 408.112304688 751 395.112304688 739 385.112304688 731 c 0
 375.112304688 723 362.112304688 713 346.112304688 699 c 0
 330.112304688 685 314.112304688 670 296.112304688 653 c 0
 293.112304688 651 288.112304688 647 283.112304688 642 c 0
 265.112304688 625 252.112304688 615 245.112304688 610 c 0
 243.112304688 608 240.112304688 607 239.112304688 607 c 0
 238.112304688 607 237.112304688 609 235.112304688 609 c 0
 228.112304688 613 222.112304688 620 219.112304688 631 c 0
 219.112304688 632 218.112304688 634 218.112304688 636 c 0
 218.112304688 647 226.112304688 659 238.112304688 672 c 0
 253.112304688 689 274.112304688 709 300.112304688 734 c 0
 326.112304688 759 355.112304688 786 387.112304688 817 c 0
 419.112304688 848 451.112304688 882 484.112304688 918 c 0
 490.112304688 925 498.112304688 929 507.112304688 931 c 0
 511.112304688 932 515.112304688 933 519.112304688 933 c 0
 523.112304688 933 527.112304688 932 531.112304688 931 c 0
 536.112304688 929 541.112304688 926 542.112304688 922 c 2
 542.112304688 921 l 1
 558.112304688 886 572.112304688 857 584.112304688 834 c 0
 596.112304688 811 605.112304688 794 612.112304688 783 c 0
 619.112304688 772 629.112304688 756 642.112304688 735 c 0
 655.112304688 714 667.112304688 696 678.112304688 679 c 0
 681.112304688 674 683.112304688 668 683.112304688 663 c 0
 683.112304688 655 680.112304688 648 675.112304688 642 c 0
 665.112304688 629 654.112304688 621 642.112304688 616 c 0
 639.112304688 614 636.112304688 613 635.112304688 613 c 0
 634.112304688 613 632.112304688 614 631.112304688 614 c 0
EndSplineSet
Validated: 524289
EndChar

StartChar: underscore
Encoding: 95 95 73
Width: 630
GlyphClass: 2
Flags: HMW
HStem: -87 60<98.0017 119.502>
LayerCount: 2
Fore
SplineSet
81.5029296875 -72 m 0
 81.5029296875 -68 82.5029296875 -64 83.5029296875 -59 c 0
 85.5029296875 -49 88.5029296875 -41 93.5029296875 -36 c 0
 98.5029296875 -30 106.502929688 -27 117.502929688 -27 c 2
 119.502929688 -27 l 2
 176.502929688 -28 224.502929688 -29 264.502929688 -29 c 0
 304.502929688 -29 353.502929688 -28 414.502929688 -27 c 0
 463.502929688 -27 492.502929688 -25 503.502929688 -25 c 0
 514.502929688 -25 520.502929688 -27 521.502929688 -30 c 0
 523.502929688 -35 524.502929688 -42 523.502929688 -51 c 0
 521.502929688 -62 516.502929688 -70 511.502929688 -75 c 0
 504.502929688 -82 495.502929688 -85 484.502929688 -85 c 0
 255.502929688 -86 128.502929688 -87 101.502929688 -87 c 0
 94.5029296875 -87 89.5029296875 -86 86.5029296875 -84 c 0
 83.5029296875 -82 81.5029296875 -78 81.5029296875 -72 c 0
EndSplineSet
Validated: 524289
EndChar

StartChar: grave
Encoding: 96 96 74
Width: 630
GlyphClass: 2
Flags: HMW
HStem: 636 161<418.38 518.38>
LayerCount: 2
Fore
SplineSet
517.379882812 636 m 0
 509.379882812 636 501.379882812 639 492.379882812 644 c 0
 463.379882812 665 444.379882812 678 437.379882812 683 c 0
 430.379882812 688 421.379882812 695 410.379882812 704 c 0
 399.379882812 713 389.379882812 721 382.379882812 728 c 0
 377.379882812 734 374.379882812 743 374.379882812 754 c 0
 374.379882812 763 377.379882812 772 382.379882812 781 c 0
 389.379882812 788 399.379882812 794 410.379882812 796 c 0
 413.379882812 796 417.379882812 797 419.379882812 797 c 0
 425.379882812 797 430.379882812 796 435.379882812 792 c 0
 437.379882812 790 453.379882812 773 482.379882812 742 c 0
 487.379882812 736 495.379882812 729 505.379882812 720 c 0
 515.379882812 711 525.379882812 703 533.379882812 698 c 0
 543.379882812 692 549.379882812 684 551.379882812 673 c 0
 551.379882812 670 552.379882812 666 552.379882812 664 c 0
 552.379882812 658 549.379882812 653 546.379882812 649 c 0
 541.379882812 642 533.379882812 638 523.379882812 637 c 0
 521.379882812 637 519.379882812 636 517.379882812 636 c 0
EndSplineSet
Validated: 524289
EndChar

StartChar: a
Encoding: 97 97 75
Width: 630
GlyphClass: 2
Flags: HMW
HStem: -28 69 438 72
VStem: 445.886 51
LayerCount: 2
Fore
SplineSet
283.885742188 450 m 0
 308.885742188 471 343.885742188 486.999023438 386.885742188 499.999023438 c 0
 407.885742188 505.999023438 429.885742188 509.999023438 452.885742188 509.999023438 c 2
 460.885742188 509.999023438 l 2
 512.885742188 508.999023438 544.885742188 492.999023438 554.885742188 464.999023438 c 0
 562.086914062 444.74609375 565.641601562 420.64453125 565.641601562 392.51171875 c 0
 565.641601562 358.13671875 560.333984375 317.743164062 549.885742188 270.999023438 c 0
 549.885742188 268.999023438 547.885742188 260.999023438 544.885742188 247.999023438 c 0
 541.885742188 234.999023438 536.885742188 212.999023438 528.885742188 182.999023438 c 0
 520.885742188 152.999023438 517.885742188 136.999023438 517.885742188 135.999023438 c 0
 513.885742188 118.999023438 508.885742188 86.9990234375 502.885742188 36.9990234375 c 0
 501.885742188 21.9990234375 498.885742188 8.9990234375 496.885742188 -2.0009765625 c 0
 491.885742188 -26.0009765625 484.885742188 -38.0009765625 476.885742188 -38.0009765625 c 0
 455.885742188 -38.0009765625 445.885742188 -34.0009765625 445.885742188 -25.0009765625 c 0
 444.713867188 -7.427734375 444.228515625 12.205078125 444.228515625 34.09765625 c 0
 444.228515625 49.578125 444.470703125 66.1884765625 444.884765625 84 c 1
 437.884765625 71 432.884765625 64 428.884765625 64 c 0
 400.884765625 29 375.884765625 5 352.884765625 -10 c 0
 333.884765625 -22 306.884765625 -28 269.884765625 -28 c 0
 253.884765625 -28 236.884765625 -23 218.884765625 -12 c 0
 199.884765625 -1 184.884765625 17 173.884765625 40 c 0
 162.884765625 63 157.884765625 87 155.884765625 111 c 1
 159.884765625 128 165.884765625 146 173.884765625 165 c 0
 182.884765625 186 194.884765625 203 210.884765625 217 c 0
 233.884765625 238 249.884765625 251 257.884765625 255 c 0
 292.884765625 273 312.884765625 284 317.884765625 285 c 0
 359.884765625 298 382.884765625 306 387.884765625 307 c 0
 416.884765625 311 434.884765625 314 442.884765625 316 c 0
 445.884765625 317 463.884765625 323 495.884765625 335 c 0
 496.884765625 339 498.884765625 340 498.884765625 340 c 2
 501.884765625 346 503.884765625 353 504.884765625 359 c 0
 505.884765625 365 507.884765625 370 507.884765625 376 c 0
 507.884765625 382 506.884765625 389 502.884765625 398 c 0
 497.884765625 410 489.884765625 419 480.884765625 425 c 0
 473.884765625 431 459.884765625 436 440.884765625 437 c 0
 437.884765625 437 434.884765625 438 431.884765625 438 c 0
 418.884765625 438 405.884765625 435 389.884765625 430 c 0
 373.884765625 425 360.884765625 417 348.884765625 409 c 0
 326.884765625 395 309.884765625 383 298.884765625 373 c 0
 278.884765625 352 263.884765625 340 250.884765625 340 c 0
 244.884765625 340 238.884765625 343 233.884765625 348 c 0
 226.650390625 354.430664062 223.29296875 361.5078125 223.29296875 369.75 c 0
 223.29296875 371.76171875 223.493164062 373.842773438 223.885742188 376 c 0
 225.885742188 387 234.885742188 401 246.885742188 415 c 0
 257.885742188 428 269.885742188 439 283.885742188 450 c 0
372.885742188 67.9990234375 m 0
 385.885742188 77.9990234375 397.885742188 89.9990234375 408.885742188 103.999023438 c 0
 420.885742188 117.999023438 432.885742188 135.999023438 443.885742188 156.999023438 c 0
 454.885742188 177.999023438 464.885742188 200.999023438 471.885742188 225.999023438 c 2
 474.885742188 236.999023438 l 1
 463.885742188 235.999023438 l 2
 348.885742188 224.999023438 269.885742188 191.999023438 226.885742188 136.999023438 c 1
 223.885742188 131.999023438 l 1
 224.885742188 126.999023438 l 2
 232.885742188 94.9990234375 242.885742188 72.9990234375 256.885742188 59.9990234375 c 0
 268.885742188 46.9990234375 283.885742188 40.9990234375 302.885742188 40.9990234375 c 0
 324.885742188 40.9990234375 348.885742188 48.9990234375 372.885742188 67.9990234375 c 0
EndSplineSet
Validated: 524289
EndChar

StartChar: b
Encoding: 98 98 76
Width: 630
GlyphClass: 2
Flags: HMW
HStem: -14 74<308.521 331.021> 425 65<374.521 449.021>
VStem: 140.521 60 489.521 69<295.5 370.5>
LayerCount: 2
Fore
SplineSet
547.521484375 263 m 0
 540.521484375 227 529.521484375 194 516.521484375 164 c 0
 503.521484375 134 487.521484375 107 471.521484375 86 c 0
 455.521484375 65 438.521484375 46 421.521484375 31 c 0
 404.521484375 16 388.521484375 4 371.521484375 -3 c 0
 354.521484375 -10 338.521484375 -14 323.521484375 -14 c 0
 281.521484375 -14 246.521484375 2 220.521484375 31 c 1
 215.521484375 29 211.521484375 34 206.521484375 47 c 1
 204.521484375 32 202.521484375 26 200.521484375 26 c 0
 195.521484375 12 190.521484375 2 183.521484375 -3 c 0
 176.521484375 -8 168.521484375 -11 159.521484375 -11 c 0
 152.521484375 -11 146.521484375 -9 144.521484375 -6 c 0
 142.521484375 -3 140.521484375 2 140.521484375 8 c 0
 140.521484375 14 141.521484375 22 143.521484375 30 c 0
 161.521484375 115 188.521484375 237 224.521484375 396 c 0
 259.521484375 555 282.521484375 663 295.521484375 722 c 0
 299.521484375 741 304.521484375 753 310.521484375 759 c 0
 316.521484375 765 324.521484375 768 334.521484375 768 c 0
 340.521484375 768 345.521484375 766 348.521484375 761 c 0
 350.521484375 759 351.521484375 754 351.521484375 748 c 0
 351.521484375 742 350.521484375 733 348.521484375 723 c 0
 341.521484375 698 334.521484375 666 327.521484375 624 c 0
 314.521484375 564 301.521484375 499 288.521484375 428 c 1
 296.521484375 437 304.521484375 443 311.521484375 445 c 0
 348.521484375 475 389.521484375 490 432.521484375 490 c 0
 465.521484375 490 493.521484375 480 514.521484375 461 c 0
 543.521484375 436 558.521484375 397 558.521484375 344 c 0
 558.521484375 319 554.521484375 292 547.521484375 263 c 0
457.521484375 397 m 0
 440.521484375 416 418.521484375 425 392.521484375 425 c 0
 356.521484375 425 319.521484375 408 280.521484375 374 c 2
 277.521484375 371 l 1
 260.521484375 288 239.521484375 201 217.521484375 109 c 1
 220.521484375 105 l 2
 231.521484375 88 245.521484375 77 263.521484375 70 c 0
 278.521484375 63 297.521484375 60 319.521484375 60 c 0
 359.521484375 60 392.521484375 78 420.521484375 113 c 0
 449.521484375 147 470.521484375 193 483.521484375 251 c 0
 487.521484375 269 489.521484375 287 489.521484375 304 c 0
 489.521484375 344 478.521484375 375 457.521484375 397 c 0
EndSplineSet
Validated: 524289
EndChar

StartChar: c
Encoding: 99 99 77
Width: 630
GlyphClass: 2
Flags: HMW
HStem: -31 68<288.941 335.941> 458 69<426.941 482.941>
VStem: 176.941 70<123.5 126.5> 486.941 70<358.5 405>
LayerCount: 2
Fore
SplineSet
532.94140625 492 m 0
 549.94140625 468 556.94140625 440 556.94140625 407 c 2
 556.94140625 405 l 2
 556.94140625 389 554.94140625 376 549.94140625 365 c 0
 543.94140625 352 533.94140625 343 520.94140625 337 c 0
 514.94140625 335 509.94140625 333 504.94140625 333 c 0
 501.94140625 333 497.94140625 334 495.94140625 335 c 0
 493.94140625 335 491.94140625 338 489.94140625 343 c 0
 487.94140625 348 486.94140625 354 486.94140625 363 c 0
 486.94140625 366 484.94140625 377 484.94140625 397 c 0
 484.94140625 402 484.94140625 408 483.94140625 415 c 0
 482.94140625 422 480.94140625 428 478.94140625 432 c 0
 476.94140625 436 472.94140625 440 468.94140625 444 c 0
 460.94140625 453 448.94140625 458 431.94140625 458 c 0
 421.94140625 458 411.94140625 456 400.94140625 451 c 0
 389.94140625 446 377.94140625 438 364.94140625 426 c 0
 351.94140625 414 339.94140625 399 327.94140625 382 c 0
 315.94140625 365 303.94140625 343 292.94140625 315 c 0
 279.94140625 287 268.94140625 256 259.94140625 221 c 0
 250.94140625 189 246.94140625 161 246.94140625 137 c 0
 246.94140625 110 252.94140625 88 263.94140625 71 c 0
 278.94140625 50 299.94140625 39 326.94140625 37 c 2
 335.94140625 37 l 2
 358.94140625 37 379.94140625 42 397.94140625 52 c 0
 418.94140625 64 433.94140625 78 440.94140625 93 c 0
 446.94140625 104 452.94140625 112 458.94140625 118 c 0
 464.94140625 124 467.94140625 128 471.94140625 129 c 0
 475.94140625 130 479.94140625 131 482.94140625 131 c 0
 485.94140625 131 488.94140625 129 493.94140625 127 c 0
 496.94140625 125 499.94140625 122 501.94140625 120 c 0
 503.94140625 118 504.94140625 114 504.94140625 110 c 0
 504.94140625 100 499.94140625 86 488.94140625 69 c 0
 473.94140625 44 449.94140625 22 418.94140625 2 c 0
 403.94140625 -9 385.94140625 -17 365.94140625 -23 c 0
 345.94140625 -28 323.94140625 -31 301.94140625 -31 c 0
 275.94140625 -31 253.94140625 -26 233.94140625 -14 c 0
 215.94140625 -3 202.94140625 12 193.94140625 32 c 0
 182.94140625 57 176.94140625 85 176.94140625 116 c 0
 176.94140625 137 179.94140625 158 184.94140625 180 c 0
 195.94140625 227 209.94140625 269 226.94140625 308 c 0
 243.94140625 347 262.94140625 379 283.94140625 406 c 0
 303.94140625 433 322.94140625 455 342.94140625 474 c 0
 381.94140625 509 423.94140625 527 469.94140625 527 c 0
 495.94140625 527 516.94140625 515 532.94140625 492 c 0
EndSplineSet
Validated: 524289
EndChar

StartChar: d
Encoding: 100 100 78
Width: 630
GlyphClass: 2
Flags: HMW
HStem: -14 76<292.948 327.948> 436 75<399.948 403.948 399.948 399.948>
VStem: 172.948 62<171 182> 443.948 65<20.5 50>
LayerCount: 2
Fore
SplineSet
355.948242188 65 m 0
 364.948242188 67 372.948242188 71 379.948242188 74 c 0
 386.948242188 77 392.948242188 81 399.948242188 87 c 0
 406.948242188 93 411.948242188 99 416.948242188 103 c 0
 421.948242188 107 426.948242188 113 432.948242188 121 c 0
 438.948242188 129 444.948242188 135 446.948242188 139 c 0
 448.948242188 143 451.948242188 147 454.948242188 152 c 0
 457.948242188 157 460.948242188 162 462.948242188 164 c 0
 475.948242188 226 482.948242188 261 484.948242188 268 c 0
 485.948242188 275 487.948242188 286 491.948242188 301 c 0
 495.948242188 316 497.948242188 329 499.948242188 338 c 1
 498.948242188 341 l 2
 491.948242188 368 480.948242188 391 463.948242188 409 c 0
 446.948242188 427 426.948242188 436 403.948242188 436 c 2
 399.948242188 436 l 2
 375.948242188 435 352.948242188 426 331.948242188 410 c 0
 310.948242188 394 294.948242188 373 279.948242188 348 c 0
 264.948242188 323 252.948242188 296 245.948242188 267 c 0
 237.948242188 235 234.948242188 207 234.948242188 183 c 0
 234.948242188 159 236.948242188 137 243.948242188 120 c 0
 251.948242188 99 265.948242188 83 282.948242188 74 c 0
 295.948242188 66 309.948242188 62 326.948242188 62 c 2
 327.948242188 62 l 2
 336.948242188 62 346.948242188 63 355.948242188 65 c 0
172.948242188 166 m 0
 172.948242188 198 176.948242188 233 185.948242188 271 c 0
 194.948242188 316 211.948242188 358 233.948242188 394 c 0
 255.948242188 430 281.948242188 458 312.948242188 479 c 0
 341.948242188 500 373.948242188 511 405.948242188 511 c 0
 449.948242188 511 485.948242188 498 510.948242188 472 c 1
 515.948242188 475 519.948242188 471 524.948242188 458 c 1
 555.948242188 595 577.948242188 681 588.948242188 716 c 0
 593.948242188 733 600.948242188 745 607.948242188 754 c 0
 616.948242188 764 625.948242188 769 637.948242188 769 c 0
 644.948242188 769 651.948242188 766 653.948242188 761 c 0
 654.948242188 760 655.948242188 757 655.948242188 753 c 0
 655.948242188 746 652.948242188 736 649.948242188 723 c 0
 638.948242188 681 619.948242188 606 591.948242188 495 c 0
 563.948242188 384 544.948242188 299 531.948242188 242 c 1
 531.948242188 241 l 1
 524.948242188 202 518.948242188 168 514.948242188 139 c 0
 510.948242188 110 509.948242188 89 509.948242188 77 c 0
 509.948242188 65 508.948242188 54 508.948242188 46 c 0
 508.948242188 38 507.948242188 32 505.948242188 27 c 0
 501.948242188 16 496.948242188 8 489.948242188 2 c 0
 484.948242188 -3 477.948242188 -7 468.948242188 -9 c 0
 465.948242188 -9 460.948242188 -10 458.948242188 -10 c 0
 456.948242188 -10 453.948242188 -9 451.948242188 -8 c 0
 449.948242188 -7 448.948242188 -4 447.948242188 -1 c 0
 445.948242188 6 443.948242188 15 443.948242188 26 c 0
 443.948242188 34 444.948242188 43 445.948242188 52 c 0
 446.948242188 60 448.948242188 74 450.948242188 95 c 1
 442.948242188 78 434.948242188 67 426.948242188 62 c 0
 418.948242188 51 410.948242188 42 402.948242188 34 c 0
 394.948242188 26 385.948242188 17 374.948242188 10 c 0
 353.948242188 -6 329.948242188 -14 300.948242188 -14 c 0
 284.948242188 -14 268.948242188 -10 253.948242188 -3 c 0
 238.948242188 4 223.948242188 15 211.948242188 30 c 0
 199.948242188 45 189.948242188 64 182.948242188 85 c 0
 175.948242188 106 172.948242188 134 172.948242188 166 c 0
EndSplineSet
Validated: 524289
EndChar

StartChar: e
Encoding: 101 101 79
Width: 630
GlyphClass: 2
Flags: HMW
HStem: -28 60<300.568 333.568 300.568 333.568> 455 66<403.568 451.568>
VStem: 179.568 61<134 140.5>
LayerCount: 2
Fore
SplineSet
484.567382812 60 m 0
 472.567382812 45 460.567382812 33 449.567382812 24 c 0
 438.567382812 14 426.567382812 5 412.567382812 -4 c 0
 386.567382812 -20 351.567382812 -28 309.567382812 -28 c 2
 300.567382812 -28 l 2
 248.567382812 -27 213.567382812 -4 194.567382812 39 c 0
 184.567382812 63 179.567382812 91 179.567382812 124 c 0
 179.567382812 157 184.567382812 193 193.567382812 234 c 0
 203.567382812 279 218.567382812 320 238.567382812 356 c 0
 258.567382812 392 279.567382812 423 302.567382812 447 c 0
 323.567382812 471 345.567382812 489 369.567382812 502 c 0
 393.567382812 515 418.567382812 521 443.567382812 521 c 0
 459.567382812 521 475.567382812 516 492.567382812 505 c 0
 509.567382812 494 523.567382812 479 536.567382812 458 c 0
 549.567382812 437 556.567382812 416 557.567382812 393 c 0
 557.567382812 378 549.567382812 362 535.567382812 343 c 0
 521.567382812 324 507.567382812 310 494.567382812 300 c 0
 468.567382812 280 436.567382812 261 396.567382812 241 c 0
 376.567382812 232 360.567382812 224 346.567382812 217 c 0
 332.567382812 210 316.567382812 202 295.567382812 193 c 0
 277.567382812 184 259.567382812 178 242.567382812 173 c 1
 241.567382812 158 240.567382812 146 240.567382812 138 c 0
 240.567382812 130 241.567382812 123 241.567382812 116 c 0
 243.567382812 101 247.567382812 88 253.567382812 75 c 0
 259.567382812 62 267.567382812 51 280.567382812 44 c 0
 293.567382812 36 309.567382812 32 327.567382812 32 c 0
 339.567382812 32 352.567382812 35 366.567382812 40 c 0
 380.567382812 45 392.567382812 51 403.567382812 60 c 0
 423.567382812 77 437.567382812 89 444.567382812 98 c 0
 455.567382812 110 464.567382812 119 472.567382812 124 c 0
 477.567382812 127 483.567382812 129 487.567382812 129 c 0
 491.567382812 129 495.567382812 127 498.567382812 124 c 0
 503.567382812 119 506.567382812 112 506.567382812 105 c 0
 506.567382812 93 499.567382812 78 484.567382812 60 c 0
351.567382812 427 m 0
 340.567382812 417 329.567382812 405 319.567382812 391 c 0
 309.567382812 377 299.567382812 360 289.567382812 339 c 0
 278.567382812 318 269.567382812 295 262.567382812 270 c 2
 257.567382812 249 l 1
 277.567382812 255 l 2
 380.567382812 287 450.567382812 319 487.567382812 352 c 2
 493.567382812 357 l 1
 491.567382812 364 l 2
 484.567382812 396 475.567382812 419 462.567382812 433 c 0
 448.567382812 448 432.567382812 455 413.567382812 455 c 0
 393.567382812 455 372.567382812 446 351.567382812 427 c 0
EndSplineSet
Validated: 524289
EndChar

